<?xml version="1.0" encoding="UTF-8" standalone="no"?>
<!DOCTYPE svg PUBLIC "-//W3C//DTD SVG 1.1//EN"
 "http://www.w3.org/Graphics/SVG/1.1/DTD/svg11.dtd">
<!-- Generated by graphviz version 2.38.0 (20140413.2041)
 -->
<!-- Title: controllers_diagram Pages: 1 -->
<svg width="659pt" height="486pt"
 viewBox="0.00 0.00 659.25 486.08" xmlns="http://www.w3.org/2000/svg" xmlns:xlink="http://www.w3.org/1999/xlink">
<g id="graph0" class="graph" transform="scale(1 1) rotate(0) translate(225.559 223.418)">
<title>controllers_diagram</title>
<polygon fill="white" stroke="none" points="-225.559,262.664 -225.559,-223.418 433.688,-223.418 433.688,262.664 -225.559,262.664"/>
<!-- _diagram_info -->
<g id="node1" class="node"><title>_diagram_info</title>
<text text-anchor="start" x="230.312" y="-22.1" font-family="Times,serif" font-size="13.00">Controllers diagram</text>
<text text-anchor="start" x="230.312" y="-9.1" font-family="Times,serif" font-size="13.00">Date: Aug 10 2014 &#45; 14:30</text>
<text text-anchor="start" x="230.312" y="3.9" font-family="Times,serif" font-size="13.00">Migration version: 20140809000201</text>
<text text-anchor="start" x="230.312" y="16.9" font-family="Times,serif" font-size="13.00">Generated by RailRoady 1.1.1</text>
<text text-anchor="start" x="230.312" y="29.9" font-family="Times,serif" font-size="13.00">http://railroady.prestonlee.com</text>
</g>
<!-- ApplicationController -->
<g id="node2" class="node"><title>ApplicationController</title>
<path fill="none" stroke="black" d="M-99.0357,66.3116C-99.0357,66.3116 74.8959,66.3116 74.8959,66.3116 80.8959,66.3116 86.8959,60.3116 86.8959,54.3116 86.8959,54.3116 86.8959,-9.68836 86.8959,-9.68836 86.8959,-15.6884 80.8959,-21.6884 74.8959,-21.6884 74.8959,-21.6884 -99.0357,-21.6884 -99.0357,-21.6884 -105.036,-21.6884 -111.036,-15.6884 -111.036,-9.68836 -111.036,-9.68836 -111.036,54.3116 -111.036,54.3116 -111.036,60.3116 -105.036,66.3116 -99.0357,66.3116"/>
<text text-anchor="middle" x="-12.0699" y="-6.48836" font-family="Times,serif" font-size="14.00">ApplicationController</text>
<polyline fill="none" stroke="black" points="-111.036,0.31164 86.8959,0.31164 "/>
<text text-anchor="start" x="-103.036" y="15.5116" font-family="Times,serif" font-size="14.00">about</text>
<polyline fill="none" stroke="black" points="-111.036,22.3116 86.8959,22.3116 "/>
<text text-anchor="start" x="-103.036" y="37.5116" font-family="Times,serif" font-size="14.00">configure_permitted_parameters</text>
<polyline fill="none" stroke="black" points="-111.036,44.3116 86.8959,44.3116 "/>
<text text-anchor="start" x="-103.036" y="59.5116" font-family="Times,serif" font-size="14.00">_layout</text>
</g>
<!-- MessagesController -->
<g id="node3" class="node"><title>MessagesController</title>
<path fill="none" stroke="black" d="M70.0533,223.168C70.0533,223.168 174.033,223.168 174.033,223.168 180.033,223.168 186.033,217.168 186.033,211.168 186.033,211.168 186.033,131.168 186.033,131.168 186.033,125.168 180.033,119.168 174.033,119.168 174.033,119.168 70.0533,119.168 70.0533,119.168 64.0533,119.168 58.0533,125.168 58.0533,131.168 58.0533,131.168 58.0533,211.168 58.0533,211.168 58.0533,217.168 64.0533,223.168 70.0533,223.168"/>
<text text-anchor="middle" x="122.043" y="134.368" font-family="Times,serif" font-size="14.00">MessagesController</text>
<polyline fill="none" stroke="black" points="58.0533,141.168 186.033,141.168 "/>
<text text-anchor="start" x="66.0533" y="156.368" font-family="Times,serif" font-size="14.00">create</text>
<polyline fill="none" stroke="black" points="58.0533,163.168 186.033,163.168 "/>
<polyline fill="none" stroke="black" points="58.0533,187.168 186.033,187.168 "/>
<text text-anchor="start" x="66.0533" y="202.368" font-family="Times,serif" font-size="14.00">_layout</text>
<text text-anchor="start" x="66.0533" y="216.368" font-family="Times,serif" font-size="14.00">message_params</text>
</g>
<!-- ApplicationController&#45;&gt;MessagesController -->
<g id="edge1" class="edge"><title>ApplicationController&#45;&gt;MessagesController</title>
<path fill="none" stroke="black" d="M27.8053,66.5704C42.6301,83.025 59.5885,101.848 74.9955,118.948"/>
</g>
<!-- ProjectsController -->
<g id="node4" class="node"><title>ProjectsController</title>
<path fill="none" stroke="black" d="M-195.595,258.164C-195.595,258.164 -100.947,258.164 -100.947,258.164 -94.9465,258.164 -88.9465,252.164 -88.9465,246.164 -88.9465,246.164 -88.9465,96.1642 -88.9465,96.1642 -88.9465,90.1642 -94.9465,84.1642 -100.947,84.1642 -100.947,84.1642 -195.595,84.1642 -195.595,84.1642 -201.595,84.1642 -207.595,90.1642 -207.595,96.1642 -207.595,96.1642 -207.595,246.164 -207.595,246.164 -207.595,252.164 -201.595,258.164 -195.595,258.164"/>
<text text-anchor="middle" x="-148.271" y="99.3642" font-family="Times,serif" font-size="14.00">ProjectsController</text>
<polyline fill="none" stroke="black" points="-207.595,106.164 -88.9465,106.164 "/>
<text text-anchor="start" x="-199.595" y="121.364" font-family="Times,serif" font-size="14.00">create</text>
<text text-anchor="start" x="-199.595" y="135.364" font-family="Times,serif" font-size="14.00">edit</text>
<text text-anchor="start" x="-199.595" y="149.364" font-family="Times,serif" font-size="14.00">index</text>
<text text-anchor="start" x="-199.595" y="163.364" font-family="Times,serif" font-size="14.00">new</text>
<text text-anchor="start" x="-199.595" y="177.364" font-family="Times,serif" font-size="14.00">show</text>
<polyline fill="none" stroke="black" points="-207.595,184.164 -88.9465,184.164 "/>
<polyline fill="none" stroke="black" points="-207.595,208.164 -88.9465,208.164 "/>
<text text-anchor="start" x="-199.595" y="223.364" font-family="Times,serif" font-size="14.00">_layout</text>
<text text-anchor="start" x="-199.595" y="237.364" font-family="Times,serif" font-size="14.00">project_params</text>
<text text-anchor="start" x="-199.595" y="251.364" font-family="Times,serif" font-size="14.00">set_project</text>
</g>
<!-- ApplicationController&#45;&gt;ProjectsController -->
<g id="edge2" class="edge"><title>ApplicationController&#45;&gt;ProjectsController</title>
<path fill="none" stroke="black" d="M-52.5659,66.5693C-63.936,78.9956 -76.5419,92.7725 -88.7717,106.138"/>
</g>
<!-- UserProjectsController -->
<g id="node5" class="node"><title>UserProjectsController</title>
<path fill="none" stroke="black" d="M-209.559,-30.9184C-209.559,-30.9184 -88.4759,-30.9184 -88.4759,-30.9184 -82.4759,-30.9184 -76.4759,-36.9184 -76.4759,-42.9184 -76.4759,-42.9184 -76.4759,-206.918 -76.4759,-206.918 -76.4759,-212.918 -82.4759,-218.918 -88.4759,-218.918 -88.4759,-218.918 -209.559,-218.918 -209.559,-218.918 -215.559,-218.918 -221.559,-212.918 -221.559,-206.918 -221.559,-206.918 -221.559,-42.9184 -221.559,-42.9184 -221.559,-36.9184 -215.559,-30.9184 -209.559,-30.9184"/>
<text text-anchor="middle" x="-149.017" y="-203.718" font-family="Times,serif" font-size="14.00">UserProjectsController</text>
<polyline fill="none" stroke="black" points="-221.559,-196.918 -76.4759,-196.918 "/>
<text text-anchor="start" x="-213.559" y="-181.718" font-family="Times,serif" font-size="14.00">accept_invitation</text>
<text text-anchor="start" x="-213.559" y="-167.718" font-family="Times,serif" font-size="14.00">apply_for_project</text>
<text text-anchor="start" x="-213.559" y="-153.718" font-family="Times,serif" font-size="14.00">approve_collaboration</text>
<text text-anchor="start" x="-213.559" y="-139.718" font-family="Times,serif" font-size="14.00">close_project</text>
<text text-anchor="start" x="-213.559" y="-125.718" font-family="Times,serif" font-size="14.00">deny_collaboration</text>
<text text-anchor="start" x="-213.559" y="-111.718" font-family="Times,serif" font-size="14.00">in_progress</text>
<text text-anchor="start" x="-213.559" y="-97.7184" font-family="Times,serif" font-size="14.00">invite</text>
<text text-anchor="start" x="-213.559" y="-83.7184" font-family="Times,serif" font-size="14.00">update</text>
<polyline fill="none" stroke="black" points="-221.559,-76.9184 -76.4759,-76.9184 "/>
<polyline fill="none" stroke="black" points="-221.559,-52.9184 -76.4759,-52.9184 "/>
<text text-anchor="start" x="-213.559" y="-37.7184" font-family="Times,serif" font-size="14.00">_layout</text>
</g>
<!-- ApplicationController&#45;&gt;UserProjectsController -->
<g id="edge3" class="edge"><title>ApplicationController&#45;&gt;UserProjectsController</title>
<path fill="none" stroke="black" d="M-53.1586,-21.8622C-60.5646,-29.8242 -68.4822,-38.3364 -76.4741,-46.9283"/>
</g>
<!-- UsersController -->
<g id="node6" class="node"><title>UsersController</title>
<path fill="none" stroke="black" d="M80.9872,-67.0296C80.9872,-67.0296 162.415,-67.0296 162.415,-67.0296 168.415,-67.0296 174.415,-73.0296 174.415,-79.0296 174.415,-79.0296 174.415,-173.03 174.415,-173.03 174.415,-179.03 168.415,-185.03 162.415,-185.03 162.415,-185.03 80.9872,-185.03 80.9872,-185.03 74.9872,-185.03 68.9872,-179.03 68.9872,-173.03 68.9872,-173.03 68.9872,-79.0296 68.9872,-79.0296 68.9872,-73.0296 74.9872,-67.0296 80.9872,-67.0296"/>
<text text-anchor="middle" x="121.701" y="-169.83" font-family="Times,serif" font-size="14.00">UsersController</text>
<polyline fill="none" stroke="black" points="68.9872,-163.03 174.415,-163.03 "/>
<text text-anchor="start" x="76.9872" y="-147.83" font-family="Times,serif" font-size="14.00">show</text>
<polyline fill="none" stroke="black" points="68.9872,-141.03 174.415,-141.03 "/>
<polyline fill="none" stroke="black" points="68.9872,-117.03 174.415,-117.03 "/>
<text text-anchor="start" x="76.9872" y="-101.83" font-family="Times,serif" font-size="14.00">_layout</text>
<text text-anchor="start" x="76.9872" y="-87.8296" font-family="Times,serif" font-size="14.00">set_user</text>
<text text-anchor="start" x="76.9872" y="-73.8296" font-family="Times,serif" font-size="14.00">user_params</text>
</g>
<!-- ApplicationController&#45;&gt;UsersController -->
<g id="edge4" class="edge"><title>ApplicationController&#45;&gt;UsersController</title>
<path fill="none" stroke="black" d="M27.7036,-21.794C40.6423,-36.1419 55.2103,-52.2966 68.9453,-67.5277"/>
</g>
</g>
</svg>
