<?xml version="1.0" encoding="UTF-8" standalone="no"?>
<!DOCTYPE svg PUBLIC "-//W3C//DTD SVG 1.1//EN"
 "http://www.w3.org/Graphics/SVG/1.1/DTD/svg11.dtd">
<!-- Generated by graphviz version 2.38.0 (20140413.2041)
 -->
<!-- Title: controllers_diagram Pages: 1 -->
<svg width="671pt" height="447pt"
 viewBox="0.00 0.00 670.89 447.43" xmlns="http://www.w3.org/2000/svg" xmlns:xlink="http://www.w3.org/1999/xlink">
<g id="graph0" class="graph" transform="scale(1 1) rotate(0) translate(214.198 198.356)">
<title>controllers_diagram</title>
<polygon fill="white" stroke="none" points="-214.198,249.076 -214.198,-198.356 456.688,-198.356 456.688,249.076 -214.198,249.076"/>
<!-- _diagram_info -->
<g id="node1" class="node"><title>_diagram_info</title>
<text text-anchor="start" x="253.312" y="185.9" font-family="Times,serif" font-size="13.00">Controllers diagram</text>
<text text-anchor="start" x="253.312" y="198.9" font-family="Times,serif" font-size="13.00">Date: Aug 08 2014 &#45; 20:14</text>
<text text-anchor="start" x="253.312" y="211.9" font-family="Times,serif" font-size="13.00">Migration version: 20140809000201</text>
<text text-anchor="start" x="253.312" y="224.9" font-family="Times,serif" font-size="13.00">Generated by RailRoady 1.1.1</text>
<text text-anchor="start" x="253.312" y="237.9" font-family="Times,serif" font-size="13.00">http://railroady.prestonlee.com</text>
</g>
<!-- ApplicationController -->
<g id="node2" class="node"><title>ApplicationController</title>
<path fill="none" stroke="black" d="M-89.3556,60.2331C-89.3556,60.2331 84.576,60.2331 84.576,60.2331 90.576,60.2331 96.576,54.2331 96.576,48.2331 96.576,48.2331 96.576,-15.7669 96.576,-15.7669 96.576,-21.7669 90.576,-27.7669 84.576,-27.7669 84.576,-27.7669 -89.3556,-27.7669 -89.3556,-27.7669 -95.3556,-27.7669 -101.356,-21.7669 -101.356,-15.7669 -101.356,-15.7669 -101.356,48.2331 -101.356,48.2331 -101.356,54.2331 -95.3556,60.2331 -89.3556,60.2331"/>
<text text-anchor="middle" x="-2.38979" y="-12.5669" font-family="Times,serif" font-size="14.00">ApplicationController</text>
<polyline fill="none" stroke="black" points="-101.356,-5.76687 96.576,-5.76687 "/>
<text text-anchor="start" x="-93.3556" y="9.43313" font-family="Times,serif" font-size="14.00">about</text>
<polyline fill="none" stroke="black" points="-101.356,16.2331 96.576,16.2331 "/>
<text text-anchor="start" x="-93.3556" y="31.4331" font-family="Times,serif" font-size="14.00">configure_permitted_parameters</text>
<polyline fill="none" stroke="black" points="-101.356,38.2331 96.576,38.2331 "/>
<text text-anchor="start" x="-93.3556" y="53.4331" font-family="Times,serif" font-size="14.00">_layout</text>
</g>
<!-- MessagesController -->
<g id="node3" class="node"><title>MessagesController</title>
<path fill="none" stroke="black" d="M78.2757,209.136C78.2757,209.136 182.255,209.136 182.255,209.136 188.255,209.136 194.255,203.136 194.255,197.136 194.255,197.136 194.255,117.136 194.255,117.136 194.255,111.136 188.255,105.136 182.255,105.136 182.255,105.136 78.2757,105.136 78.2757,105.136 72.2757,105.136 66.2757,111.136 66.2757,117.136 66.2757,117.136 66.2757,197.136 66.2757,197.136 66.2757,203.136 72.2757,209.136 78.2757,209.136"/>
<text text-anchor="middle" x="130.265" y="120.336" font-family="Times,serif" font-size="14.00">MessagesController</text>
<polyline fill="none" stroke="black" points="66.2757,127.136 194.255,127.136 "/>
<text text-anchor="start" x="74.2757" y="142.336" font-family="Times,serif" font-size="14.00">create</text>
<polyline fill="none" stroke="black" points="66.2757,149.136 194.255,149.136 "/>
<polyline fill="none" stroke="black" points="66.2757,173.136 194.255,173.136 "/>
<text text-anchor="start" x="74.2757" y="188.336" font-family="Times,serif" font-size="14.00">_layout</text>
<text text-anchor="start" x="74.2757" y="202.336" font-family="Times,serif" font-size="14.00">message_params</text>
</g>
<!-- ApplicationController&#45;&gt;MessagesController -->
<g id="edge1" class="edge"><title>ApplicationController&#45;&gt;MessagesController</title>
<path fill="none" stroke="black" d="M39.2192,60.4292C52.5163,74.5531 67.36,90.3198 81.1397,104.956"/>
</g>
<!-- ProjectsController -->
<g id="node4" class="node"><title>ProjectsController</title>
<path fill="none" stroke="black" d="M-183.559,244.576C-183.559,244.576 -88.9108,244.576 -88.9108,244.576 -82.9108,244.576 -76.9108,238.576 -76.9108,232.576 -76.9108,232.576 -76.9108,82.5756 -76.9108,82.5756 -76.9108,76.5756 -82.9108,70.5756 -88.9108,70.5756 -88.9108,70.5756 -183.559,70.5756 -183.559,70.5756 -189.559,70.5756 -195.559,76.5756 -195.559,82.5756 -195.559,82.5756 -195.559,232.576 -195.559,232.576 -195.559,238.576 -189.559,244.576 -183.559,244.576"/>
<text text-anchor="middle" x="-136.235" y="85.7756" font-family="Times,serif" font-size="14.00">ProjectsController</text>
<polyline fill="none" stroke="black" points="-195.559,92.5756 -76.9108,92.5756 "/>
<text text-anchor="start" x="-187.559" y="107.776" font-family="Times,serif" font-size="14.00">create</text>
<text text-anchor="start" x="-187.559" y="121.776" font-family="Times,serif" font-size="14.00">edit</text>
<text text-anchor="start" x="-187.559" y="135.776" font-family="Times,serif" font-size="14.00">index</text>
<text text-anchor="start" x="-187.559" y="149.776" font-family="Times,serif" font-size="14.00">new</text>
<text text-anchor="start" x="-187.559" y="163.776" font-family="Times,serif" font-size="14.00">show</text>
<polyline fill="none" stroke="black" points="-195.559,170.576 -76.9108,170.576 "/>
<polyline fill="none" stroke="black" points="-195.559,194.576 -76.9108,194.576 "/>
<text text-anchor="start" x="-187.559" y="209.776" font-family="Times,serif" font-size="14.00">_layout</text>
<text text-anchor="start" x="-187.559" y="223.776" font-family="Times,serif" font-size="14.00">project_params</text>
<text text-anchor="start" x="-187.559" y="237.776" font-family="Times,serif" font-size="14.00">set_project</text>
</g>
<!-- ApplicationController&#45;&gt;ProjectsController -->
<g id="edge2" class="edge"><title>ApplicationController&#45;&gt;ProjectsController</title>
<path fill="none" stroke="black" d="M-44.372,60.567C-54.6451,71.4155 -65.8332,83.2303 -76.7536,94.7625"/>
</g>
<!-- UserProjectsController -->
<g id="node5" class="node"><title>UserProjectsController</title>
<path fill="none" stroke="black" d="M-198.198,-47.8564C-198.198,-47.8564 -77.1154,-47.8564 -77.1154,-47.8564 -71.1154,-47.8564 -65.1154,-53.8564 -65.1154,-59.8564 -65.1154,-59.8564 -65.1154,-181.856 -65.1154,-181.856 -65.1154,-187.856 -71.1154,-193.856 -77.1154,-193.856 -77.1154,-193.856 -198.198,-193.856 -198.198,-193.856 -204.198,-193.856 -210.198,-187.856 -210.198,-181.856 -210.198,-181.856 -210.198,-59.8564 -210.198,-59.8564 -210.198,-53.8564 -204.198,-47.8564 -198.198,-47.8564"/>
<text text-anchor="middle" x="-137.657" y="-178.656" font-family="Times,serif" font-size="14.00">UserProjectsController</text>
<polyline fill="none" stroke="black" points="-210.198,-171.856 -65.1154,-171.856 "/>
<text text-anchor="start" x="-202.198" y="-156.656" font-family="Times,serif" font-size="14.00">apply_for_project</text>
<text text-anchor="start" x="-202.198" y="-142.656" font-family="Times,serif" font-size="14.00">approve_collaboration</text>
<text text-anchor="start" x="-202.198" y="-128.656" font-family="Times,serif" font-size="14.00">deny_collaboration</text>
<text text-anchor="start" x="-202.198" y="-114.656" font-family="Times,serif" font-size="14.00">invite</text>
<text text-anchor="start" x="-202.198" y="-100.656" font-family="Times,serif" font-size="14.00">update</text>
<polyline fill="none" stroke="black" points="-210.198,-93.8564 -65.1154,-93.8564 "/>
<polyline fill="none" stroke="black" points="-210.198,-69.8564 -65.1154,-69.8564 "/>
<text text-anchor="start" x="-202.198" y="-54.6564" font-family="Times,serif" font-size="14.00">_layout</text>
</g>
<!-- ApplicationController&#45;&gt;UserProjectsController -->
<g id="edge3" class="edge"><title>ApplicationController&#45;&gt;UserProjectsController</title>
<path fill="none" stroke="black" d="M-45.9337,-27.8975C-52.1123,-34.1593 -58.5994,-40.7338 -65.1478,-47.3704"/>
</g>
<!-- UsersController -->
<g id="node6" class="node"><title>UsersController</title>
<path fill="none" stroke="black" d="M89.3651,-63.0594C89.3651,-63.0594 170.793,-63.0594 170.793,-63.0594 176.793,-63.0594 182.793,-69.0594 182.793,-75.0594 182.793,-75.0594 182.793,-169.059 182.793,-169.059 182.793,-175.059 176.793,-181.059 170.793,-181.059 170.793,-181.059 89.3651,-181.059 89.3651,-181.059 83.3651,-181.059 77.3651,-175.059 77.3651,-169.059 77.3651,-169.059 77.3651,-75.0594 77.3651,-75.0594 77.3651,-69.0594 83.3651,-63.0594 89.3651,-63.0594"/>
<text text-anchor="middle" x="130.079" y="-165.859" font-family="Times,serif" font-size="14.00">UsersController</text>
<polyline fill="none" stroke="black" points="77.3651,-159.059 182.793,-159.059 "/>
<text text-anchor="start" x="85.3651" y="-143.859" font-family="Times,serif" font-size="14.00">show</text>
<polyline fill="none" stroke="black" points="77.3651,-137.059 182.793,-137.059 "/>
<polyline fill="none" stroke="black" points="77.3651,-113.059 182.793,-113.059 "/>
<text text-anchor="start" x="85.3651" y="-97.8594" font-family="Times,serif" font-size="14.00">_layout</text>
<text text-anchor="start" x="85.3651" y="-83.8594" font-family="Times,serif" font-size="14.00">set_user</text>
<text text-anchor="start" x="85.3651" y="-69.8594" font-family="Times,serif" font-size="14.00">user_params</text>
</g>
<!-- ApplicationController&#45;&gt;UsersController -->
<g id="edge4" class="edge"><title>ApplicationController&#45;&gt;UsersController</title>
<path fill="none" stroke="black" d="M39.8884,-27.9037C51.7005,-40.2351 64.6874,-53.7929 77.0366,-66.6851"/>
</g>
</g>
</svg>
