<?xml version="1.0" encoding="UTF-8" standalone="no"?>
<!DOCTYPE svg PUBLIC "-//W3C//DTD SVG 1.1//EN"
 "http://www.w3.org/Graphics/SVG/1.1/DTD/svg11.dtd">
<!-- Generated by graphviz version 2.38.0 (20140413.2041)
 -->
<!-- Title: controllers_diagram Pages: 1 -->
<svg width="526pt" height="398pt"
 viewBox="0.00 0.00 525.97 398.15" xmlns="http://www.w3.org/2000/svg" xmlns:xlink="http://www.w3.org/1999/xlink">
<g id="graph0" class="graph" transform="scale(1 1) rotate(0) translate(190.284 177.61)">
<title>controllers_diagram</title>
<polygon fill="white" stroke="none" points="-190.284,220.535 -190.284,-177.61 335.688,-177.61 335.688,220.535 -190.284,220.535"/>
<!-- _diagram_info -->
<g id="node1" class="node"><title>_diagram_info</title>
<text text-anchor="start" x="132.312" y="64.9" font-family="Times,serif" font-size="13.00">Controllers diagram</text>
<text text-anchor="start" x="132.312" y="77.9" font-family="Times,serif" font-size="13.00">Date: Aug 06 2014 &#45; 09:55</text>
<text text-anchor="start" x="132.312" y="90.9" font-family="Times,serif" font-size="13.00">Migration version: 20140806132945</text>
<text text-anchor="start" x="132.312" y="103.9" font-family="Times,serif" font-size="13.00">Generated by RailRoady 1.1.1</text>
<text text-anchor="start" x="132.312" y="116.9" font-family="Times,serif" font-size="13.00">http://railroady.prestonlee.com</text>
</g>
<!-- ApplicationController -->
<g id="node2" class="node"><title>ApplicationController</title>
<path fill="none" stroke="black" d="M-174.284,7.64697C-174.284,7.64697 -0.352767,7.64697 -0.352767,7.64697 5.64723,7.64697 11.6472,1.64697 11.6472,-4.35303 11.6472,-4.35303 11.6472,-70.353 11.6472,-70.353 11.6472,-76.353 5.64723,-82.353 -0.352767,-82.353 -0.352767,-82.353 -174.284,-82.353 -174.284,-82.353 -180.284,-82.353 -186.284,-76.353 -186.284,-70.353 -186.284,-70.353 -186.284,-4.35303 -186.284,-4.35303 -186.284,1.64697 -180.284,7.64697 -174.284,7.64697"/>
<text text-anchor="middle" x="-87.3186" y="-67.153" font-family="Times,serif" font-size="14.00">ApplicationController</text>
<polyline fill="none" stroke="black" points="-186.284,-60.353 11.6472,-60.353 "/>
<text text-anchor="start" x="-178.284" y="-45.153" font-family="Times,serif" font-size="14.00">configure_permitted_parameters</text>
<polyline fill="none" stroke="black" points="-186.284,-38.353 11.6472,-38.353 "/>
<polyline fill="none" stroke="black" points="-186.284,-14.353 11.6472,-14.353 "/>
<text text-anchor="start" x="-178.284" y="0.84697" font-family="Times,serif" font-size="14.00">_layout</text>
</g>
<!-- ProjectsController -->
<g id="node3" class="node"><title>ProjectsController</title>
<path fill="none" stroke="black" d="M35.0245,0.88971C35.0245,0.88971 129.673,0.88971 129.673,0.88971 135.673,0.88971 141.673,-5.11029 141.673,-11.1103 141.673,-11.1103 141.673,-161.11 141.673,-161.11 141.673,-167.11 135.673,-173.11 129.673,-173.11 129.673,-173.11 35.0245,-173.11 35.0245,-173.11 29.0245,-173.11 23.0245,-167.11 23.0245,-161.11 23.0245,-161.11 23.0245,-11.1103 23.0245,-11.1103 23.0245,-5.11029 29.0245,0.88971 35.0245,0.88971"/>
<text text-anchor="middle" x="82.3487" y="-157.91" font-family="Times,serif" font-size="14.00">ProjectsController</text>
<polyline fill="none" stroke="black" points="23.0245,-151.11 141.673,-151.11 "/>
<text text-anchor="start" x="31.0245" y="-135.91" font-family="Times,serif" font-size="14.00">create</text>
<text text-anchor="start" x="31.0245" y="-121.91" font-family="Times,serif" font-size="14.00">edit</text>
<text text-anchor="start" x="31.0245" y="-107.91" font-family="Times,serif" font-size="14.00">index</text>
<text text-anchor="start" x="31.0245" y="-93.9103" font-family="Times,serif" font-size="14.00">new</text>
<text text-anchor="start" x="31.0245" y="-79.9103" font-family="Times,serif" font-size="14.00">show</text>
<polyline fill="none" stroke="black" points="23.0245,-73.1103 141.673,-73.1103 "/>
<polyline fill="none" stroke="black" points="23.0245,-49.1103 141.673,-49.1103 "/>
<text text-anchor="start" x="31.0245" y="-33.9103" font-family="Times,serif" font-size="14.00">_layout</text>
<text text-anchor="start" x="31.0245" y="-19.9103" font-family="Times,serif" font-size="14.00">project_params</text>
<text text-anchor="start" x="31.0245" y="-5.91029" font-family="Times,serif" font-size="14.00">set_project</text>
</g>
<!-- ApplicationController&#45;&gt;ProjectsController -->
<g id="edge1" class="edge"><title>ApplicationController&#45;&gt;ProjectsController</title>
<path fill="none" stroke="black" d="M11.8685,-65.8564C15.4944,-66.8984 19.0843,-67.93 22.6106,-68.9433"/>
</g>
<!-- UsersController -->
<g id="node4" class="node"><title>UsersController</title>
<path fill="none" stroke="black" d="M-14.8931,216.035C-14.8931,216.035 66.5347,216.035 66.5347,216.035 72.5347,216.035 78.5347,210.035 78.5347,204.035 78.5347,204.035 78.5347,110.035 78.5347,110.035 78.5347,104.035 72.5347,98.0354 66.5347,98.0354 66.5347,98.0354 -14.8931,98.0354 -14.8931,98.0354 -20.8931,98.0354 -26.8931,104.035 -26.8931,110.035 -26.8931,110.035 -26.8931,204.035 -26.8931,204.035 -26.8931,210.035 -20.8931,216.035 -14.8931,216.035"/>
<text text-anchor="middle" x="25.8208" y="113.235" font-family="Times,serif" font-size="14.00">UsersController</text>
<polyline fill="none" stroke="black" points="-26.8931,120.035 78.5347,120.035 "/>
<text text-anchor="start" x="-18.8931" y="135.235" font-family="Times,serif" font-size="14.00">show</text>
<polyline fill="none" stroke="black" points="-26.8931,142.035 78.5347,142.035 "/>
<polyline fill="none" stroke="black" points="-26.8931,166.035 78.5347,166.035 "/>
<text text-anchor="start" x="-18.8931" y="181.235" font-family="Times,serif" font-size="14.00">_layout</text>
<text text-anchor="start" x="-18.8931" y="195.235" font-family="Times,serif" font-size="14.00">set_user</text>
<text text-anchor="start" x="-18.8931" y="209.235" font-family="Times,serif" font-size="14.00">user_params</text>
</g>
<!-- ApplicationController&#45;&gt;UsersController -->
<g id="edge2" class="edge"><title>ApplicationController&#45;&gt;UsersController</title>
<path fill="none" stroke="black" d="M-61.0778,7.73217C-45.4762,34.5377 -25.5051,68.8508 -8.64328,97.8215"/>
</g>
</g>
</svg>
