<?xml version="1.0" encoding="UTF-8" standalone="no"?>
<!DOCTYPE svg PUBLIC "-//W3C//DTD SVG 1.1//EN"
 "http://www.w3.org/Graphics/SVG/1.1/DTD/svg11.dtd">
<!-- Generated by graphviz version 2.38.0 (20140413.2041)
 -->
<!-- Title: controllers_diagram Pages: 1 -->
<svg width="516pt" height="379pt"
 viewBox="0.00 0.00 515.67 379.04" xmlns="http://www.w3.org/2000/svg" xmlns:xlink="http://www.w3.org/1999/xlink">
<g id="graph0" class="graph" transform="scale(1 1) rotate(0) translate(183.987 195.26)">
<title>controllers_diagram</title>
<polygon fill="white" stroke="none" points="-183.987,183.78 -183.987,-195.26 331.688,-195.26 331.688,183.78 -183.987,183.78"/>
<!-- _diagram_info -->
<g id="node1" class="node"><title>_diagram_info</title>
<text text-anchor="start" x="128.312" y="60.9" font-family="Times,serif" font-size="13.00">Controllers diagram</text>
<text text-anchor="start" x="128.312" y="73.9" font-family="Times,serif" font-size="13.00">Date: Aug 05 2014 &#45; 21:17</text>
<text text-anchor="start" x="128.312" y="86.9" font-family="Times,serif" font-size="13.00">Migration version: 20140806002536</text>
<text text-anchor="start" x="128.312" y="99.9" font-family="Times,serif" font-size="13.00">Generated by RailRoady 1.1.1</text>
<text text-anchor="start" x="128.312" y="112.9" font-family="Times,serif" font-size="13.00">http://railroady.prestonlee.com</text>
</g>
<!-- ApplicationController -->
<g id="node2" class="node"><title>ApplicationController</title>
<path fill="none" stroke="black" d="M-167.987,-35.1825C-167.987,-35.1825 5.94503,-35.1825 5.94503,-35.1825 11.945,-35.1825 17.945,-41.1825 17.945,-47.1825 17.945,-47.1825 17.945,-113.183 17.945,-113.183 17.945,-119.183 11.945,-125.183 5.94503,-125.183 5.94503,-125.183 -167.987,-125.183 -167.987,-125.183 -173.987,-125.183 -179.987,-119.183 -179.987,-113.183 -179.987,-113.183 -179.987,-47.1825 -179.987,-47.1825 -179.987,-41.1825 -173.987,-35.1825 -167.987,-35.1825"/>
<text text-anchor="middle" x="-81.0208" y="-109.983" font-family="Times,serif" font-size="14.00">ApplicationController</text>
<polyline fill="none" stroke="black" points="-179.987,-103.183 17.945,-103.183 "/>
<text text-anchor="start" x="-171.987" y="-87.9825" font-family="Times,serif" font-size="14.00">configure_permitted_parameters</text>
<polyline fill="none" stroke="black" points="-179.987,-81.1825 17.945,-81.1825 "/>
<polyline fill="none" stroke="black" points="-179.987,-57.1825 17.945,-57.1825 "/>
<text text-anchor="start" x="-171.987" y="-41.9825" font-family="Times,serif" font-size="14.00">_layout</text>
</g>
<!-- ProjectsController -->
<g id="node3" class="node"><title>ProjectsController</title>
<path fill="none" stroke="black" d="M45.1939,-30.7601C45.1939,-30.7601 139.842,-30.7601 139.842,-30.7601 145.842,-30.7601 151.842,-36.7601 151.842,-42.7601 151.842,-42.7601 151.842,-178.76 151.842,-178.76 151.842,-184.76 145.842,-190.76 139.842,-190.76 139.842,-190.76 45.1939,-190.76 45.1939,-190.76 39.1939,-190.76 33.1939,-184.76 33.1939,-178.76 33.1939,-178.76 33.1939,-42.7601 33.1939,-42.7601 33.1939,-36.7601 39.1939,-30.7601 45.1939,-30.7601"/>
<text text-anchor="middle" x="92.5182" y="-175.56" font-family="Times,serif" font-size="14.00">ProjectsController</text>
<polyline fill="none" stroke="black" points="33.1939,-168.76 151.842,-168.76 "/>
<text text-anchor="start" x="41.1939" y="-153.56" font-family="Times,serif" font-size="14.00">create</text>
<text text-anchor="start" x="41.1939" y="-139.56" font-family="Times,serif" font-size="14.00">edit</text>
<text text-anchor="start" x="41.1939" y="-125.56" font-family="Times,serif" font-size="14.00">index</text>
<text text-anchor="start" x="41.1939" y="-111.56" font-family="Times,serif" font-size="14.00">show</text>
<polyline fill="none" stroke="black" points="33.1939,-104.76 151.842,-104.76 "/>
<polyline fill="none" stroke="black" points="33.1939,-80.7601 151.842,-80.7601 "/>
<text text-anchor="start" x="41.1939" y="-65.5601" font-family="Times,serif" font-size="14.00">_layout</text>
<text text-anchor="start" x="41.1939" y="-51.5601" font-family="Times,serif" font-size="14.00">project_params</text>
<text text-anchor="start" x="41.1939" y="-37.5601" font-family="Times,serif" font-size="14.00">set_project</text>
</g>
<!-- ApplicationController&#45;&gt;ProjectsController -->
<g id="edge1" class="edge"><title>ApplicationController&#45;&gt;ProjectsController</title>
<path fill="none" stroke="black" d="M18.1668,-97.6594C23.1778,-98.5423 28.1324,-99.4153 32.9619,-100.266"/>
</g>
<!-- UsersController -->
<g id="node4" class="node"><title>UsersController</title>
<path fill="none" stroke="black" d="M-16.4623,179.28C-16.4623,179.28 64.9654,179.28 64.9654,179.28 70.9654,179.28 76.9654,173.28 76.9654,167.28 76.9654,167.28 76.9654,73.2803 76.9654,73.2803 76.9654,67.2803 70.9654,61.2803 64.9654,61.2803 64.9654,61.2803 -16.4623,61.2803 -16.4623,61.2803 -22.4623,61.2803 -28.4623,67.2803 -28.4623,73.2803 -28.4623,73.2803 -28.4623,167.28 -28.4623,167.28 -28.4623,173.28 -22.4623,179.28 -16.4623,179.28"/>
<text text-anchor="middle" x="24.2516" y="76.4803" font-family="Times,serif" font-size="14.00">UsersController</text>
<polyline fill="none" stroke="black" points="-28.4623,83.2803 76.9654,83.2803 "/>
<text text-anchor="start" x="-20.4623" y="98.4803" font-family="Times,serif" font-size="14.00">show</text>
<polyline fill="none" stroke="black" points="-28.4623,105.28 76.9654,105.28 "/>
<polyline fill="none" stroke="black" points="-28.4623,129.28 76.9654,129.28 "/>
<text text-anchor="start" x="-20.4623" y="144.48" font-family="Times,serif" font-size="14.00">_layout</text>
<text text-anchor="start" x="-20.4623" y="158.48" font-family="Times,serif" font-size="14.00">set_user</text>
<text text-anchor="start" x="-20.4623" y="172.48" font-family="Times,serif" font-size="14.00">user_params</text>
</g>
<!-- ApplicationController&#45;&gt;UsersController -->
<g id="edge2" class="edge"><title>ApplicationController&#45;&gt;UsersController</title>
<path fill="none" stroke="black" d="M-57.2643,-34.9448C-42.3463,-6.53736 -22.9456,30.4061 -6.8136,61.125"/>
</g>
</g>
</svg>
