<?xml version="1.0" encoding="UTF-8" standalone="no"?>
<!DOCTYPE svg PUBLIC "-//W3C//DTD SVG 1.1//EN"
 "http://www.w3.org/Graphics/SVG/1.1/DTD/svg11.dtd">
<!-- Generated by graphviz version 2.38.0 (20140413.2041)
 -->
<!-- Title: controllers_diagram Pages: 1 -->
<svg width="612pt" height="393pt"
 viewBox="0.00 0.00 612.18 393.26" xmlns="http://www.w3.org/2000/svg" xmlns:xlink="http://www.w3.org/1999/xlink">
<g id="graph0" class="graph" transform="scale(1 1) rotate(0) translate(202.491 191.434)">
<title>controllers_diagram</title>
<polygon fill="white" stroke="none" points="-202.491,201.826 -202.491,-191.434 409.688,-191.434 409.688,201.826 -202.491,201.826"/>
<!-- _diagram_info -->
<g id="node1" class="node"><title>_diagram_info</title>
<text text-anchor="start" x="206.312" y="138.9" font-family="Times,serif" font-size="13.00">Controllers diagram</text>
<text text-anchor="start" x="206.312" y="151.9" font-family="Times,serif" font-size="13.00">Date: Aug 07 2014 &#45; 18:07</text>
<text text-anchor="start" x="206.312" y="164.9" font-family="Times,serif" font-size="13.00">Migration version: 20140807212824</text>
<text text-anchor="start" x="206.312" y="177.9" font-family="Times,serif" font-size="13.00">Generated by RailRoady 1.1.1</text>
<text text-anchor="start" x="206.312" y="190.9" font-family="Times,serif" font-size="13.00">http://railroady.prestonlee.com</text>
</g>
<!-- ApplicationController -->
<g id="node2" class="node"><title>ApplicationController</title>
<path fill="none" stroke="black" d="M-186.491,120.26C-186.491,120.26 -12.5596,120.26 -12.5596,120.26 -6.55961,120.26 -0.559609,114.26 -0.559609,108.26 -0.559609,108.26 -0.559609,44.2604 -0.559609,44.2604 -0.559609,38.2604 -6.55961,32.2604 -12.5596,32.2604 -12.5596,32.2604 -186.491,32.2604 -186.491,32.2604 -192.491,32.2604 -198.491,38.2604 -198.491,44.2604 -198.491,44.2604 -198.491,108.26 -198.491,108.26 -198.491,114.26 -192.491,120.26 -186.491,120.26"/>
<text text-anchor="middle" x="-99.5254" y="47.4604" font-family="Times,serif" font-size="14.00">ApplicationController</text>
<polyline fill="none" stroke="black" points="-198.491,54.2604 -0.559609,54.2604 "/>
<text text-anchor="start" x="-190.491" y="69.4604" font-family="Times,serif" font-size="14.00">about</text>
<polyline fill="none" stroke="black" points="-198.491,76.2604 -0.559609,76.2604 "/>
<text text-anchor="start" x="-190.491" y="91.4604" font-family="Times,serif" font-size="14.00">configure_permitted_parameters</text>
<polyline fill="none" stroke="black" points="-198.491,98.2604 -0.559609,98.2604 "/>
<text text-anchor="start" x="-190.491" y="113.46" font-family="Times,serif" font-size="14.00">_layout</text>
</g>
<!-- ProjectsController -->
<g id="node3" class="node"><title>ProjectsController</title>
<path fill="none" stroke="black" d="M79.0339,10.0022C79.0339,10.0022 173.682,10.0022 173.682,10.0022 179.682,10.0022 185.682,4.00223 185.682,-1.99777 185.682,-1.99777 185.682,-151.998 185.682,-151.998 185.682,-157.998 179.682,-163.998 173.682,-163.998 173.682,-163.998 79.0339,-163.998 79.0339,-163.998 73.0339,-163.998 67.0339,-157.998 67.0339,-151.998 67.0339,-151.998 67.0339,-1.99777 67.0339,-1.99777 67.0339,4.00223 73.0339,10.0022 79.0339,10.0022"/>
<text text-anchor="middle" x="126.358" y="-148.798" font-family="Times,serif" font-size="14.00">ProjectsController</text>
<polyline fill="none" stroke="black" points="67.0339,-141.998 185.682,-141.998 "/>
<text text-anchor="start" x="75.0339" y="-126.798" font-family="Times,serif" font-size="14.00">create</text>
<text text-anchor="start" x="75.0339" y="-112.798" font-family="Times,serif" font-size="14.00">edit</text>
<text text-anchor="start" x="75.0339" y="-98.7978" font-family="Times,serif" font-size="14.00">index</text>
<text text-anchor="start" x="75.0339" y="-84.7978" font-family="Times,serif" font-size="14.00">new</text>
<text text-anchor="start" x="75.0339" y="-70.7978" font-family="Times,serif" font-size="14.00">show</text>
<polyline fill="none" stroke="black" points="67.0339,-63.9978 185.682,-63.9978 "/>
<polyline fill="none" stroke="black" points="67.0339,-39.9978 185.682,-39.9978 "/>
<text text-anchor="start" x="75.0339" y="-24.7978" font-family="Times,serif" font-size="14.00">_layout</text>
<text text-anchor="start" x="75.0339" y="-10.7978" font-family="Times,serif" font-size="14.00">project_params</text>
<text text-anchor="start" x="75.0339" y="3.20223" font-family="Times,serif" font-size="14.00">set_project</text>
</g>
<!-- ApplicationController&#45;&gt;ProjectsController -->
<g id="edge1" class="edge"><title>ApplicationController&#45;&gt;ProjectsController</title>
<path fill="none" stroke="black" d="M-34.4936,32.1374C-2.56202,10.4724 35.6414,-15.448 66.8027,-36.5904"/>
</g>
<!-- UserProjectsController -->
<g id="node4" class="node"><title>UserProjectsController</title>
<path fill="none" stroke="black" d="M23.8284,197.326C23.8284,197.326 144.911,197.326 144.911,197.326 150.911,197.326 156.911,191.326 156.911,185.326 156.911,185.326 156.911,77.3264 156.911,77.3264 156.911,71.3264 150.911,65.3264 144.911,65.3264 144.911,65.3264 23.8284,65.3264 23.8284,65.3264 17.8284,65.3264 11.8284,71.3264 11.8284,77.3264 11.8284,77.3264 11.8284,185.326 11.8284,185.326 11.8284,191.326 17.8284,197.326 23.8284,197.326"/>
<text text-anchor="middle" x="84.3699" y="80.5264" font-family="Times,serif" font-size="14.00">UserProjectsController</text>
<polyline fill="none" stroke="black" points="11.8284,87.3264 156.911,87.3264 "/>
<text text-anchor="start" x="19.8284" y="102.526" font-family="Times,serif" font-size="14.00">apply_for_project</text>
<text text-anchor="start" x="19.8284" y="116.526" font-family="Times,serif" font-size="14.00">approve_collaboration</text>
<text text-anchor="start" x="19.8284" y="130.526" font-family="Times,serif" font-size="14.00">deny_collaboration</text>
<text text-anchor="start" x="19.8284" y="144.526" font-family="Times,serif" font-size="14.00">invite</text>
<polyline fill="none" stroke="black" points="11.8284,151.326 156.911,151.326 "/>
<polyline fill="none" stroke="black" points="11.8284,175.326 156.911,175.326 "/>
<text text-anchor="start" x="19.8284" y="190.526" font-family="Times,serif" font-size="14.00">_layout</text>
</g>
<!-- ApplicationController&#45;&gt;UserProjectsController -->
<g id="edge2" class="edge"><title>ApplicationController&#45;&gt;UserProjectsController</title>
<path fill="none" stroke="black" d="M-0.311315,105.969C3.76009,107.188 7.81237,108.402 11.8133,109.6"/>
</g>
<!-- UsersController -->
<g id="node5" class="node"><title>UsersController</title>
<path fill="none" stroke="black" d="M-103.825,-68.9339C-103.825,-68.9339 -22.3968,-68.9339 -22.3968,-68.9339 -16.3968,-68.9339 -10.3968,-74.9339 -10.3968,-80.9339 -10.3968,-80.9339 -10.3968,-174.934 -10.3968,-174.934 -10.3968,-180.934 -16.3968,-186.934 -22.3968,-186.934 -22.3968,-186.934 -103.825,-186.934 -103.825,-186.934 -109.825,-186.934 -115.825,-180.934 -115.825,-174.934 -115.825,-174.934 -115.825,-80.9339 -115.825,-80.9339 -115.825,-74.9339 -109.825,-68.9339 -103.825,-68.9339"/>
<text text-anchor="middle" x="-63.1106" y="-171.734" font-family="Times,serif" font-size="14.00">UsersController</text>
<polyline fill="none" stroke="black" points="-115.825,-164.934 -10.3968,-164.934 "/>
<text text-anchor="start" x="-107.825" y="-149.734" font-family="Times,serif" font-size="14.00">show</text>
<polyline fill="none" stroke="black" points="-115.825,-142.934 -10.3968,-142.934 "/>
<polyline fill="none" stroke="black" points="-115.825,-118.934 -10.3968,-118.934 "/>
<text text-anchor="start" x="-107.825" y="-103.734" font-family="Times,serif" font-size="14.00">_layout</text>
<text text-anchor="start" x="-107.825" y="-89.7339" font-family="Times,serif" font-size="14.00">set_user</text>
<text text-anchor="start" x="-107.825" y="-75.7339" font-family="Times,serif" font-size="14.00">user_params</text>
</g>
<!-- ApplicationController&#45;&gt;UsersController -->
<g id="edge3" class="edge"><title>ApplicationController&#45;&gt;UsersController</title>
<path fill="none" stroke="black" d="M-91.6688,32.2047C-86.4,2.65989 -79.3995,-36.5951 -73.6483,-68.8446"/>
</g>
</g>
</svg>
