<?xml version="1.0" encoding="UTF-8" standalone="no"?>
<!DOCTYPE svg PUBLIC "-//W3C//DTD SVG 1.1//EN"
 "http://www.w3.org/Graphics/SVG/1.1/DTD/svg11.dtd">
<!-- Generated by graphviz version 2.38.0 (20140413.2041)
 -->
<!-- Title: controllers_diagram Pages: 1 -->
<svg width="671pt" height="475pt"
 viewBox="0.00 0.00 671.16 475.17" xmlns="http://www.w3.org/2000/svg" xmlns:xlink="http://www.w3.org/1999/xlink">
<g id="graph0" class="graph" transform="scale(1 1) rotate(0) translate(214.476 226.671)">
<title>controllers_diagram</title>
<polygon fill="white" stroke="none" points="-214.476,248.5 -214.476,-226.671 456.688,-226.671 456.688,248.5 -214.476,248.5"/>
<!-- _diagram_info -->
<g id="node1" class="node"><title>_diagram_info</title>
<text text-anchor="start" x="253.312" y="185.9" font-family="Times,serif" font-size="13.00">Controllers diagram</text>
<text text-anchor="start" x="253.312" y="198.9" font-family="Times,serif" font-size="13.00">Date: Aug 08 2014 &#45; 11:02</text>
<text text-anchor="start" x="253.312" y="211.9" font-family="Times,serif" font-size="13.00">Migration version: 20140807212824</text>
<text text-anchor="start" x="253.312" y="224.9" font-family="Times,serif" font-size="13.00">Generated by RailRoady 1.1.1</text>
<text text-anchor="start" x="253.312" y="237.9" font-family="Times,serif" font-size="13.00">http://railroady.prestonlee.com</text>
</g>
<!-- ApplicationController -->
<g id="node2" class="node"><title>ApplicationController</title>
<path fill="none" stroke="black" d="M-89.354,25.2359C-89.354,25.2359 84.5777,25.2359 84.5777,25.2359 90.5777,25.2359 96.5777,19.2359 96.5777,13.2359 96.5777,13.2359 96.5777,-50.7641 96.5777,-50.7641 96.5777,-56.7641 90.5777,-62.7641 84.5777,-62.7641 84.5777,-62.7641 -89.354,-62.7641 -89.354,-62.7641 -95.354,-62.7641 -101.354,-56.7641 -101.354,-50.7641 -101.354,-50.7641 -101.354,13.2359 -101.354,13.2359 -101.354,19.2359 -95.354,25.2359 -89.354,25.2359"/>
<text text-anchor="middle" x="-2.38813" y="-47.5641" font-family="Times,serif" font-size="14.00">ApplicationController</text>
<polyline fill="none" stroke="black" points="-101.354,-40.7641 96.5777,-40.7641 "/>
<text text-anchor="start" x="-93.354" y="-25.5641" font-family="Times,serif" font-size="14.00">about</text>
<polyline fill="none" stroke="black" points="-101.354,-18.7641 96.5777,-18.7641 "/>
<text text-anchor="start" x="-93.354" y="-3.56413" font-family="Times,serif" font-size="14.00">configure_permitted_parameters</text>
<polyline fill="none" stroke="black" points="-101.354,3.23587 96.5777,3.23587 "/>
<text text-anchor="start" x="-93.354" y="18.4359" font-family="Times,serif" font-size="14.00">_layout</text>
</g>
<!-- MessagesController -->
<g id="node3" class="node"><title>MessagesController</title>
<path fill="none" stroke="black" d="M78.5493,174.451C78.5493,174.451 182.529,174.451 182.529,174.451 188.529,174.451 194.529,168.451 194.529,162.451 194.529,162.451 194.529,82.451 194.529,82.451 194.529,76.451 188.529,70.451 182.529,70.451 182.529,70.451 78.5493,70.451 78.5493,70.451 72.5493,70.451 66.5493,76.451 66.5493,82.451 66.5493,82.451 66.5493,162.451 66.5493,162.451 66.5493,168.451 72.5493,174.451 78.5493,174.451"/>
<text text-anchor="middle" x="130.539" y="85.651" font-family="Times,serif" font-size="14.00">MessagesController</text>
<polyline fill="none" stroke="black" points="66.5493,92.451 194.529,92.451 "/>
<text text-anchor="start" x="74.5493" y="107.651" font-family="Times,serif" font-size="14.00">create</text>
<polyline fill="none" stroke="black" points="66.5493,114.451 194.529,114.451 "/>
<polyline fill="none" stroke="black" points="66.5493,138.451 194.529,138.451 "/>
<text text-anchor="start" x="74.5493" y="153.651" font-family="Times,serif" font-size="14.00">_layout</text>
<text text-anchor="start" x="74.5493" y="167.651" font-family="Times,serif" font-size="14.00">message_params</text>
</g>
<!-- ApplicationController&#45;&gt;MessagesController -->
<g id="edge1" class="edge"><title>ApplicationController&#45;&gt;MessagesController</title>
<path fill="none" stroke="black" d="M39.3062,25.5298C52.7066,39.7658 67.6747,55.6671 81.5493,70.4067"/>
</g>
<!-- ProjectsController -->
<g id="node4" class="node"><title>ProjectsController</title>
<path fill="none" stroke="black" d="M-183.829,209.886C-183.829,209.886 -89.1801,209.886 -89.1801,209.886 -83.1801,209.886 -77.1801,203.886 -77.1801,197.886 -77.1801,197.886 -77.1801,47.886 -77.1801,47.886 -77.1801,41.886 -83.1801,35.886 -89.1801,35.886 -89.1801,35.886 -183.829,35.886 -183.829,35.886 -189.829,35.886 -195.829,41.886 -195.829,47.886 -195.829,47.886 -195.829,197.886 -195.829,197.886 -195.829,203.886 -189.829,209.886 -183.829,209.886"/>
<text text-anchor="middle" x="-136.504" y="51.086" font-family="Times,serif" font-size="14.00">ProjectsController</text>
<polyline fill="none" stroke="black" points="-195.829,57.886 -77.1801,57.886 "/>
<text text-anchor="start" x="-187.829" y="73.086" font-family="Times,serif" font-size="14.00">create</text>
<text text-anchor="start" x="-187.829" y="87.086" font-family="Times,serif" font-size="14.00">edit</text>
<text text-anchor="start" x="-187.829" y="101.086" font-family="Times,serif" font-size="14.00">index</text>
<text text-anchor="start" x="-187.829" y="115.086" font-family="Times,serif" font-size="14.00">new</text>
<text text-anchor="start" x="-187.829" y="129.086" font-family="Times,serif" font-size="14.00">show</text>
<polyline fill="none" stroke="black" points="-195.829,135.886 -77.1801,135.886 "/>
<polyline fill="none" stroke="black" points="-195.829,159.886 -77.1801,159.886 "/>
<text text-anchor="start" x="-187.829" y="175.086" font-family="Times,serif" font-size="14.00">_layout</text>
<text text-anchor="start" x="-187.829" y="189.086" font-family="Times,serif" font-size="14.00">project_params</text>
<text text-anchor="start" x="-187.829" y="203.086" font-family="Times,serif" font-size="14.00">set_project</text>
</g>
<!-- ApplicationController&#45;&gt;ProjectsController -->
<g id="edge2" class="edge"><title>ApplicationController&#45;&gt;ProjectsController</title>
<path fill="none" stroke="black" d="M-44.0882,25.2784C-54.5459,36.3235 -65.9685,48.3878 -77.1055,60.1505"/>
</g>
<!-- UserProjectsController -->
<g id="node5" class="node"><title>UserProjectsController</title>
<path fill="none" stroke="black" d="M-198.476,-90.1715C-198.476,-90.1715 -77.3933,-90.1715 -77.3933,-90.1715 -71.3933,-90.1715 -65.3933,-96.1715 -65.3933,-102.171 -65.3933,-102.171 -65.3933,-210.171 -65.3933,-210.171 -65.3933,-216.171 -71.3933,-222.171 -77.3933,-222.171 -77.3933,-222.171 -198.476,-222.171 -198.476,-222.171 -204.476,-222.171 -210.476,-216.171 -210.476,-210.171 -210.476,-210.171 -210.476,-102.171 -210.476,-102.171 -210.476,-96.1715 -204.476,-90.1715 -198.476,-90.1715"/>
<text text-anchor="middle" x="-137.935" y="-206.971" font-family="Times,serif" font-size="14.00">UserProjectsController</text>
<polyline fill="none" stroke="black" points="-210.476,-200.171 -65.3933,-200.171 "/>
<text text-anchor="start" x="-202.476" y="-184.971" font-family="Times,serif" font-size="14.00">apply_for_project</text>
<text text-anchor="start" x="-202.476" y="-170.971" font-family="Times,serif" font-size="14.00">approve_collaboration</text>
<text text-anchor="start" x="-202.476" y="-156.971" font-family="Times,serif" font-size="14.00">deny_collaboration</text>
<text text-anchor="start" x="-202.476" y="-142.971" font-family="Times,serif" font-size="14.00">invite</text>
<polyline fill="none" stroke="black" points="-210.476,-136.171 -65.3933,-136.171 "/>
<polyline fill="none" stroke="black" points="-210.476,-112.171 -65.3933,-112.171 "/>
<text text-anchor="start" x="-202.476" y="-96.9715" font-family="Times,serif" font-size="14.00">_layout</text>
</g>
<!-- ApplicationController&#45;&gt;UserProjectsController -->
<g id="edge3" class="edge"><title>ApplicationController&#45;&gt;UserProjectsController</title>
<path fill="none" stroke="black" d="M-46.0221,-62.997C-54.5352,-71.627 -63.6328,-80.8495 -72.6708,-90.0116"/>
</g>
<!-- UsersController -->
<g id="node6" class="node"><title>UsersController</title>
<path fill="none" stroke="black" d="M89.6438,-98.3815C89.6438,-98.3815 171.072,-98.3815 171.072,-98.3815 177.072,-98.3815 183.072,-104.381 183.072,-110.381 183.072,-110.381 183.072,-204.381 183.072,-204.381 183.072,-210.381 177.072,-216.381 171.072,-216.381 171.072,-216.381 89.6438,-216.381 89.6438,-216.381 83.6438,-216.381 77.6438,-210.381 77.6438,-204.381 77.6438,-204.381 77.6438,-110.381 77.6438,-110.381 77.6438,-104.381 83.6438,-98.3815 89.6438,-98.3815"/>
<text text-anchor="middle" x="130.358" y="-201.181" font-family="Times,serif" font-size="14.00">UsersController</text>
<polyline fill="none" stroke="black" points="77.6438,-194.381 183.072,-194.381 "/>
<text text-anchor="start" x="85.6438" y="-179.181" font-family="Times,serif" font-size="14.00">show</text>
<polyline fill="none" stroke="black" points="77.6438,-172.381 183.072,-172.381 "/>
<polyline fill="none" stroke="black" points="77.6438,-148.381 183.072,-148.381 "/>
<text text-anchor="start" x="85.6438" y="-133.181" font-family="Times,serif" font-size="14.00">_layout</text>
<text text-anchor="start" x="85.6438" y="-119.181" font-family="Times,serif" font-size="14.00">set_user</text>
<text text-anchor="start" x="85.6438" y="-105.181" font-family="Times,serif" font-size="14.00">user_params</text>
</g>
<!-- ApplicationController&#45;&gt;UsersController -->
<g id="edge4" class="edge"><title>ApplicationController&#45;&gt;UsersController</title>
<path fill="none" stroke="black" d="M39.9784,-63.0046C51.8152,-75.365 64.8293,-88.9547 77.2043,-101.877"/>
</g>
</g>
</svg>
