<?xml version="1.0" encoding="UTF-8" standalone="no"?>
<!DOCTYPE svg PUBLIC "-//W3C//DTD SVG 1.1//EN"
 "http://www.w3.org/Graphics/SVG/1.1/DTD/svg11.dtd">
<!-- Generated by graphviz version 2.38.0 (20140413.2041)
 -->
<!-- Title: models_diagram Pages: 1 -->
<svg width="819pt" height="948pt"
 viewBox="0.00 0.00 819.28 948.00" xmlns="http://www.w3.org/2000/svg" xmlns:xlink="http://www.w3.org/1999/xlink">
<g id="graph0" class="graph" transform="scale(1 1) rotate(0) translate(4 944)">
<title>models_diagram</title>
<polygon fill="white" stroke="none" points="-4,4 -4,-944 815.28,-944 815.28,4 -4,4"/>
<!-- _diagram_info -->
<g id="node1" class="node"><title>_diagram_info</title>
<text text-anchor="start" x="58.297" y="-925.6" font-family="Times,serif" font-size="13.00">Models diagram</text>
<text text-anchor="start" x="58.297" y="-912.6" font-family="Times,serif" font-size="13.00">Date: Aug 08 2014 &#45; 20:14</text>
<text text-anchor="start" x="58.297" y="-899.6" font-family="Times,serif" font-size="13.00">Migration version: 20140809000201</text>
<text text-anchor="start" x="58.297" y="-886.6" font-family="Times,serif" font-size="13.00">Generated by RailRoady 1.1.1</text>
<text text-anchor="start" x="58.297" y="-873.6" font-family="Times,serif" font-size="13.00">http://railroady.prestonlee.com</text>
</g>
<!-- Category -->
<g id="node2" class="node"><title>Category</title>
<path fill="none" stroke="black" d="M92.4794,-723.5C92.4794,-723.5 201.49,-723.5 201.49,-723.5 207.49,-723.5 213.49,-729.5 213.49,-735.5 213.49,-735.5 213.49,-797.5 213.49,-797.5 213.49,-803.5 207.49,-809.5 201.49,-809.5 201.49,-809.5 92.4794,-809.5 92.4794,-809.5 86.4794,-809.5 80.4794,-803.5 80.4794,-797.5 80.4794,-797.5 80.4794,-735.5 80.4794,-735.5 80.4794,-729.5 86.4794,-723.5 92.4794,-723.5"/>
<text text-anchor="middle" x="146.985" y="-794.3" font-family="Times,serif" font-size="14.00">Category</text>
<polyline fill="none" stroke="black" points="80.4794,-787.5 213.49,-787.5 "/>
<text text-anchor="start" x="88.4794" y="-772.3" font-family="Times,serif" font-size="14.00">id :integer</text>
<text text-anchor="start" x="88.4794" y="-758.3" font-family="Times,serif" font-size="14.00">name :string</text>
<text text-anchor="start" x="88.4794" y="-744.3" font-family="Times,serif" font-size="14.00">created_at :datetime</text>
<text text-anchor="start" x="88.4794" y="-730.3" font-family="Times,serif" font-size="14.00">updated_at :datetime</text>
</g>
<!-- Skill -->
<g id="node7" class="node"><title>Skill</title>
<path fill="none" stroke="black" d="M83.4794,-565.5C83.4794,-565.5 192.49,-565.5 192.49,-565.5 198.49,-565.5 204.49,-571.5 204.49,-577.5 204.49,-577.5 204.49,-653.5 204.49,-653.5 204.49,-659.5 198.49,-665.5 192.49,-665.5 192.49,-665.5 83.4794,-665.5 83.4794,-665.5 77.4794,-665.5 71.4794,-659.5 71.4794,-653.5 71.4794,-653.5 71.4794,-577.5 71.4794,-577.5 71.4794,-571.5 77.4794,-565.5 83.4794,-565.5"/>
<text text-anchor="middle" x="137.985" y="-650.3" font-family="Times,serif" font-size="14.00">Skill</text>
<polyline fill="none" stroke="black" points="71.4794,-643.5 204.49,-643.5 "/>
<text text-anchor="start" x="79.4794" y="-628.3" font-family="Times,serif" font-size="14.00">id :integer</text>
<text text-anchor="start" x="79.4794" y="-614.3" font-family="Times,serif" font-size="14.00">name :string</text>
<text text-anchor="start" x="79.4794" y="-600.3" font-family="Times,serif" font-size="14.00">created_at :datetime</text>
<text text-anchor="start" x="79.4794" y="-586.3" font-family="Times,serif" font-size="14.00">updated_at :datetime</text>
<text text-anchor="start" x="79.4794" y="-572.3" font-family="Times,serif" font-size="14.00">category_id :integer</text>
</g>
<!-- Category&#45;&gt;Skill -->
<g id="edge1" class="edge"><title>Category&#45;&gt;Skill</title>
<path fill="none" stroke="#a47cd6" d="M143.937,-715.047C143.179,-702.49 142.359,-688.913 141.577,-675.968"/>
<ellipse fill="none" stroke="#a47cd6" cx="144.189" cy="-719.208" rx="4" ry="4"/>
<polygon fill="#a47cd6" stroke="#a47cd6" points="141.563,-675.735 145.452,-665.481 141.261,-670.744 140.96,-665.753 140.96,-665.753 140.96,-665.753 141.261,-670.744 136.468,-666.024 141.563,-675.735 141.563,-675.735"/>
</g>
<!-- Message -->
<g id="node3" class="node"><title>Message</title>
<path fill="none" stroke="black" d="M292.479,-151.5C292.479,-151.5 401.49,-151.5 401.49,-151.5 407.49,-151.5 413.49,-157.5 413.49,-163.5 413.49,-163.5 413.49,-253.5 413.49,-253.5 413.49,-259.5 407.49,-265.5 401.49,-265.5 401.49,-265.5 292.479,-265.5 292.479,-265.5 286.479,-265.5 280.479,-259.5 280.479,-253.5 280.479,-253.5 280.479,-163.5 280.479,-163.5 280.479,-157.5 286.479,-151.5 292.479,-151.5"/>
<text text-anchor="middle" x="346.985" y="-250.3" font-family="Times,serif" font-size="14.00">Message</text>
<polyline fill="none" stroke="black" points="280.479,-243.5 413.49,-243.5 "/>
<text text-anchor="start" x="288.479" y="-228.3" font-family="Times,serif" font-size="14.00">id :integer</text>
<text text-anchor="start" x="288.479" y="-214.3" font-family="Times,serif" font-size="14.00">user_id :integer</text>
<text text-anchor="start" x="288.479" y="-200.3" font-family="Times,serif" font-size="14.00">project_id :integer</text>
<text text-anchor="start" x="288.479" y="-186.3" font-family="Times,serif" font-size="14.00">text :string</text>
<text text-anchor="start" x="288.479" y="-172.3" font-family="Times,serif" font-size="14.00">created_at :datetime</text>
<text text-anchor="start" x="288.479" y="-158.3" font-family="Times,serif" font-size="14.00">updated_at :datetime</text>
</g>
<!-- Notification -->
<g id="node4" class="node"><title>Notification</title>
<path fill="none" stroke="black" d="M594.479,-151.5C594.479,-151.5 703.49,-151.5 703.49,-151.5 709.49,-151.5 715.49,-157.5 715.49,-163.5 715.49,-163.5 715.49,-253.5 715.49,-253.5 715.49,-259.5 709.49,-265.5 703.49,-265.5 703.49,-265.5 594.479,-265.5 594.479,-265.5 588.479,-265.5 582.479,-259.5 582.479,-253.5 582.479,-253.5 582.479,-163.5 582.479,-163.5 582.479,-157.5 588.479,-151.5 594.479,-151.5"/>
<text text-anchor="middle" x="648.985" y="-250.3" font-family="Times,serif" font-size="14.00">Notification</text>
<polyline fill="none" stroke="black" points="582.479,-243.5 715.49,-243.5 "/>
<text text-anchor="start" x="590.479" y="-228.3" font-family="Times,serif" font-size="14.00">id :integer</text>
<text text-anchor="start" x="590.479" y="-214.3" font-family="Times,serif" font-size="14.00">user_id :integer</text>
<text text-anchor="start" x="590.479" y="-200.3" font-family="Times,serif" font-size="14.00">content :string</text>
<text text-anchor="start" x="590.479" y="-186.3" font-family="Times,serif" font-size="14.00">created_at :datetime</text>
<text text-anchor="start" x="590.479" y="-172.3" font-family="Times,serif" font-size="14.00">updated_at :datetime</text>
<text text-anchor="start" x="590.479" y="-158.3" font-family="Times,serif" font-size="14.00">project_id :integer</text>
</g>
<!-- Project -->
<g id="node5" class="node"><title>Project</title>
<path fill="none" stroke="black" d="M349.479,-702.5C349.479,-702.5 458.49,-702.5 458.49,-702.5 464.49,-702.5 470.49,-708.5 470.49,-714.5 470.49,-714.5 470.49,-818.5 470.49,-818.5 470.49,-824.5 464.49,-830.5 458.49,-830.5 458.49,-830.5 349.479,-830.5 349.479,-830.5 343.479,-830.5 337.479,-824.5 337.479,-818.5 337.479,-818.5 337.479,-714.5 337.479,-714.5 337.479,-708.5 343.479,-702.5 349.479,-702.5"/>
<text text-anchor="middle" x="403.985" y="-815.3" font-family="Times,serif" font-size="14.00">Project</text>
<polyline fill="none" stroke="black" points="337.479,-808.5 470.49,-808.5 "/>
<text text-anchor="start" x="345.479" y="-793.3" font-family="Times,serif" font-size="14.00">id :integer</text>
<text text-anchor="start" x="345.479" y="-779.3" font-family="Times,serif" font-size="14.00">title :string</text>
<text text-anchor="start" x="345.479" y="-765.3" font-family="Times,serif" font-size="14.00">description :string</text>
<text text-anchor="start" x="345.479" y="-751.3" font-family="Times,serif" font-size="14.00">status :string</text>
<text text-anchor="start" x="345.479" y="-737.3" font-family="Times,serif" font-size="14.00">created_at :datetime</text>
<text text-anchor="start" x="345.479" y="-723.3" font-family="Times,serif" font-size="14.00">updated_at :datetime</text>
<text text-anchor="start" x="345.479" y="-709.3" font-family="Times,serif" font-size="14.00">admin_id :integer</text>
</g>
<!-- Project&#45;&gt;Message -->
<g id="edge7" class="edge"><title>Project&#45;&gt;Message</title>
<path fill="none" stroke="#0cd22a" d="M390.681,-694.529C382.371,-647.689 372.12,-584.88 365.985,-529 356.4,-441.704 351.408,-340.421 348.991,-275.694"/>
<ellipse fill="none" stroke="#0cd22a" cx="391.4" cy="-698.555" rx="4.00001" ry="4.00001"/>
<polygon fill="#0cd22a" stroke="#0cd22a" points="348.989,-275.62 353.122,-265.463 348.807,-270.623 348.625,-265.627 348.625,-265.627 348.625,-265.627 348.807,-270.623 344.128,-265.79 348.989,-275.62 348.989,-275.62"/>
</g>
<!-- ProjectSkill -->
<g id="node6" class="node"><title>ProjectSkill</title>
<path fill="none" stroke="black" d="M46.4794,-365.5C46.4794,-365.5 155.49,-365.5 155.49,-365.5 161.49,-365.5 167.49,-371.5 167.49,-377.5 167.49,-377.5 167.49,-453.5 167.49,-453.5 167.49,-459.5 161.49,-465.5 155.49,-465.5 155.49,-465.5 46.4794,-465.5 46.4794,-465.5 40.4794,-465.5 34.4794,-459.5 34.4794,-453.5 34.4794,-453.5 34.4794,-377.5 34.4794,-377.5 34.4794,-371.5 40.4794,-365.5 46.4794,-365.5"/>
<text text-anchor="middle" x="100.985" y="-450.3" font-family="Times,serif" font-size="14.00">ProjectSkill</text>
<polyline fill="none" stroke="black" points="34.4794,-443.5 167.49,-443.5 "/>
<text text-anchor="start" x="42.4794" y="-428.3" font-family="Times,serif" font-size="14.00">id :integer</text>
<text text-anchor="start" x="42.4794" y="-414.3" font-family="Times,serif" font-size="14.00">project_id :integer</text>
<text text-anchor="start" x="42.4794" y="-400.3" font-family="Times,serif" font-size="14.00">skill_id :integer</text>
<text text-anchor="start" x="42.4794" y="-386.3" font-family="Times,serif" font-size="14.00">created_at :datetime</text>
<text text-anchor="start" x="42.4794" y="-372.3" font-family="Times,serif" font-size="14.00">updated_at :datetime</text>
</g>
<!-- Project&#45;&gt;ProjectSkill -->
<g id="edge8" class="edge"><title>Project&#45;&gt;ProjectSkill</title>
<path fill="none" stroke="#eb98d3" d="M330.365,-727.306C304.559,-711.128 277.042,-690.345 256.985,-666 225.962,-628.346 238.5,-607.181 213.985,-565 195.47,-533.144 171.102,-500.282 149.737,-473.597"/>
<ellipse fill="none" stroke="#eb98d3" cx="333.828" cy="-729.436" rx="4.00002" ry="4.00002"/>
<polygon fill="#eb98d3" stroke="#eb98d3" points="149.497,-473.3 146.713,-462.693 146.355,-469.41 143.213,-465.521 143.213,-465.521 143.213,-465.521 146.355,-469.41 139.712,-468.349 149.497,-473.3 149.497,-473.3"/>
</g>
<!-- Project&#45;&gt;Skill -->
<g id="edge9" class="edge"><title>Project&#45;&gt;Skill</title>
<path fill="none" stroke="#0ee9c5" d="M328.264,-725.984C294.57,-708.091 254.553,-686.413 218.985,-666 217.216,-664.985 215.429,-663.952 213.629,-662.906"/>
<polygon fill="#0ee9c5" stroke="#0ee9c5" points="328.302,-726.004 335.03,-734.663 332.72,-728.346 337.138,-730.687 337.138,-730.687 337.138,-730.687 332.72,-728.346 339.245,-726.711 328.302,-726.004 328.302,-726.004"/>
<polygon fill="#0ee9c5" stroke="#0ee9c5" points="213.181,-662.643 206.833,-653.701 208.868,-660.113 204.556,-657.582 204.556,-657.582 204.556,-657.582 208.868,-660.113 202.279,-661.463 213.181,-662.643 213.181,-662.643"/>
</g>
<!-- User -->
<g id="node8" class="node"><title>User</title>
<path fill="none" stroke="black" d="M386.707,-302.5C386.707,-302.5 567.263,-302.5 567.263,-302.5 573.263,-302.5 579.263,-308.5 579.263,-314.5 579.263,-314.5 579.263,-516.5 579.263,-516.5 579.263,-522.5 573.263,-528.5 567.263,-528.5 567.263,-528.5 386.707,-528.5 386.707,-528.5 380.707,-528.5 374.707,-522.5 374.707,-516.5 374.707,-516.5 374.707,-314.5 374.707,-314.5 374.707,-308.5 380.707,-302.5 386.707,-302.5"/>
<text text-anchor="middle" x="476.985" y="-513.3" font-family="Times,serif" font-size="14.00">User</text>
<polyline fill="none" stroke="black" points="374.707,-506.5 579.263,-506.5 "/>
<text text-anchor="start" x="382.707" y="-491.3" font-family="Times,serif" font-size="14.00">id :integer</text>
<text text-anchor="start" x="382.707" y="-477.3" font-family="Times,serif" font-size="14.00">email :string</text>
<text text-anchor="start" x="382.707" y="-463.3" font-family="Times,serif" font-size="14.00">encrypted_password :string</text>
<text text-anchor="start" x="382.707" y="-449.3" font-family="Times,serif" font-size="14.00">reset_password_token :string</text>
<text text-anchor="start" x="382.707" y="-435.3" font-family="Times,serif" font-size="14.00">reset_password_sent_at :datetime</text>
<text text-anchor="start" x="382.707" y="-421.3" font-family="Times,serif" font-size="14.00">remember_created_at :datetime</text>
<text text-anchor="start" x="382.707" y="-407.3" font-family="Times,serif" font-size="14.00">sign_in_count :integer</text>
<text text-anchor="start" x="382.707" y="-393.3" font-family="Times,serif" font-size="14.00">current_sign_in_at :datetime</text>
<text text-anchor="start" x="382.707" y="-379.3" font-family="Times,serif" font-size="14.00">last_sign_in_at :datetime</text>
<text text-anchor="start" x="382.707" y="-365.3" font-family="Times,serif" font-size="14.00">current_sign_in_ip :string</text>
<text text-anchor="start" x="382.707" y="-351.3" font-family="Times,serif" font-size="14.00">last_sign_in_ip :string</text>
<text text-anchor="start" x="382.707" y="-337.3" font-family="Times,serif" font-size="14.00">created_at :datetime</text>
<text text-anchor="start" x="382.707" y="-323.3" font-family="Times,serif" font-size="14.00">updated_at :datetime</text>
<text text-anchor="start" x="382.707" y="-309.3" font-family="Times,serif" font-size="14.00">name :string</text>
</g>
<!-- Project&#45;&gt;User -->
<g id="edge6" class="edge"><title>Project&#45;&gt;User</title>
<path fill="none" stroke="#b20602" d="M419.27,-692.422C428.587,-647.88 440.729,-589.834 451.47,-538.48"/>
<polygon fill="#b20602" stroke="#b20602" points="419.252,-692.511 412.8,-701.377 418.228,-697.405 417.204,-702.299 417.204,-702.299 417.204,-702.299 418.228,-697.405 421.609,-703.22 419.252,-692.511 419.252,-692.511"/>
<polygon fill="#b20602" stroke="#b20602" points="451.481,-538.428 457.933,-529.561 452.505,-533.534 453.528,-528.64 453.528,-528.64 453.528,-528.64 452.505,-533.534 449.124,-527.719 451.481,-538.428 451.481,-538.428"/>
</g>
<!-- UserProject -->
<g id="node9" class="node"><title>UserProject</title>
<path fill="none" stroke="black" d="M443.479,-151.5C443.479,-151.5 552.49,-151.5 552.49,-151.5 558.49,-151.5 564.49,-157.5 564.49,-163.5 564.49,-163.5 564.49,-253.5 564.49,-253.5 564.49,-259.5 558.49,-265.5 552.49,-265.5 552.49,-265.5 443.479,-265.5 443.479,-265.5 437.479,-265.5 431.479,-259.5 431.479,-253.5 431.479,-253.5 431.479,-163.5 431.479,-163.5 431.479,-157.5 437.479,-151.5 443.479,-151.5"/>
<text text-anchor="middle" x="497.985" y="-250.3" font-family="Times,serif" font-size="14.00">UserProject</text>
<polyline fill="none" stroke="black" points="431.479,-243.5 564.49,-243.5 "/>
<text text-anchor="start" x="439.479" y="-228.3" font-family="Times,serif" font-size="14.00">id :integer</text>
<text text-anchor="start" x="439.479" y="-214.3" font-family="Times,serif" font-size="14.00">user_id :integer</text>
<text text-anchor="start" x="439.479" y="-200.3" font-family="Times,serif" font-size="14.00">project_id :integer</text>
<text text-anchor="start" x="439.479" y="-186.3" font-family="Times,serif" font-size="14.00">approved :boolean</text>
<text text-anchor="start" x="439.479" y="-172.3" font-family="Times,serif" font-size="14.00">created_at :datetime</text>
<text text-anchor="start" x="439.479" y="-158.3" font-family="Times,serif" font-size="14.00">updated_at :datetime</text>
</g>
<!-- Project&#45;&gt;UserProject -->
<g id="edge5" class="edge"><title>Project&#45;&gt;UserProject</title>
<path fill="none" stroke="#b8aecc" d="M476.369,-698.101C517.769,-654.423 565.763,-593.75 587.985,-529 620.734,-433.574 625.954,-395.471 587.985,-302 583.778,-291.644 577.793,-281.812 570.883,-272.692"/>
<ellipse fill="none" stroke="#b8aecc" cx="473.602" cy="-700.991" rx="4.00002" ry="4.00002"/>
<polygon fill="#b8aecc" stroke="#b8aecc" points="570.858,-272.661 568.101,-262.047 567.726,-268.763 564.594,-264.866 564.594,-264.866 564.594,-264.866 567.726,-268.763 561.086,-267.685 570.858,-272.661 570.858,-272.661"/>
</g>
<!-- UserSkill -->
<g id="node10" class="node"><title>UserSkill</title>
<path fill="none" stroke="black" d="M141.479,-151.5C141.479,-151.5 250.49,-151.5 250.49,-151.5 256.49,-151.5 262.49,-157.5 262.49,-163.5 262.49,-163.5 262.49,-253.5 262.49,-253.5 262.49,-259.5 256.49,-265.5 250.49,-265.5 250.49,-265.5 141.479,-265.5 141.479,-265.5 135.479,-265.5 129.479,-259.5 129.479,-253.5 129.479,-253.5 129.479,-163.5 129.479,-163.5 129.479,-157.5 135.479,-151.5 141.479,-151.5"/>
<text text-anchor="middle" x="195.985" y="-250.3" font-family="Times,serif" font-size="14.00">UserSkill</text>
<polyline fill="none" stroke="black" points="129.479,-243.5 262.49,-243.5 "/>
<text text-anchor="start" x="137.479" y="-228.3" font-family="Times,serif" font-size="14.00">id :integer</text>
<text text-anchor="start" x="137.479" y="-214.3" font-family="Times,serif" font-size="14.00">user_id :integer</text>
<text text-anchor="start" x="137.479" y="-200.3" font-family="Times,serif" font-size="14.00">skill_id :integer</text>
<text text-anchor="start" x="137.479" y="-186.3" font-family="Times,serif" font-size="14.00">created_at :datetime</text>
<text text-anchor="start" x="137.479" y="-172.3" font-family="Times,serif" font-size="14.00">updated_at :datetime</text>
<text text-anchor="start" x="137.479" y="-158.3" font-family="Times,serif" font-size="14.00">score :integer</text>
</g>
<!-- Project&#45;&gt;UserSkill -->
<g id="edge11" class="edge"><title>Project&#45;&gt;UserSkill</title>
<path fill="none" stroke="#d54dc7" d="M376.748,-692.695C335.97,-583.692 259.668,-379.73 220.525,-275.097"/>
<polygon fill="#d54dc7" stroke="#d54dc7" points="376.823,-692.895 376.112,-703.838 378.575,-697.578 380.327,-702.261 380.327,-702.261 380.327,-702.261 378.575,-697.578 384.542,-700.684 376.823,-692.895 376.823,-692.895"/>
<polygon fill="#d54dc7" stroke="#d54dc7" points="220.473,-274.96 221.184,-264.017 218.721,-270.277 216.969,-265.594 216.969,-265.594 216.969,-265.594 218.721,-270.277 212.755,-267.17 220.473,-274.96 220.473,-274.96"/>
</g>
<!-- UserSkillProject -->
<g id="node11" class="node"><title>UserSkillProject</title>
<path fill="none" stroke="black" d="M688.69,-0.5C688.69,-0.5 799.28,-0.5 799.28,-0.5 805.28,-0.5 811.28,-6.5 811.28,-12.5 811.28,-12.5 811.28,-102.5 811.28,-102.5 811.28,-108.5 805.28,-114.5 799.28,-114.5 799.28,-114.5 688.69,-114.5 688.69,-114.5 682.69,-114.5 676.69,-108.5 676.69,-102.5 676.69,-102.5 676.69,-12.5 676.69,-12.5 676.69,-6.5 682.69,-0.5 688.69,-0.5"/>
<text text-anchor="middle" x="743.985" y="-99.3" font-family="Times,serif" font-size="14.00">UserSkillProject</text>
<polyline fill="none" stroke="black" points="676.69,-92.5 811.28,-92.5 "/>
<text text-anchor="start" x="684.69" y="-77.3" font-family="Times,serif" font-size="14.00">id :integer</text>
<text text-anchor="start" x="684.69" y="-63.3" font-family="Times,serif" font-size="14.00">user_skill_id :integer</text>
<text text-anchor="start" x="684.69" y="-49.3" font-family="Times,serif" font-size="14.00">project_id :integer</text>
<text text-anchor="start" x="684.69" y="-35.3" font-family="Times,serif" font-size="14.00">endorsed :boolean</text>
<text text-anchor="start" x="684.69" y="-21.3" font-family="Times,serif" font-size="14.00">created_at :datetime</text>
<text text-anchor="start" x="684.69" y="-7.3" font-family="Times,serif" font-size="14.00">updated_at :datetime</text>
</g>
<!-- Project&#45;&gt;UserSkillProject -->
<g id="edge10" class="edge"><title>Project&#45;&gt;UserSkillProject</title>
<path fill="none" stroke="#59aec4" d="M477.843,-728.04C504.456,-711.781 533.052,-690.751 553.985,-666 585,-629.327 703.75,-351.394 724.985,-266 736.493,-219.721 741.187,-166.08 743.033,-124.933"/>
<ellipse fill="none" stroke="#59aec4" cx="474.193" cy="-730.228" rx="4.00002" ry="4.00002"/>
<polygon fill="#59aec4" stroke="#59aec4" points="743.041,-124.744 747.94,-114.934 743.242,-119.748 743.444,-114.753 743.444,-114.753 743.444,-114.753 743.242,-119.748 738.948,-114.571 743.041,-124.744 743.041,-124.744"/>
</g>
<!-- Skill&#45;&gt;ProjectSkill -->
<g id="edge16" class="edge"><title>Skill&#45;&gt;ProjectSkill</title>
<path fill="none" stroke="#f34d81" d="M127.296,-557.301C122.519,-531.738 116.891,-501.622 112.069,-475.816"/>
<ellipse fill="none" stroke="#f34d81" cx="128.056" cy="-561.37" rx="4.00001" ry="4.00001"/>
<polygon fill="#f34d81" stroke="#f34d81" points="112.032,-475.618 114.619,-464.962 111.114,-470.703 110.195,-465.788 110.195,-465.788 110.195,-465.788 111.114,-470.703 105.772,-466.615 112.032,-475.618 112.032,-475.618"/>
</g>
<!-- Skill&#45;&gt;User -->
<g id="edge15" class="edge"><title>Skill&#45;&gt;User</title>
<path fill="none" stroke="#46c816" d="M213.243,-570.544C258.011,-544.396 315.637,-510.738 365.599,-481.557"/>
<polygon fill="#46c816" stroke="#46c816" points="213.191,-570.574 202.286,-571.732 208.873,-573.096 204.556,-575.618 204.556,-575.618 204.556,-575.618 208.873,-573.096 206.825,-579.504 213.191,-570.574 213.191,-570.574"/>
<polygon fill="#46c816" stroke="#46c816" points="365.876,-481.395 376.781,-480.238 370.193,-478.874 374.511,-476.352 374.511,-476.352 374.511,-476.352 370.193,-478.874 372.241,-472.466 365.876,-481.395 365.876,-481.395"/>
</g>
<!-- Skill&#45;&gt;UserSkill -->
<g id="edge14" class="edge"><title>Skill&#45;&gt;UserSkill</title>
<path fill="none" stroke="#40c91c" d="M167.264,-557.948C171.14,-548.489 174.593,-538.62 176.985,-529 198.269,-443.39 200.461,-341.088 199.056,-275.721"/>
<ellipse fill="none" stroke="#40c91c" cx="165.644" cy="-561.753" rx="4.00002" ry="4.00002"/>
<polygon fill="#40c91c" stroke="#40c91c" points="199.052,-275.552 203.301,-265.443 198.927,-270.554 198.802,-265.555 198.802,-265.555 198.802,-265.555 198.927,-270.554 194.303,-265.668 199.052,-275.552 199.052,-275.552"/>
</g>
<!-- User&#45;&gt;Message -->
<g id="edge21" class="edge"><title>User&#45;&gt;Message</title>
<path fill="none" stroke="#dcdb0c" d="M401.568,-295.574C396.954,-288.298 392.411,-281.134 388.037,-274.237"/>
<ellipse fill="none" stroke="#dcdb0c" cx="403.757" cy="-299.025" rx="4.00002" ry="4.00002"/>
<polygon fill="#dcdb0c" stroke="#dcdb0c" points="387.949,-274.098 386.394,-263.243 385.271,-269.875 382.594,-265.653 382.594,-265.653 382.594,-265.653 385.271,-269.875 378.793,-268.063 387.949,-274.098 387.949,-274.098"/>
</g>
<!-- User&#45;&gt;Notification -->
<g id="edge20" class="edge"><title>User&#45;&gt;Notification</title>
<path fill="none" stroke="#9a220e" d="M576.27,-296.166C582.773,-288.415 589.173,-280.787 595.315,-273.467"/>
<ellipse fill="none" stroke="#9a220e" cx="573.608" cy="-299.339" rx="4.00002" ry="4.00002"/>
<polygon fill="#9a220e" stroke="#9a220e" points="595.444,-273.313 605.319,-268.545 598.657,-269.483 601.871,-265.653 601.871,-265.653 601.871,-265.653 598.657,-269.483 598.424,-262.76 595.444,-273.313 595.444,-273.313"/>
</g>
<!-- User&#45;&gt;UserProject -->
<g id="edge19" class="edge"><title>User&#45;&gt;UserProject</title>
<path fill="none" stroke="#22f142" d="M489.288,-294.392C489.941,-288.026 490.583,-281.754 491.206,-275.677"/>
<ellipse fill="none" stroke="#22f142" cx="488.876" cy="-298.424" rx="4" ry="4"/>
<polygon fill="#22f142" stroke="#22f142" points="491.213,-275.601 496.709,-266.111 491.723,-270.627 492.233,-265.653 492.233,-265.653 492.233,-265.653 491.723,-270.627 487.756,-265.194 491.213,-275.601 491.213,-275.601"/>
</g>
<!-- User&#45;&gt;UserSkill -->
<g id="edge18" class="edge"><title>User&#45;&gt;UserSkill</title>
<path fill="none" stroke="#f222a4" d="M367.866,-336.489C336.492,-313.884 302.296,-289.076 270.985,-266 270.899,-265.937 270.812,-265.873 270.726,-265.809"/>
<ellipse fill="none" stroke="#f222a4" cx="371.27" cy="-338.94" rx="4.00002" ry="4.00002"/>
<polygon fill="#f222a4" stroke="#f222a4" points="270.626,-265.735 265.263,-256.17 266.606,-262.761 262.587,-259.787 262.587,-259.787 262.587,-259.787 266.606,-262.761 259.91,-263.405 270.626,-265.735 270.626,-265.735"/>
</g>
<!-- UserSkill&#45;&gt;UserSkillProject -->
<g id="edge24" class="edge"><title>UserSkill&#45;&gt;UserSkillProject</title>
<path fill="none" stroke="#87d0fe" d="M269.924,-151.479C270.278,-151.317 270.631,-151.158 270.985,-151 402.05,-92.5676 569.79,-70.9119 666.244,-62.9821"/>
<ellipse fill="none" stroke="#87d0fe" cx="266.119" cy="-153.359" rx="4.00002" ry="4.00002"/>
<polygon fill="#87d0fe" stroke="#87d0fe" points="666.529,-62.9595 676.854,-66.6547 671.514,-62.5641 676.498,-62.1688 676.498,-62.1688 676.498,-62.1688 671.514,-62.5641 676.142,-57.6829 666.529,-62.9595 666.529,-62.9595"/>
</g>
<!-- ActiveRecord::Base -->
<g id="node12" class="node"><title>ActiveRecord::Base</title>
<ellipse fill="none" stroke="black" cx="356.985" cy="-903.5" rx="81.1422" ry="18"/>
<text text-anchor="middle" x="356.985" y="-899.3" font-family="Times,serif" font-size="14.00">ActiveRecord::Base</text>
</g>
<!-- ActiveRecord::Base&#45;&gt;Category -->
<g id="edge2" class="edge"><title>ActiveRecord::Base&#45;&gt;Category</title>
<path fill="none" stroke="black" d="M331.654,-886.216C302.309,-867.351 252.824,-835.539 212.462,-809.592"/>
</g>
<!-- ActiveRecord::Base&#45;&gt;Message -->
<g id="edge3" class="edge"><title>ActiveRecord::Base&#45;&gt;Message</title>
<path fill="none" stroke="black" d="M347.882,-885.45C340.88,-871.315 331.781,-850.458 327.985,-831 317.007,-774.727 326.879,-759.323 327.985,-702 331.037,-543.73 339.6,-357.011 344.115,-265.613"/>
</g>
<!-- ActiveRecord::Base&#45;&gt;Notification -->
<g id="edge4" class="edge"><title>ActiveRecord::Base&#45;&gt;Notification</title>
<path fill="none" stroke="black" d="M427.115,-894.277C471.526,-885.573 527.138,-867.691 562.985,-831 714.277,-676.145 682.489,-387.132 660.705,-265.611"/>
</g>
<!-- ActiveRecord::Base&#45;&gt;Project -->
<g id="edge12" class="edge"><title>ActiveRecord::Base&#45;&gt;Project</title>
<path fill="none" stroke="black" d="M362.937,-885.402C367.803,-871.425 375.002,-850.749 382.017,-830.598"/>
</g>
<!-- ActiveRecord::Base&#45;&gt;ProjectSkill -->
<g id="edge13" class="edge"><title>ActiveRecord::Base&#45;&gt;ProjectSkill</title>
<path fill="none" stroke="black" d="M322.482,-887.07C305.952,-880.151 285.717,-872.36 266.985,-867 181.833,-842.636 129.506,-897.48 70.9847,-831 -19.1177,-728.645 40.1735,-551.496 77.3805,-465.781"/>
</g>
<!-- ActiveRecord::Base&#45;&gt;Skill -->
<g id="edge17" class="edge"><title>ActiveRecord::Base&#45;&gt;Skill</title>
<path fill="none" stroke="black" d="M340.647,-885.69C327.489,-871.694 308.949,-850.907 294.985,-831 257.279,-777.247 262.499,-754.438 222.985,-702 213.663,-689.63 202.629,-677.267 191.65,-665.941"/>
</g>
<!-- ActiveRecord::Base&#45;&gt;User -->
<g id="edge22" class="edge"><title>ActiveRecord::Base&#45;&gt;User</title>
<path fill="none" stroke="black" d="M403.227,-888.686C430.797,-877.797 463.54,-859.581 479.985,-831 532.653,-739.464 523.952,-616.665 506.934,-528.525"/>
</g>
<!-- ActiveRecord::Base&#45;&gt;UserProject -->
<g id="edge23" class="edge"><title>ActiveRecord::Base&#45;&gt;UserProject</title>
<path fill="none" stroke="black" d="M409.81,-889.713C443.249,-879.108 485.098,-860.825 511.985,-831 606.94,-725.669 591.783,-668.903 614.985,-529 631.491,-429.47 658.95,-392.805 614.985,-302 613.377,-298.679 589.999,-279.973 564.56,-260.242"/>
</g>
<!-- ActiveRecord::Base&#45;&gt;UserSkill -->
<g id="edge25" class="edge"><title>ActiveRecord::Base&#45;&gt;UserSkill</title>
<path fill="none" stroke="black" d="M322.994,-886.94C306.406,-879.906 285.975,-872.056 266.985,-867 213.383,-852.728 56.2686,-872.956 19.9847,-831 -22.6352,-781.718 15.4267,-317.763 24.9847,-302 47.8224,-264.336 91.8125,-241.034 129.455,-227.24"/>
</g>
<!-- ActiveRecord::Base&#45;&gt;UserSkillProject -->
<g id="edge26" class="edge"><title>ActiveRecord::Base&#45;&gt;UserSkillProject</title>
<path fill="none" stroke="black" d="M428.847,-894.973C483.644,-886.445 558.976,-868.486 614.985,-831 715.392,-763.8 781.985,-737.32 781.985,-616.5 781.985,-616.5 781.985,-616.5 781.985,-414.5 781.985,-308.057 764.98,-184.717 753.721,-114.719"/>
</g>
</g>
</svg>
