<?xml version="1.0" encoding="UTF-8" standalone="no"?>
<!DOCTYPE svg PUBLIC "-//W3C//DTD SVG 1.1//EN"
 "http://www.w3.org/Graphics/SVG/1.1/DTD/svg11.dtd">
<!-- Generated by graphviz version 2.38.0 (20140413.2041)
 -->
<!-- Title: models_diagram Pages: 1 -->
<svg width="679pt" height="797pt"
 viewBox="0.00 0.00 679.19 797.00" xmlns="http://www.w3.org/2000/svg" xmlns:xlink="http://www.w3.org/1999/xlink">
<g id="graph0" class="graph" transform="scale(1 1) rotate(0) translate(4 793)">
<title>models_diagram</title>
<polygon fill="white" stroke="none" points="-4,4 -4,-793 675.193,-793 675.193,4 -4,4"/>
<!-- _diagram_info -->
<g id="node1" class="node"><title>_diagram_info</title>
<text text-anchor="start" x="8" y="-774.6" font-family="Times,serif" font-size="13.00">Models diagram</text>
<text text-anchor="start" x="8" y="-761.6" font-family="Times,serif" font-size="13.00">Date: Aug 06 2014 &#45; 09:55</text>
<text text-anchor="start" x="8" y="-748.6" font-family="Times,serif" font-size="13.00">Migration version: 20140806132945</text>
<text text-anchor="start" x="8" y="-735.6" font-family="Times,serif" font-size="13.00">Generated by RailRoady 1.1.1</text>
<text text-anchor="start" x="8" y="-722.6" font-family="Times,serif" font-size="13.00">http://railroady.prestonlee.com</text>
</g>
<!-- Category -->
<g id="node2" class="node"><title>Category</title>
<path fill="none" stroke="black" d="M176.182,-572.5C176.182,-572.5 285.193,-572.5 285.193,-572.5 291.193,-572.5 297.193,-578.5 297.193,-584.5 297.193,-584.5 297.193,-646.5 297.193,-646.5 297.193,-652.5 291.193,-658.5 285.193,-658.5 285.193,-658.5 176.182,-658.5 176.182,-658.5 170.182,-658.5 164.182,-652.5 164.182,-646.5 164.182,-646.5 164.182,-584.5 164.182,-584.5 164.182,-578.5 170.182,-572.5 176.182,-572.5"/>
<text text-anchor="middle" x="230.688" y="-643.3" font-family="Times,serif" font-size="14.00">Category</text>
<polyline fill="none" stroke="black" points="164.182,-636.5 297.193,-636.5 "/>
<text text-anchor="start" x="172.182" y="-621.3" font-family="Times,serif" font-size="14.00">id :integer</text>
<text text-anchor="start" x="172.182" y="-607.3" font-family="Times,serif" font-size="14.00">name :string</text>
<text text-anchor="start" x="172.182" y="-593.3" font-family="Times,serif" font-size="14.00">created_at :datetime</text>
<text text-anchor="start" x="172.182" y="-579.3" font-family="Times,serif" font-size="14.00">updated_at :datetime</text>
</g>
<!-- Skill -->
<g id="node6" class="node"><title>Skill</title>
<path fill="none" stroke="black" d="M138.182,-414.5C138.182,-414.5 247.193,-414.5 247.193,-414.5 253.193,-414.5 259.193,-420.5 259.193,-426.5 259.193,-426.5 259.193,-502.5 259.193,-502.5 259.193,-508.5 253.193,-514.5 247.193,-514.5 247.193,-514.5 138.182,-514.5 138.182,-514.5 132.182,-514.5 126.182,-508.5 126.182,-502.5 126.182,-502.5 126.182,-426.5 126.182,-426.5 126.182,-420.5 132.182,-414.5 138.182,-414.5"/>
<text text-anchor="middle" x="192.688" y="-499.3" font-family="Times,serif" font-size="14.00">Skill</text>
<polyline fill="none" stroke="black" points="126.182,-492.5 259.193,-492.5 "/>
<text text-anchor="start" x="134.182" y="-477.3" font-family="Times,serif" font-size="14.00">id :integer</text>
<text text-anchor="start" x="134.182" y="-463.3" font-family="Times,serif" font-size="14.00">name :string</text>
<text text-anchor="start" x="134.182" y="-449.3" font-family="Times,serif" font-size="14.00">created_at :datetime</text>
<text text-anchor="start" x="134.182" y="-435.3" font-family="Times,serif" font-size="14.00">updated_at :datetime</text>
<text text-anchor="start" x="134.182" y="-421.3" font-family="Times,serif" font-size="14.00">category_id :integer</text>
</g>
<!-- Category&#45;&gt;Skill -->
<g id="edge1" class="edge"><title>Category&#45;&gt;Skill</title>
<path fill="none" stroke="#efd85f" d="M217.821,-564.047C214.586,-551.366 211.087,-537.644 207.756,-524.583"/>
<ellipse fill="none" stroke="#efd85f" cx="218.912" cy="-568.325" rx="4.00001" ry="4.00001"/>
<polygon fill="#efd85f" stroke="#efd85f" points="207.72,-524.443 209.609,-513.641 206.485,-519.598 205.249,-514.753 205.249,-514.753 205.249,-514.753 206.485,-519.598 200.888,-515.865 207.72,-524.443 207.72,-524.443"/>
</g>
<!-- Notification -->
<g id="node3" class="node"><title>Notification</title>
<path fill="none" stroke="black" d="M550.182,-7.5C550.182,-7.5 659.193,-7.5 659.193,-7.5 665.193,-7.5 671.193,-13.5 671.193,-19.5 671.193,-19.5 671.193,-95.5 671.193,-95.5 671.193,-101.5 665.193,-107.5 659.193,-107.5 659.193,-107.5 550.182,-107.5 550.182,-107.5 544.182,-107.5 538.182,-101.5 538.182,-95.5 538.182,-95.5 538.182,-19.5 538.182,-19.5 538.182,-13.5 544.182,-7.5 550.182,-7.5"/>
<text text-anchor="middle" x="604.688" y="-92.3" font-family="Times,serif" font-size="14.00">Notification</text>
<polyline fill="none" stroke="black" points="538.182,-85.5 671.193,-85.5 "/>
<text text-anchor="start" x="546.182" y="-70.3" font-family="Times,serif" font-size="14.00">id :integer</text>
<text text-anchor="start" x="546.182" y="-56.3" font-family="Times,serif" font-size="14.00">user_id :integer</text>
<text text-anchor="start" x="546.182" y="-42.3" font-family="Times,serif" font-size="14.00">content :string</text>
<text text-anchor="start" x="546.182" y="-28.3" font-family="Times,serif" font-size="14.00">created_at :datetime</text>
<text text-anchor="start" x="546.182" y="-14.3" font-family="Times,serif" font-size="14.00">updated_at :datetime</text>
</g>
<!-- Project -->
<g id="node4" class="node"><title>Project</title>
<path fill="none" stroke="black" d="M327.182,-551.5C327.182,-551.5 436.193,-551.5 436.193,-551.5 442.193,-551.5 448.193,-557.5 448.193,-563.5 448.193,-563.5 448.193,-667.5 448.193,-667.5 448.193,-673.5 442.193,-679.5 436.193,-679.5 436.193,-679.5 327.182,-679.5 327.182,-679.5 321.182,-679.5 315.182,-673.5 315.182,-667.5 315.182,-667.5 315.182,-563.5 315.182,-563.5 315.182,-557.5 321.182,-551.5 327.182,-551.5"/>
<text text-anchor="middle" x="381.688" y="-664.3" font-family="Times,serif" font-size="14.00">Project</text>
<polyline fill="none" stroke="black" points="315.182,-657.5 448.193,-657.5 "/>
<text text-anchor="start" x="323.182" y="-642.3" font-family="Times,serif" font-size="14.00">id :integer</text>
<text text-anchor="start" x="323.182" y="-628.3" font-family="Times,serif" font-size="14.00">title :string</text>
<text text-anchor="start" x="323.182" y="-614.3" font-family="Times,serif" font-size="14.00">description :string</text>
<text text-anchor="start" x="323.182" y="-600.3" font-family="Times,serif" font-size="14.00">status :string</text>
<text text-anchor="start" x="323.182" y="-586.3" font-family="Times,serif" font-size="14.00">created_at :datetime</text>
<text text-anchor="start" x="323.182" y="-572.3" font-family="Times,serif" font-size="14.00">updated_at :datetime</text>
<text text-anchor="start" x="323.182" y="-558.3" font-family="Times,serif" font-size="14.00">admin_id :integer</text>
</g>
<!-- ProjectSkill -->
<g id="node5" class="node"><title>ProjectSkill</title>
<path fill="none" stroke="black" d="M147.182,-214.5C147.182,-214.5 256.193,-214.5 256.193,-214.5 262.193,-214.5 268.193,-220.5 268.193,-226.5 268.193,-226.5 268.193,-302.5 268.193,-302.5 268.193,-308.5 262.193,-314.5 256.193,-314.5 256.193,-314.5 147.182,-314.5 147.182,-314.5 141.182,-314.5 135.182,-308.5 135.182,-302.5 135.182,-302.5 135.182,-226.5 135.182,-226.5 135.182,-220.5 141.182,-214.5 147.182,-214.5"/>
<text text-anchor="middle" x="201.688" y="-299.3" font-family="Times,serif" font-size="14.00">ProjectSkill</text>
<polyline fill="none" stroke="black" points="135.182,-292.5 268.193,-292.5 "/>
<text text-anchor="start" x="143.182" y="-277.3" font-family="Times,serif" font-size="14.00">id :integer</text>
<text text-anchor="start" x="143.182" y="-263.3" font-family="Times,serif" font-size="14.00">project_id :integer</text>
<text text-anchor="start" x="143.182" y="-249.3" font-family="Times,serif" font-size="14.00">skill_id :integer</text>
<text text-anchor="start" x="143.182" y="-235.3" font-family="Times,serif" font-size="14.00">created_at :datetime</text>
<text text-anchor="start" x="143.182" y="-221.3" font-family="Times,serif" font-size="14.00">updated_at :datetime</text>
</g>
<!-- Project&#45;&gt;ProjectSkill -->
<g id="edge6" class="edge"><title>Project&#45;&gt;ProjectSkill</title>
<path fill="none" stroke="#39fdbd" d="M329.793,-544.601C323.372,-534.86 317.153,-524.822 311.688,-515 287.965,-472.368 288.277,-458.682 268.688,-414 255.634,-384.224 240.795,-351.248 228.405,-323.949"/>
<ellipse fill="none" stroke="#39fdbd" cx="332.042" cy="-547.964" rx="4.00002" ry="4.00002"/>
<polygon fill="#39fdbd" stroke="#39fdbd" points="228.269,-323.649 228.229,-312.683 226.201,-319.097 224.132,-314.545 224.132,-314.545 224.132,-314.545 226.201,-319.097 220.035,-316.406 228.269,-323.649 228.269,-323.649"/>
</g>
<!-- Project&#45;&gt;Skill -->
<g id="edge7" class="edge"><title>Project&#45;&gt;Skill</title>
<path fill="none" stroke="#57e09b" d="M306.938,-551.2C306.855,-551.133 306.771,-551.066 306.688,-551 294.112,-540.975 280.572,-530.528 267.369,-520.52"/>
<polygon fill="#57e09b" stroke="#57e09b" points="307.004,-551.253 311.969,-561.03 310.898,-554.389 314.792,-557.525 314.792,-557.525 314.792,-557.525 310.898,-554.389 317.615,-554.02 307.004,-551.253 307.004,-551.253"/>
<polygon fill="#57e09b" stroke="#57e09b" points="267.183,-520.379 261.914,-510.761 263.193,-517.366 259.203,-514.352 259.203,-514.352 259.203,-514.352 263.193,-517.366 256.491,-517.943 267.183,-520.379 267.183,-520.379"/>
</g>
<!-- User -->
<g id="node7" class="node"><title>User</title>
<path fill="none" stroke="black" d="M355.41,-151.5C355.41,-151.5 535.966,-151.5 535.966,-151.5 541.966,-151.5 547.966,-157.5 547.966,-163.5 547.966,-163.5 547.966,-365.5 547.966,-365.5 547.966,-371.5 541.966,-377.5 535.966,-377.5 535.966,-377.5 355.41,-377.5 355.41,-377.5 349.41,-377.5 343.41,-371.5 343.41,-365.5 343.41,-365.5 343.41,-163.5 343.41,-163.5 343.41,-157.5 349.41,-151.5 355.41,-151.5"/>
<text text-anchor="middle" x="445.688" y="-362.3" font-family="Times,serif" font-size="14.00">User</text>
<polyline fill="none" stroke="black" points="343.41,-355.5 547.966,-355.5 "/>
<text text-anchor="start" x="351.41" y="-340.3" font-family="Times,serif" font-size="14.00">id :integer</text>
<text text-anchor="start" x="351.41" y="-326.3" font-family="Times,serif" font-size="14.00">email :string</text>
<text text-anchor="start" x="351.41" y="-312.3" font-family="Times,serif" font-size="14.00">encrypted_password :string</text>
<text text-anchor="start" x="351.41" y="-298.3" font-family="Times,serif" font-size="14.00">reset_password_token :string</text>
<text text-anchor="start" x="351.41" y="-284.3" font-family="Times,serif" font-size="14.00">reset_password_sent_at :datetime</text>
<text text-anchor="start" x="351.41" y="-270.3" font-family="Times,serif" font-size="14.00">remember_created_at :datetime</text>
<text text-anchor="start" x="351.41" y="-256.3" font-family="Times,serif" font-size="14.00">sign_in_count :integer</text>
<text text-anchor="start" x="351.41" y="-242.3" font-family="Times,serif" font-size="14.00">current_sign_in_at :datetime</text>
<text text-anchor="start" x="351.41" y="-228.3" font-family="Times,serif" font-size="14.00">last_sign_in_at :datetime</text>
<text text-anchor="start" x="351.41" y="-214.3" font-family="Times,serif" font-size="14.00">current_sign_in_ip :string</text>
<text text-anchor="start" x="351.41" y="-200.3" font-family="Times,serif" font-size="14.00">last_sign_in_ip :string</text>
<text text-anchor="start" x="351.41" y="-186.3" font-family="Times,serif" font-size="14.00">created_at :datetime</text>
<text text-anchor="start" x="351.41" y="-172.3" font-family="Times,serif" font-size="14.00">updated_at :datetime</text>
<text text-anchor="start" x="351.41" y="-158.3" font-family="Times,serif" font-size="14.00">name :string</text>
</g>
<!-- Project&#45;&gt;User -->
<g id="edge5" class="edge"><title>Project&#45;&gt;User</title>
<path fill="none" stroke="#575633" d="M395.089,-541.422C403.257,-496.88 413.902,-438.834 423.319,-387.48"/>
<polygon fill="#575633" stroke="#575633" points="395.081,-541.463 388.851,-550.487 394.18,-546.381 393.278,-551.299 393.278,-551.299 393.278,-551.299 394.18,-546.381 397.704,-552.11 395.081,-541.463 395.081,-541.463"/>
<polygon fill="#575633" stroke="#575633" points="423.32,-387.476 429.55,-378.452 424.221,-382.558 425.123,-377.64 425.123,-377.64 425.123,-377.64 424.221,-382.558 420.697,-376.828 423.32,-387.476 423.32,-387.476"/>
</g>
<!-- UserProject -->
<g id="node8" class="node"><title>UserProject</title>
<path fill="none" stroke="black" d="M391.182,-0.5C391.182,-0.5 500.193,-0.5 500.193,-0.5 506.193,-0.5 512.193,-6.5 512.193,-12.5 512.193,-12.5 512.193,-102.5 512.193,-102.5 512.193,-108.5 506.193,-114.5 500.193,-114.5 500.193,-114.5 391.182,-114.5 391.182,-114.5 385.182,-114.5 379.182,-108.5 379.182,-102.5 379.182,-102.5 379.182,-12.5 379.182,-12.5 379.182,-6.5 385.182,-0.5 391.182,-0.5"/>
<text text-anchor="middle" x="445.688" y="-99.3" font-family="Times,serif" font-size="14.00">UserProject</text>
<polyline fill="none" stroke="black" points="379.182,-92.5 512.193,-92.5 "/>
<text text-anchor="start" x="387.182" y="-77.3" font-family="Times,serif" font-size="14.00">id :integer</text>
<text text-anchor="start" x="387.182" y="-63.3" font-family="Times,serif" font-size="14.00">user_id :integer</text>
<text text-anchor="start" x="387.182" y="-49.3" font-family="Times,serif" font-size="14.00">project_id :integer</text>
<text text-anchor="start" x="387.182" y="-35.3" font-family="Times,serif" font-size="14.00">approved :boolean</text>
<text text-anchor="start" x="387.182" y="-21.3" font-family="Times,serif" font-size="14.00">created_at :datetime</text>
<text text-anchor="start" x="387.182" y="-7.3" font-family="Times,serif" font-size="14.00">updated_at :datetime</text>
</g>
<!-- Project&#45;&gt;UserProject -->
<g id="edge4" class="edge"><title>Project&#45;&gt;UserProject</title>
<path fill="none" stroke="#e78920" d="M352.705,-543.674C318.821,-449.33 274.542,-279.415 334.688,-151 342.978,-133.3 356.505,-117.805 371.312,-104.813"/>
<ellipse fill="none" stroke="#e78920" cx="354.167" cy="-547.69" rx="4.00001" ry="4.00001"/>
<polygon fill="#e78920" stroke="#e78920" points="371.485,-104.669 382.041,-101.699 375.318,-101.459 379.152,-98.2487 379.152,-98.2487 379.152,-98.2487 375.318,-101.459 376.263,-94.7986 371.485,-104.669 371.485,-104.669"/>
</g>
<!-- Skill&#45;&gt;ProjectSkill -->
<g id="edge12" class="edge"><title>Skill&#45;&gt;ProjectSkill</title>
<path fill="none" stroke="#dfe166" d="M195.288,-406.301C196.45,-380.738 197.819,-350.622 198.992,-324.816"/>
<ellipse fill="none" stroke="#dfe166" cx="195.106" cy="-410.306" rx="4" ry="4"/>
<polygon fill="#dfe166" stroke="#dfe166" points="198.993,-324.778 203.943,-314.993 199.22,-319.783 199.447,-314.788 199.447,-314.788 199.447,-314.788 199.22,-319.783 194.952,-314.584 198.993,-324.778 198.993,-324.778"/>
</g>
<!-- Skill&#45;&gt;User -->
<g id="edge11" class="edge"><title>Skill&#45;&gt;User</title>
<path fill="none" stroke="#d728a3" d="M263.45,-408.121C285.765,-390.657 310.972,-370.93 335.364,-351.841"/>
<polygon fill="#d728a3" stroke="#d728a3" points="263.427,-408.139 252.779,-410.758 259.49,-411.22 255.552,-414.302 255.552,-414.302 255.552,-414.302 259.49,-411.22 258.326,-417.846 263.427,-408.139 263.427,-408.139"/>
<polygon fill="#d728a3" stroke="#d728a3" points="335.374,-351.832 346.023,-349.213 339.312,-348.751 343.25,-345.669 343.25,-345.669 343.25,-345.669 339.312,-348.751 340.476,-342.125 335.374,-351.832 335.374,-351.832"/>
</g>
<!-- UserSkill -->
<g id="node9" class="node"><title>UserSkill</title>
<path fill="none" stroke="black" d="M52.1824,-7.5C52.1824,-7.5 161.193,-7.5 161.193,-7.5 167.193,-7.5 173.193,-13.5 173.193,-19.5 173.193,-19.5 173.193,-95.5 173.193,-95.5 173.193,-101.5 167.193,-107.5 161.193,-107.5 161.193,-107.5 52.1824,-107.5 52.1824,-107.5 46.1824,-107.5 40.1824,-101.5 40.1824,-95.5 40.1824,-95.5 40.1824,-19.5 40.1824,-19.5 40.1824,-13.5 46.1824,-7.5 52.1824,-7.5"/>
<text text-anchor="middle" x="106.688" y="-92.3" font-family="Times,serif" font-size="14.00">UserSkill</text>
<polyline fill="none" stroke="black" points="40.1824,-85.5 173.193,-85.5 "/>
<text text-anchor="start" x="48.1824" y="-70.3" font-family="Times,serif" font-size="14.00">id :integer</text>
<text text-anchor="start" x="48.1824" y="-56.3" font-family="Times,serif" font-size="14.00">user_id :integer</text>
<text text-anchor="start" x="48.1824" y="-42.3" font-family="Times,serif" font-size="14.00">skill_id :integer</text>
<text text-anchor="start" x="48.1824" y="-28.3" font-family="Times,serif" font-size="14.00">created_at :datetime</text>
<text text-anchor="start" x="48.1824" y="-14.3" font-family="Times,serif" font-size="14.00">updated_at :datetime</text>
</g>
<!-- Skill&#45;&gt;UserSkill -->
<g id="edge10" class="edge"><title>Skill&#45;&gt;UserSkill</title>
<path fill="none" stroke="#6beb8f" d="M141.379,-407.504C135.107,-398.19 129.558,-388.218 125.688,-378 93.1357,-292.05 94.7159,-183.791 99.9114,-117.93"/>
<ellipse fill="none" stroke="#6beb8f" cx="143.759" cy="-410.892" rx="4.00002" ry="4.00002"/>
<polygon fill="#6beb8f" stroke="#6beb8f" points="99.9309,-117.698 105.256,-108.112 100.351,-112.716 100.772,-107.734 100.772,-107.734 100.772,-107.734 100.351,-112.716 96.2875,-107.355 99.9309,-117.698 99.9309,-117.698"/>
</g>
<!-- User&#45;&gt;Notification -->
<g id="edge16" class="edge"><title>User&#45;&gt;Notification</title>
<path fill="none" stroke="#89363c" d="M537.631,-144.957C545.478,-134.84 553.159,-124.936 560.358,-115.654"/>
<ellipse fill="none" stroke="#89363c" cx="535.083" cy="-148.242" rx="4.00002" ry="4.00002"/>
<polygon fill="#89363c" stroke="#89363c" points="560.424,-115.57 570.109,-110.426 563.488,-111.619 566.553,-107.668 566.553,-107.668 566.553,-107.668 563.488,-111.619 562.997,-104.91 560.424,-115.57 560.424,-115.57"/>
</g>
<!-- User&#45;&gt;UserProject -->
<g id="edge15" class="edge"><title>User&#45;&gt;UserProject</title>
<path fill="none" stroke="#f31746" d="M445.688,-143.392C445.688,-137.026 445.688,-130.754 445.688,-124.677"/>
<ellipse fill="none" stroke="#f31746" cx="445.688" cy="-147.403" rx="4" ry="4"/>
<polygon fill="#f31746" stroke="#f31746" points="445.688,-124.653 450.188,-114.653 445.688,-119.653 445.688,-114.653 445.688,-114.653 445.688,-114.653 445.688,-119.653 441.188,-114.653 445.688,-124.653 445.688,-124.653"/>
</g>
<!-- User&#45;&gt;UserSkill -->
<g id="edge14" class="edge"><title>User&#45;&gt;UserSkill</title>
<path fill="none" stroke="#b3f7dd" d="M336.359,-188.141C317.014,-175.426 296.91,-162.6 277.688,-151 247.046,-132.509 212.452,-113.467 182.437,-97.503"/>
<ellipse fill="none" stroke="#b3f7dd" cx="339.828" cy="-190.429" rx="4.00002" ry="4.00002"/>
<polygon fill="#b3f7dd" stroke="#b3f7dd" points="182.115,-97.3324 175.384,-88.6748 177.696,-94.9919 173.278,-92.6513 173.278,-92.6513 173.278,-92.6513 177.696,-94.9919 171.171,-96.6279 182.115,-97.3324 182.115,-97.3324"/>
</g>
<!-- ActiveRecord::Base -->
<g id="node10" class="node"><title>ActiveRecord::Base</title>
<ellipse fill="none" stroke="black" cx="306.688" cy="-752.5" rx="81.1422" ry="18"/>
<text text-anchor="middle" x="306.688" y="-748.3" font-family="Times,serif" font-size="14.00">ActiveRecord::Base</text>
</g>
<!-- ActiveRecord::Base&#45;&gt;Category -->
<g id="edge2" class="edge"><title>ActiveRecord::Base&#45;&gt;Category</title>
<path fill="none" stroke="black" d="M297.062,-734.402C286.398,-715.458 268.806,-684.209 254.411,-658.641"/>
</g>
<!-- ActiveRecord::Base&#45;&gt;Notification -->
<g id="edge3" class="edge"><title>ActiveRecord::Base&#45;&gt;Notification</title>
<path fill="none" stroke="black" d="M383.997,-746.781C433.75,-739.575 495.943,-722.047 533.688,-680 680.412,-516.549 639.616,-223.447 616.017,-107.572"/>
</g>
<!-- ActiveRecord::Base&#45;&gt;Project -->
<g id="edge8" class="edge"><title>ActiveRecord::Base&#45;&gt;Project</title>
<path fill="none" stroke="black" d="M316.187,-734.402C323.952,-720.425 335.438,-699.749 346.633,-679.598"/>
</g>
<!-- ActiveRecord::Base&#45;&gt;ProjectSkill -->
<g id="edge9" class="edge"><title>ActiveRecord::Base&#45;&gt;ProjectSkill</title>
<path fill="none" stroke="black" d="M269.116,-736.434C219.157,-716.322 136.844,-682.88 134.688,-680 63.6638,-585.152 86.233,-528.512 116.688,-414 126.193,-378.259 146.557,-342.159 164.969,-314.503"/>
</g>
<!-- ActiveRecord::Base&#45;&gt;Skill -->
<g id="edge13" class="edge"><title>ActiveRecord::Base&#45;&gt;Skill</title>
<path fill="none" stroke="black" d="M269.377,-736.413C226.561,-718.726 161.349,-690.495 154.688,-680 122.97,-630.029 144.234,-560.992 165.554,-514.875"/>
</g>
<!-- ActiveRecord::Base&#45;&gt;User -->
<g id="edge17" class="edge"><title>ActiveRecord::Base&#45;&gt;User</title>
<path fill="none" stroke="black" d="M365.381,-739.858C398.6,-729.94 437.444,-711.984 457.688,-680 514.382,-590.426 501.885,-466.76 481.037,-377.856"/>
</g>
<!-- ActiveRecord::Base&#45;&gt;UserProject -->
<g id="edge18" class="edge"><title>ActiveRecord::Base&#45;&gt;UserProject</title>
<path fill="none" stroke="black" d="M372.779,-741.831C412.551,-732.582 461.057,-714.636 490.688,-680 580,-575.6 541.936,-514.596 556.688,-378 567.52,-277.694 599.48,-242.364 556.688,-151 551.288,-139.471 532.721,-122.543 512.277,-106.31"/>
</g>
<!-- ActiveRecord::Base&#45;&gt;UserSkill -->
<g id="edge19" class="edge"><title>ActiveRecord::Base&#45;&gt;UserSkill</title>
<path fill="none" stroke="black" d="M270.679,-736.233C254.351,-729.588 234.704,-721.971 216.688,-716 158.559,-696.735 120.905,-728.631 83.6877,-680 -48.5384,-507.225 41.6378,-221.391 86.0259,-107.519"/>
</g>
</g>
</svg>
