<?xml version="1.0" encoding="UTF-8" standalone="no"?>
<!DOCTYPE svg PUBLIC "-//W3C//DTD SVG 1.1//EN"
 "http://www.w3.org/Graphics/SVG/1.1/DTD/svg11.dtd">
<!-- Generated by graphviz version 2.38.0 (20140413.2041)
 -->
<!-- Title: models_diagram Pages: 1 -->
<svg width="617pt" height="369pt"
 viewBox="0.00 0.00 617.04 369.00" xmlns="http://www.w3.org/2000/svg" xmlns:xlink="http://www.w3.org/1999/xlink">
<g id="graph0" class="graph" transform="scale(1 1) rotate(0) translate(4 365)">
<title>models_diagram</title>
<polygon fill="white" stroke="none" points="-4,4 -4,-365 613.043,-365 613.043,4 -4,4"/>
<!-- _diagram_info -->
<g id="node1" class="node"><title>_diagram_info</title>
<text text-anchor="start" x="8" y="-346.6" font-family="Times,serif" font-size="13.00">Models diagram</text>
<text text-anchor="start" x="8" y="-333.6" font-family="Times,serif" font-size="13.00">Date: Aug 08 2014 &#45; 17:58</text>
<text text-anchor="start" x="8" y="-320.6" font-family="Times,serif" font-size="13.00">Migration version: 20140808193239</text>
<text text-anchor="start" x="8" y="-307.6" font-family="Times,serif" font-size="13.00">Generated by RailRoady 1.1.1</text>
<text text-anchor="start" x="8" y="-294.6" font-family="Times,serif" font-size="13.00">http://railroady.prestonlee.com</text>
</g>
<!-- Category -->
<g id="node2" class="node"><title>Category</title>
<ellipse fill="none" stroke="black" cx="235.688" cy="-234" rx="42.5456" ry="18"/>
<text text-anchor="middle" x="235.688" y="-229.8" font-family="Times,serif" font-size="14.00">Category</text>
</g>
<!-- Skill -->
<g id="node7" class="node"><title>Skill</title>
<ellipse fill="none" stroke="black" cx="235.688" cy="-162" rx="27" ry="18"/>
<text text-anchor="middle" x="235.688" y="-157.8" font-family="Times,serif" font-size="14.00">Skill</text>
</g>
<!-- Category&#45;&gt;Skill -->
<g id="edge1" class="edge"><title>Category&#45;&gt;Skill</title>
<path fill="none" stroke="#0cc010" d="M235.688,-207.64C235.688,-202.063 235.688,-196.132 235.688,-190.476"/>
<ellipse fill="none" stroke="#0cc010" cx="235.688" cy="-211.697" rx="4" ry="4"/>
<polygon fill="#0cc010" stroke="#0cc010" points="235.688,-190.104 240.188,-180.104 235.688,-185.104 235.688,-180.104 235.688,-180.104 235.688,-180.104 235.688,-185.104 231.188,-180.104 235.688,-190.104 235.688,-190.104"/>
</g>
<!-- Message -->
<g id="node3" class="node"><title>Message</title>
<ellipse fill="none" stroke="black" cx="323.688" cy="-18" rx="41.1007" ry="18"/>
<text text-anchor="middle" x="323.688" y="-13.8" font-family="Times,serif" font-size="14.00">Message</text>
</g>
<!-- Notification -->
<g id="node4" class="node"><title>Notification</title>
<ellipse fill="none" stroke="black" cx="556.688" cy="-18" rx="52.2106" ry="18"/>
<text text-anchor="middle" x="556.688" y="-13.8" font-family="Times,serif" font-size="14.00">Notification</text>
</g>
<!-- Project -->
<g id="node5" class="node"><title>Project</title>
<ellipse fill="none" stroke="black" cx="369.688" cy="-234" rx="35.3129" ry="18"/>
<text text-anchor="middle" x="369.688" y="-229.8" font-family="Times,serif" font-size="14.00">Project</text>
</g>
<!-- Project&#45;&gt;Message -->
<g id="edge7" class="edge"><title>Project&#45;&gt;Message</title>
<path fill="none" stroke="#d92bda" d="M364.298,-207.924C355.576,-167.348 338.443,-87.6438 329.474,-45.9178"/>
<ellipse fill="none" stroke="#d92bda" cx="365.16" cy="-211.939" rx="4.00001" ry="4.00001"/>
<polygon fill="#d92bda" stroke="#d92bda" points="329.43,-45.7121 331.728,-34.9897 328.379,-40.8237 327.328,-35.9354 327.328,-35.9354 327.328,-35.9354 328.379,-40.8237 322.929,-36.8811 329.43,-45.7121 329.43,-45.7121"/>
</g>
<!-- ProjectSkill -->
<g id="node6" class="node"><title>ProjectSkill</title>
<ellipse fill="none" stroke="black" cx="206.688" cy="-90" rx="51.7346" ry="18"/>
<text text-anchor="middle" x="206.688" y="-85.8" font-family="Times,serif" font-size="14.00">ProjectSkill</text>
</g>
<!-- Project&#45;&gt;ProjectSkill -->
<g id="edge8" class="edge"><title>Project&#45;&gt;ProjectSkill</title>
<path fill="none" stroke="#081b8b" d="M347.609,-212.331C327.942,-194.069 298.251,-166.864 271.688,-144 259.699,-133.681 246.181,-122.576 234.59,-113.211"/>
<ellipse fill="none" stroke="#081b8b" cx="350.697" cy="-215.204" rx="4.00002" ry="4.00002"/>
<polygon fill="#081b8b" stroke="#081b8b" points="234.331,-113.003 229.36,-103.228 230.435,-109.868 226.539,-106.734 226.539,-106.734 226.539,-106.734 230.435,-109.868 223.719,-110.24 234.331,-113.003 234.331,-113.003"/>
</g>
<!-- Project&#45;&gt;Skill -->
<g id="edge9" class="edge"><title>Project&#45;&gt;Skill</title>
<path fill="none" stroke="#950084" d="M336.893,-215.868C315.029,-204.447 286.524,-189.556 265.34,-178.49"/>
<polygon fill="#950084" stroke="#950084" points="337.176,-216.016 343.956,-224.635 341.608,-218.331 346.04,-220.647 346.04,-220.647 346.04,-220.647 341.608,-218.331 348.123,-216.658 337.176,-216.016 337.176,-216.016"/>
<polygon fill="#950084" stroke="#950084" points="265.325,-178.482 258.545,-169.863 260.893,-176.167 256.461,-173.852 256.461,-173.852 256.461,-173.852 260.893,-176.167 254.377,-177.84 265.325,-178.482 265.325,-178.482"/>
</g>
<!-- User -->
<g id="node8" class="node"><title>User</title>
<ellipse fill="none" stroke="black" cx="379.688" cy="-90" rx="27" ry="18"/>
<text text-anchor="middle" x="379.688" y="-85.8" font-family="Times,serif" font-size="14.00">User</text>
</g>
<!-- Project&#45;&gt;User -->
<g id="edge6" class="edge"><title>Project&#45;&gt;User</title>
<path fill="none" stroke="#cf0edc" d="M371.612,-205.679C373.378,-180.599 375.982,-143.627 377.752,-118.493"/>
<polygon fill="#cf0edc" stroke="#cf0edc" points="371.597,-205.896 366.405,-215.555 371.245,-210.884 370.894,-215.871 370.894,-215.871 370.894,-215.871 371.245,-210.884 375.383,-216.188 371.597,-205.896 371.597,-205.896"/>
<polygon fill="#cf0edc" stroke="#cf0edc" points="377.775,-118.165 382.966,-108.505 378.126,-113.177 378.477,-108.189 378.477,-108.189 378.477,-108.189 378.126,-113.177 373.988,-107.873 377.775,-118.165 377.775,-118.165"/>
</g>
<!-- UserProject -->
<g id="node9" class="node"><title>UserProject</title>
<ellipse fill="none" stroke="black" cx="434.688" cy="-18" rx="51.7088" ry="18"/>
<text text-anchor="middle" x="434.688" y="-13.8" font-family="Times,serif" font-size="14.00">UserProject</text>
</g>
<!-- Project&#45;&gt;UserProject -->
<g id="edge5" class="edge"><title>Project&#45;&gt;UserProject</title>
<path fill="none" stroke="#036282" d="M379.79,-208.732C389.892,-183.793 405.371,-143.68 415.688,-108 421.603,-87.542 426.557,-63.9542 429.921,-46.2039"/>
<ellipse fill="none" stroke="#036282" cx="378.224" cy="-212.568" rx="4.00001" ry="4.00001"/>
<polygon fill="#036282" stroke="#036282" points="429.945,-46.0752 436.185,-37.0577 430.852,-41.1582 431.76,-36.2412 431.76,-36.2412 431.76,-36.2412 430.852,-41.1582 427.334,-35.4246 429.945,-46.0752 429.945,-46.0752"/>
</g>
<!-- Skill&#45;&gt;ProjectSkill -->
<g id="edge14" class="edge"><title>Skill&#45;&gt;ProjectSkill</title>
<path fill="none" stroke="#d6d391" d="M225.653,-136.778C223.07,-130.544 220.278,-123.805 217.651,-117.463"/>
<ellipse fill="none" stroke="#d6d391" cx="227.284" cy="-140.716" rx="4.00001" ry="4.00001"/>
<polygon fill="#d6d391" stroke="#d6d391" points="217.54,-117.195 217.87,-106.234 215.626,-112.575 213.712,-107.956 213.712,-107.956 213.712,-107.956 215.626,-112.575 209.555,-109.679 217.54,-117.195 217.54,-117.195"/>
</g>
<!-- Skill&#45;&gt;User -->
<g id="edge13" class="edge"><title>Skill&#45;&gt;User</title>
<path fill="none" stroke="#dbf012" d="M266.161,-146.187C290.597,-134.308 324.729,-117.716 349.175,-105.833"/>
<polygon fill="#dbf012" stroke="#dbf012" points="265.929,-146.299 254.968,-146.624 261.432,-148.485 256.935,-150.671 256.935,-150.671 256.935,-150.671 261.432,-148.485 258.903,-154.718 265.929,-146.299 265.929,-146.299"/>
<polygon fill="#dbf012" stroke="#dbf012" points="349.359,-105.743 360.32,-105.418 353.856,-103.557 358.353,-101.371 358.353,-101.371 358.353,-101.371 353.856,-103.557 356.385,-97.324 349.359,-105.743 349.359,-105.743"/>
</g>
<!-- UserSkill -->
<g id="node10" class="node"><title>UserSkill</title>
<ellipse fill="none" stroke="black" cx="220.688" cy="-18" rx="43.5319" ry="18"/>
<text text-anchor="middle" x="220.688" y="-13.8" font-family="Times,serif" font-size="14.00">UserSkill</text>
</g>
<!-- Skill&#45;&gt;UserSkill -->
<g id="edge12" class="edge"><title>Skill&#45;&gt;UserSkill</title>
<path fill="none" stroke="#d741b6" d="M252.491,-139.241C258.531,-130.111 264.609,-119.057 267.688,-108 271.98,-92.5865 273.365,-86.9589 267.688,-72 263.368,-60.617 255.36,-50.1118 247.163,-41.5078"/>
<ellipse fill="none" stroke="#d741b6" cx="250.211" cy="-142.529" rx="4.00002" ry="4.00002"/>
<polygon fill="#d741b6" stroke="#d741b6" points="247.128,-41.4739 243.154,-31.2535 243.563,-37.9679 239.998,-34.4619 239.998,-34.4619 239.998,-34.4619 243.563,-37.9679 236.843,-37.6703 247.128,-41.4739 247.128,-41.4739"/>
</g>
<!-- User&#45;&gt;Message -->
<g id="edge19" class="edge"><title>User&#45;&gt;Message</title>
<path fill="none" stroke="#2d0d95" d="M362.325,-67.2961C356.157,-59.5862 349.18,-50.8651 342.869,-42.9761"/>
<ellipse fill="none" stroke="#2d0d95" cx="365.038" cy="-70.6876" rx="4.00002" ry="4.00002"/>
<polygon fill="#2d0d95" stroke="#2d0d95" points="342.842,-42.9423 340.109,-32.3224 339.718,-39.0379 336.595,-35.1336 336.595,-35.1336 336.595,-35.1336 339.718,-39.0379 333.081,-37.9447 342.842,-42.9423 342.842,-42.9423"/>
</g>
<!-- User&#45;&gt;Notification -->
<g id="edge18" class="edge"><title>User&#45;&gt;Notification</title>
<path fill="none" stroke="#066f91" d="M410.111,-76.9681C438.806,-65.6198 482.086,-48.5033 514.186,-35.8087"/>
<ellipse fill="none" stroke="#066f91" cx="406.185" cy="-78.5209" rx="4.00001" ry="4.00001"/>
<polygon fill="#066f91" stroke="#066f91" points="514.461,-35.6999 525.415,-36.2069 519.11,-33.8611 523.76,-32.0222 523.76,-32.0222 523.76,-32.0222 519.11,-33.8611 522.105,-27.8376 514.461,-35.6999 514.461,-35.6999"/>
</g>
<!-- User&#45;&gt;UserProject -->
<g id="edge17" class="edge"><title>User&#45;&gt;UserProject</title>
<path fill="none" stroke="#310ed1" d="M396.665,-67.3922C402.568,-59.8791 409.233,-51.3964 415.316,-43.6555"/>
<ellipse fill="none" stroke="#310ed1" cx="394.093" cy="-70.6658" rx="4.00002" ry="4.00002"/>
<polygon fill="#310ed1" stroke="#310ed1" points="415.445,-43.4911 425.161,-38.4081 418.534,-39.5595 421.623,-35.6278 421.623,-35.6278 421.623,-35.6278 418.534,-39.5595 418.085,-32.8476 415.445,-43.4911 415.445,-43.4911"/>
</g>
<!-- User&#45;&gt;UserSkill -->
<g id="edge16" class="edge"><title>User&#45;&gt;UserSkill</title>
<path fill="none" stroke="#f9d47d" d="M350.232,-76.0322C324.465,-64.688 286.876,-48.1396 258.818,-35.787"/>
<ellipse fill="none" stroke="#f9d47d" cx="353.919" cy="-77.655" rx="4.00002" ry="4.00002"/>
<polygon fill="#f9d47d" stroke="#f9d47d" points="258.478,-35.6375 251.139,-27.4896 253.902,-33.6228 249.326,-31.6081 249.326,-31.6081 249.326,-31.6081 253.902,-33.6228 247.513,-35.7266 258.478,-35.6375 258.478,-35.6375"/>
</g>
<!-- ActiveRecord::Base -->
<g id="node11" class="node"><title>ActiveRecord::Base</title>
<ellipse fill="none" stroke="black" cx="306.688" cy="-324.5" rx="81.1422" ry="18"/>
<text text-anchor="middle" x="306.688" y="-320.3" font-family="Times,serif" font-size="14.00">ActiveRecord::Base</text>
</g>
<!-- ActiveRecord::Base&#45;&gt;Category -->
<g id="edge2" class="edge"><title>ActiveRecord::Base&#45;&gt;Category</title>
<path fill="none" stroke="black" d="M292.998,-306.436C280.265,-290.564 261.418,-267.073 248.855,-251.413"/>
</g>
<!-- ActiveRecord::Base&#45;&gt;Message -->
<g id="edge3" class="edge"><title>ActiveRecord::Base&#45;&gt;Message</title>
<path fill="none" stroke="black" d="M269.329,-308.492C233.285,-293.256 182.367,-269.483 169.688,-252 122.304,-186.665 96.9527,-136.333 145.688,-72 181.373,-24.8944 217.248,-53.5179 273.688,-36 279.817,-34.0975 286.333,-31.9644 292.566,-29.869"/>
</g>
<!-- ActiveRecord::Base&#45;&gt;Notification -->
<g id="edge4" class="edge"><title>ActiveRecord::Base&#45;&gt;Notification</title>
<path fill="none" stroke="black" d="M353.911,-309.795C385.328,-298.614 425.641,-280.026 452.688,-252 515.287,-187.133 544.081,-78.1615 553.258,-36.1943"/>
</g>
<!-- ActiveRecord::Base&#45;&gt;Project -->
<g id="edge10" class="edge"><title>ActiveRecord::Base&#45;&gt;Project</title>
<path fill="none" stroke="black" d="M318.835,-306.436C330.205,-290.464 347.068,-266.775 358.215,-251.117"/>
</g>
<!-- ActiveRecord::Base&#45;&gt;ProjectSkill -->
<g id="edge11" class="edge"><title>ActiveRecord::Base&#45;&gt;ProjectSkill</title>
<path fill="none" stroke="black" d="M260.446,-309.686C232.875,-298.797 200.133,-280.581 183.688,-252 156.792,-205.256 182.833,-138.641 197.791,-107.827"/>
</g>
<!-- ActiveRecord::Base&#45;&gt;Skill -->
<g id="edge15" class="edge"><title>ActiveRecord::Base&#45;&gt;Skill</title>
<path fill="none" stroke="black" d="M306.724,-306.12C306.096,-283.996 302.695,-245.152 287.688,-216 279.428,-199.954 264.65,-185.608 252.954,-175.901"/>
</g>
<!-- ActiveRecord::Base&#45;&gt;User -->
<g id="edge20" class="edge"><title>ActiveRecord::Base&#45;&gt;User</title>
<path fill="none" stroke="black" d="M346.006,-308.635C370.277,-297.166 399.417,-278.699 413.688,-252 439.543,-203.626 407.49,-137.25 389.848,-107.086"/>
</g>
<!-- ActiveRecord::Base&#45;&gt;UserProject -->
<g id="edge21" class="edge"><title>ActiveRecord::Base&#45;&gt;UserProject</title>
<path fill="none" stroke="black" d="M353.835,-309.683C381.725,-298.826 414.805,-280.646 431.688,-252 473.282,-181.424 450.95,-76.712 439.799,-36.028"/>
</g>
<!-- ActiveRecord::Base&#45;&gt;UserSkill -->
<g id="edge22" class="edge"><title>ActiveRecord::Base&#45;&gt;UserSkill</title>
<path fill="none" stroke="black" d="M269.796,-308.383C222.615,-288.923 146.391,-257.006 141.688,-252 118.392,-227.204 121.553,-213.513 115.688,-180 107.4,-132.646 95.2936,-112.18 121.688,-72 136.138,-50.0026 162.878,-36.4667 184.929,-28.5854"/>
</g>
</g>
</svg>
