<?xml version="1.0" encoding="UTF-8" standalone="no"?>
<!DOCTYPE svg PUBLIC "-//W3C//DTD SVG 1.1//EN"
 "http://www.w3.org/Graphics/SVG/1.1/DTD/svg11.dtd">
<!-- Generated by graphviz version 2.38.0 (20140413.2041)
 -->
<!-- Title: models_diagram Pages: 1 -->
<svg width="686pt" height="441pt"
 viewBox="0.00 0.00 686.25 441.00" xmlns="http://www.w3.org/2000/svg" xmlns:xlink="http://www.w3.org/1999/xlink">
<g id="graph0" class="graph" transform="scale(1 1) rotate(0) translate(4 437)">
<title>models_diagram</title>
<polygon fill="white" stroke="none" points="-4,4 -4,-437 682.253,-437 682.253,4 -4,4"/>
<!-- _diagram_info -->
<g id="node1" class="node"><title>_diagram_info</title>
<text text-anchor="start" x="8" y="-418.6" font-family="Times,serif" font-size="13.00">Models diagram</text>
<text text-anchor="start" x="8" y="-405.6" font-family="Times,serif" font-size="13.00">Date: Aug 08 2014 &#45; 20:14</text>
<text text-anchor="start" x="8" y="-392.6" font-family="Times,serif" font-size="13.00">Migration version: 20140809000201</text>
<text text-anchor="start" x="8" y="-379.6" font-family="Times,serif" font-size="13.00">Generated by RailRoady 1.1.1</text>
<text text-anchor="start" x="8" y="-366.6" font-family="Times,serif" font-size="13.00">http://railroady.prestonlee.com</text>
</g>
<!-- Category -->
<g id="node2" class="node"><title>Category</title>
<ellipse fill="none" stroke="black" cx="165.688" cy="-306" rx="42.5456" ry="18"/>
<text text-anchor="middle" x="165.688" y="-301.8" font-family="Times,serif" font-size="14.00">Category</text>
</g>
<!-- Skill -->
<g id="node7" class="node"><title>Skill</title>
<ellipse fill="none" stroke="black" cx="152.688" cy="-234" rx="27" ry="18"/>
<text text-anchor="middle" x="152.688" y="-229.8" font-family="Times,serif" font-size="14.00">Skill</text>
</g>
<!-- Category&#45;&gt;Skill -->
<g id="edge1" class="edge"><title>Category&#45;&gt;Skill</title>
<path fill="none" stroke="#f89848" d="M160.978,-279.64C159.916,-273.92 158.784,-267.828 157.71,-262.042"/>
<ellipse fill="none" stroke="#f89848" cx="161.744" cy="-283.764" rx="4.00001" ry="4.00001"/>
<polygon fill="#f89848" stroke="#f89848" points="157.69,-261.936 160.289,-251.283 156.777,-257.02 155.864,-252.104 155.864,-252.104 155.864,-252.104 156.777,-257.02 151.44,-252.926 157.69,-261.936 157.69,-261.936"/>
</g>
<!-- Message -->
<g id="node3" class="node"><title>Message</title>
<ellipse fill="none" stroke="black" cx="296.688" cy="-90" rx="41.1007" ry="18"/>
<text text-anchor="middle" x="296.688" y="-85.8" font-family="Times,serif" font-size="14.00">Message</text>
</g>
<!-- Notification -->
<g id="node4" class="node"><title>Notification</title>
<ellipse fill="none" stroke="black" cx="529.688" cy="-90" rx="52.2106" ry="18"/>
<text text-anchor="middle" x="529.688" y="-85.8" font-family="Times,serif" font-size="14.00">Notification</text>
</g>
<!-- Project -->
<g id="node5" class="node"><title>Project</title>
<ellipse fill="none" stroke="black" cx="337.688" cy="-306" rx="35.3129" ry="18"/>
<text text-anchor="middle" x="337.688" y="-301.8" font-family="Times,serif" font-size="14.00">Project</text>
</g>
<!-- Project&#45;&gt;Message -->
<g id="edge7" class="edge"><title>Project&#45;&gt;Message</title>
<path fill="none" stroke="#579e75" d="M332.887,-279.945C325.135,-239.483 309.921,-160.072 301.908,-118.249"/>
<ellipse fill="none" stroke="#579e75" cx="333.649" cy="-283.921" rx="4.00001" ry="4.00001"/>
<polygon fill="#579e75" stroke="#579e75" points="301.871,-118.054 304.409,-107.386 300.93,-113.143 299.989,-108.232 299.989,-108.232 299.989,-108.232 300.93,-113.143 295.57,-109.079 301.871,-118.054 301.871,-118.054"/>
</g>
<!-- ProjectSkill -->
<g id="node6" class="node"><title>ProjectSkill</title>
<ellipse fill="none" stroke="black" cx="127.688" cy="-162" rx="51.7346" ry="18"/>
<text text-anchor="middle" x="127.688" y="-157.8" font-family="Times,serif" font-size="14.00">ProjectSkill</text>
</g>
<!-- Project&#45;&gt;ProjectSkill -->
<g id="edge8" class="edge"><title>Project&#45;&gt;ProjectSkill</title>
<path fill="none" stroke="#132bab" d="M303.441,-290.464C282.087,-280.781 254.44,-267.094 231.688,-252 227.502,-249.223 183.468,-211.281 154.055,-185.843"/>
<ellipse fill="none" stroke="#132bab" cx="307.351" cy="-292.212" rx="4.00002" ry="4.00002"/>
<polygon fill="#132bab" stroke="#132bab" points="153.755,-185.583 149.137,-175.636 149.974,-182.311 146.193,-179.039 146.193,-179.039 146.193,-179.039 149.974,-182.311 143.248,-182.442 153.755,-185.583 153.755,-185.583"/>
</g>
<!-- Project&#45;&gt;Skill -->
<g id="edge9" class="edge"><title>Project&#45;&gt;Skill</title>
<path fill="none" stroke="#8dad46" d="M299.914,-291.569C270.776,-281.094 229.529,-266.02 193.688,-252 190.768,-250.858 187.741,-249.649 184.714,-248.424"/>
<polygon fill="#8dad46" stroke="#8dad46" points="300.274,-291.698 308.168,-299.309 304.98,-293.385 309.687,-295.073 309.687,-295.073 309.687,-295.073 304.98,-293.385 311.206,-290.837 300.274,-291.698 300.274,-291.698"/>
<polygon fill="#8dad46" stroke="#8dad46" points="184.431,-248.309 176.885,-240.353 179.805,-246.413 175.178,-244.517 175.178,-244.517 175.178,-244.517 179.805,-246.413 173.472,-248.681 184.431,-248.309 184.431,-248.309"/>
</g>
<!-- User -->
<g id="node8" class="node"><title>User</title>
<ellipse fill="none" stroke="black" cx="376.688" cy="-162" rx="27" ry="18"/>
<text text-anchor="middle" x="376.688" y="-157.8" font-family="Times,serif" font-size="14.00">User</text>
</g>
<!-- Project&#45;&gt;User -->
<g id="edge6" class="edge"><title>Project&#45;&gt;User</title>
<path fill="none" stroke="#926a21" d="M345.018,-278.309C351.998,-252.897 362.442,-214.87 369.405,-189.517"/>
<polygon fill="#926a21" stroke="#926a21" points="344.963,-278.51 337.975,-286.961 343.639,-283.332 342.315,-288.153 342.315,-288.153 342.315,-288.153 343.639,-283.332 346.654,-289.345 344.963,-278.51 344.963,-278.51"/>
<polygon fill="#926a21" stroke="#926a21" points="369.418,-189.468 376.406,-181.017 370.743,-184.646 372.067,-179.825 372.067,-179.825 372.067,-179.825 370.743,-184.646 367.727,-178.633 369.418,-189.468 369.418,-189.468"/>
</g>
<!-- UserProject -->
<g id="node9" class="node"><title>UserProject</title>
<ellipse fill="none" stroke="black" cx="407.688" cy="-90" rx="51.7088" ry="18"/>
<text text-anchor="middle" x="407.688" y="-85.8" font-family="Times,serif" font-size="14.00">UserProject</text>
</g>
<!-- Project&#45;&gt;UserProject -->
<g id="edge5" class="edge"><title>Project&#45;&gt;UserProject</title>
<path fill="none" stroke="#4a5b8c" d="M356.58,-282.428C375.099,-258.681 402.047,-219.358 412.688,-180 418.165,-159.739 416.436,-135.967 413.598,-118.09"/>
<ellipse fill="none" stroke="#4a5b8c" cx="353.855" cy="-285.858" rx="4.00002" ry="4.00002"/>
<polygon fill="#4a5b8c" stroke="#4a5b8c" points="413.565,-117.904 416.223,-107.265 412.68,-112.983 411.794,-108.062 411.794,-108.062 411.794,-108.062 412.68,-112.983 407.365,-108.858 413.565,-117.904 413.565,-117.904"/>
</g>
<!-- UserSkill -->
<g id="node10" class="node"><title>UserSkill</title>
<ellipse fill="none" stroke="black" cx="193.688" cy="-90" rx="43.5319" ry="18"/>
<text text-anchor="middle" x="193.688" y="-85.8" font-family="Times,serif" font-size="14.00">UserSkill</text>
</g>
<!-- Project&#45;&gt;UserSkill -->
<g id="edge11" class="edge"><title>Project&#45;&gt;UserSkill</title>
<path fill="none" stroke="#498cee" d="M320.951,-280.127C293.238,-238.942 238.133,-157.05 210.422,-115.868"/>
<polygon fill="#498cee" stroke="#498cee" points="321.045,-280.267 322.894,-291.075 323.836,-284.415 326.627,-288.563 326.627,-288.563 326.627,-288.563 323.836,-284.415 330.361,-286.051 321.045,-280.267 321.045,-280.267"/>
<polygon fill="#498cee" stroke="#498cee" points="210.369,-115.789 208.519,-104.981 207.577,-111.641 204.786,-107.493 204.786,-107.493 204.786,-107.493 207.577,-111.641 201.052,-110.005 210.369,-115.789 210.369,-115.789"/>
</g>
<!-- UserSkillProject -->
<g id="node11" class="node"><title>UserSkillProject</title>
<ellipse fill="none" stroke="black" cx="609.688" cy="-18" rx="68.6305" ry="18"/>
<text text-anchor="middle" x="609.688" y="-13.8" font-family="Times,serif" font-size="14.00">UserSkillProject</text>
</g>
<!-- Project&#45;&gt;UserSkillProject -->
<g id="edge10" class="edge"><title>Project&#45;&gt;UserSkillProject</title>
<path fill="none" stroke="#f49133" d="M369.863,-289.524C424.544,-261.461 535.071,-196.755 590.688,-108 602.329,-89.4217 606.933,-64.8342 608.708,-46.2107"/>
<ellipse fill="none" stroke="#f49133" cx="366.097" cy="-291.432" rx="4.00002" ry="4.00002"/>
<polygon fill="#f49133" stroke="#f49133" points="608.723,-45.9982 613.946,-36.3557 609.09,-41.0117 609.458,-36.0252 609.458,-36.0252 609.458,-36.0252 609.09,-41.0117 604.97,-35.6947 608.723,-45.9982 608.723,-45.9982"/>
</g>
<!-- Skill&#45;&gt;ProjectSkill -->
<g id="edge16" class="edge"><title>Skill&#45;&gt;ProjectSkill</title>
<path fill="none" stroke="#f77dcb" d="M144.037,-208.778C141.811,-202.544 139.404,-195.805 137.139,-189.463"/>
<ellipse fill="none" stroke="#f77dcb" cx="145.418" cy="-212.644" rx="4.00001" ry="4.00001"/>
<polygon fill="#f77dcb" stroke="#f77dcb" points="137.107,-189.374 137.981,-178.443 135.425,-184.665 133.744,-179.956 133.744,-179.956 133.744,-179.956 135.425,-184.665 129.506,-181.47 137.107,-189.374 137.107,-189.374"/>
</g>
<!-- Skill&#45;&gt;User -->
<g id="edge15" class="edge"><title>Skill&#45;&gt;User</title>
<path fill="none" stroke="#e7798c" d="M186.391,-222.468C228.665,-209.257 300.717,-186.741 342.988,-173.531"/>
<polygon fill="#e7798c" stroke="#e7798c" points="186.204,-222.526 175.317,-221.214 181.432,-224.017 176.66,-225.509 176.66,-225.509 176.66,-225.509 181.432,-224.017 178.002,-229.804 186.204,-222.526 186.204,-222.526"/>
<polygon fill="#e7798c" stroke="#e7798c" points="343.005,-173.526 353.892,-174.838 347.777,-172.035 352.55,-170.543 352.55,-170.543 352.55,-170.543 347.777,-172.035 351.207,-166.248 343.005,-173.526 343.005,-173.526"/>
</g>
<!-- Skill&#45;&gt;UserSkill -->
<g id="edge14" class="edge"><title>Skill&#45;&gt;UserSkill</title>
<path fill="none" stroke="#145e29" d="M171.241,-211.438C177.985,-202.337 184.879,-191.251 188.688,-180 195.417,-160.12 196.42,-136.325 195.875,-118.343"/>
<ellipse fill="none" stroke="#145e29" cx="168.618" cy="-214.82" rx="4.00002" ry="4.00002"/>
<polygon fill="#145e29" stroke="#145e29" points="195.869,-118.231 199.885,-108.027 195.63,-113.237 195.39,-108.243 195.39,-108.243 195.39,-108.243 195.63,-113.237 190.895,-108.459 195.869,-118.231 195.869,-118.231"/>
</g>
<!-- User&#45;&gt;Message -->
<g id="edge21" class="edge"><title>User&#45;&gt;Message</title>
<path fill="none" stroke="#9ec70a" d="M354.574,-141.65C344.488,-132.825 332.491,-122.328 322.042,-113.185"/>
<ellipse fill="none" stroke="#9ec70a" cx="357.872" cy="-144.536" rx="4.00002" ry="4.00002"/>
<polygon fill="#9ec70a" stroke="#9ec70a" points="321.936,-113.092 317.373,-103.12 318.173,-109.799 314.41,-106.507 314.41,-106.507 314.41,-106.507 318.173,-109.799 311.446,-109.893 321.936,-113.092 321.936,-113.092"/>
</g>
<!-- User&#45;&gt;Notification -->
<g id="edge20" class="edge"><title>User&#45;&gt;Notification</title>
<path fill="none" stroke="#43e4e9" d="M405.835,-147.665C429.743,-136.727 463.821,-121.135 490.181,-109.075"/>
<ellipse fill="none" stroke="#43e4e9" cx="401.922" cy="-149.455" rx="4.00002" ry="4.00002"/>
<polygon fill="#43e4e9" stroke="#43e4e9" points="490.417,-108.967 501.383,-108.899 494.964,-106.887 499.511,-104.807 499.511,-104.807 499.511,-104.807 494.964,-106.887 497.638,-100.715 490.417,-108.967 490.417,-108.967"/>
</g>
<!-- User&#45;&gt;UserProject -->
<g id="edge19" class="edge"><title>User&#45;&gt;UserProject</title>
<path fill="none" stroke="#51eab2" d="M387.289,-137.062C390.136,-130.632 393.23,-123.647 396.127,-117.106"/>
<ellipse fill="none" stroke="#51eab2" cx="385.654" cy="-140.754" rx="4.00002" ry="4.00002"/>
<polygon fill="#51eab2" stroke="#51eab2" points="396.129,-117.1 404.293,-109.778 398.154,-112.528 400.179,-107.956 400.179,-107.956 400.179,-107.956 398.154,-112.528 396.064,-106.134 396.129,-117.1 396.129,-117.1"/>
</g>
<!-- User&#45;&gt;UserSkill -->
<g id="edge18" class="edge"><title>User&#45;&gt;UserSkill</title>
<path fill="none" stroke="#d4dc97" d="M346.172,-149.327C315.435,-137.57 267.844,-119.366 234.012,-106.425"/>
<ellipse fill="none" stroke="#d4dc97" cx="350.145" cy="-150.847" rx="4.00001" ry="4.00001"/>
<polygon fill="#d4dc97" stroke="#d4dc97" points="233.765,-106.33 226.033,-98.5544 229.095,-104.544 224.425,-102.757 224.425,-102.757 224.425,-102.757 229.095,-104.544 222.817,-106.96 233.765,-106.33 233.765,-106.33"/>
</g>
<!-- UserSkill&#45;&gt;UserSkillProject -->
<g id="edge24" class="edge"><title>UserSkill&#45;&gt;UserSkillProject</title>
<path fill="none" stroke="#46f611" d="M233.717,-75.3916C238.067,-74.1433 242.452,-72.9815 246.688,-72 345.797,-49.0362 462.554,-34.0949 536.348,-26.1052"/>
<ellipse fill="none" stroke="#46f611" cx="229.796" cy="-76.5648" rx="4.00001" ry="4.00001"/>
<polygon fill="#46f611" stroke="#46f611" points="536.526,-26.0862 546.948,-29.4983 541.498,-25.555 546.47,-25.0238 546.47,-25.0238 546.47,-25.0238 541.498,-25.555 545.992,-20.5493 536.526,-26.0862 536.526,-26.0862"/>
</g>
<!-- ActiveRecord::Base -->
<g id="node12" class="node"><title>ActiveRecord::Base</title>
<ellipse fill="none" stroke="black" cx="306.688" cy="-396.5" rx="81.1422" ry="18"/>
<text text-anchor="middle" x="306.688" y="-392.3" font-family="Times,serif" font-size="14.00">ActiveRecord::Base</text>
</g>
<!-- ActiveRecord::Base&#45;&gt;Category -->
<g id="edge2" class="edge"><title>ActiveRecord::Base&#45;&gt;Category</title>
<path fill="none" stroke="black" d="M280.826,-379.268C254.431,-362.701 213.855,-337.233 188.587,-321.373"/>
</g>
<!-- ActiveRecord::Base&#45;&gt;Message -->
<g id="edge3" class="edge"><title>ActiveRecord::Base&#45;&gt;Message</title>
<path fill="none" stroke="black" d="M302.658,-378.281C299.503,-363.873 295.376,-342.723 293.688,-324 286.422,-243.417 292.34,-146.533 295.277,-108.002"/>
</g>
<!-- ActiveRecord::Base&#45;&gt;Notification -->
<g id="edge4" class="edge"><title>ActiveRecord::Base&#45;&gt;Notification</title>
<path fill="none" stroke="black" d="M342.499,-380.3C367.637,-368.133 400.581,-348.979 422.688,-324 482.573,-256.332 514.765,-149.471 525.528,-108.124"/>
</g>
<!-- ActiveRecord::Base&#45;&gt;Project -->
<g id="edge12" class="edge"><title>ActiveRecord::Base&#45;&gt;Project</title>
<path fill="none" stroke="black" d="M312.665,-378.436C318.154,-362.765 326.245,-339.666 331.729,-324.011"/>
</g>
<!-- ActiveRecord::Base&#45;&gt;ProjectSkill -->
<g id="edge13" class="edge"><title>ActiveRecord::Base&#45;&gt;ProjectSkill</title>
<path fill="none" stroke="black" d="M269.156,-380.314C253.058,-373.899 234.006,-366.439 216.688,-360 171.235,-343.1 141.757,-363.544 113.688,-324 82.5074,-280.072 105.973,-211.473 119.654,-179.92"/>
</g>
<!-- ActiveRecord::Base&#45;&gt;Skill -->
<g id="edge17" class="edge"><title>ActiveRecord::Base&#45;&gt;Skill</title>
<path fill="none" stroke="black" d="M294.353,-378.619C277.972,-356.688 247.61,-317.699 217.688,-288 202.703,-273.127 183.84,-258.099 170.3,-247.863"/>
</g>
<!-- ActiveRecord::Base&#45;&gt;User -->
<g id="edge22" class="edge"><title>ActiveRecord::Base&#45;&gt;User</title>
<path fill="none" stroke="black" d="M332.449,-379.294C349.964,-366.639 371.702,-347.317 381.688,-324 402.606,-275.158 389.719,-210.13 381.684,-179.847"/>
</g>
<!-- ActiveRecord::Base&#45;&gt;UserProject -->
<g id="edge23" class="edge"><title>ActiveRecord::Base&#45;&gt;UserProject</title>
<path fill="none" stroke="black" d="M337.433,-379.701C358.287,-367.362 384.695,-348.252 399.688,-324 442.261,-255.135 442.216,-223.648 427.688,-144 425.429,-131.616 420.429,-118.366 415.994,-108.212"/>
</g>
<!-- ActiveRecord::Base&#45;&gt;UserSkill -->
<g id="edge25" class="edge"><title>ActiveRecord::Base&#45;&gt;UserSkill</title>
<path fill="none" stroke="black" d="M270.167,-380.286C253.911,-373.725 234.463,-366.16 216.688,-360 164.076,-341.768 134.33,-365.03 96.6877,-324 41.859,-264.237 21.7185,-211.495 66.6877,-144 85.6973,-115.468 123.3,-102.27 152.679,-96.18"/>
</g>
<!-- ActiveRecord::Base&#45;&gt;UserSkillProject -->
<g id="edge26" class="edge"><title>ActiveRecord::Base&#45;&gt;UserSkillProject</title>
<path fill="none" stroke="black" d="M385.777,-392.013C486.512,-382.836 647.688,-350.159 647.688,-235 647.688,-235 647.688,-235 647.688,-161 647.688,-114.553 628.481,-62.3766 617.378,-36.0929"/>
</g>
</g>
</svg>
