<?xml version="1.0" encoding="UTF-8" standalone="no"?>
<!DOCTYPE svg PUBLIC "-//W3C//DTD SVG 1.1//EN"
 "http://www.w3.org/Graphics/SVG/1.1/DTD/svg11.dtd">
<!-- Generated by graphviz version 2.38.0 (20140413.2041)
 -->
<!-- Title: models_diagram Pages: 1 -->
<svg width="594pt" height="783pt"
 viewBox="0.00 0.00 594.10 783.00" xmlns="http://www.w3.org/2000/svg" xmlns:xlink="http://www.w3.org/1999/xlink">
<g id="graph0" class="graph" transform="scale(1 1) rotate(0) translate(4 779)">
<title>models_diagram</title>
<polygon fill="white" stroke="none" points="-4,4 -4,-779 590.097,-779 590.097,4 -4,4"/>
<!-- _diagram_info -->
<g id="node1" class="node"><title>_diagram_info</title>
<text text-anchor="start" x="8" y="-760.6" font-family="Times,serif" font-size="13.00">Models diagram</text>
<text text-anchor="start" x="8" y="-747.6" font-family="Times,serif" font-size="13.00">Date: Aug 05 2014 &#45; 21:17</text>
<text text-anchor="start" x="8" y="-734.6" font-family="Times,serif" font-size="13.00">Migration version: 20140806002536</text>
<text text-anchor="start" x="8" y="-721.6" font-family="Times,serif" font-size="13.00">Generated by RailRoady 1.1.1</text>
<text text-anchor="start" x="8" y="-708.6" font-family="Times,serif" font-size="13.00">http://railroady.prestonlee.com</text>
</g>
<!-- Category -->
<g id="node2" class="node"><title>Category</title>
<path fill="none" stroke="black" d="M385.182,-579.5C385.182,-579.5 494.193,-579.5 494.193,-579.5 500.193,-579.5 506.193,-585.5 506.193,-591.5 506.193,-591.5 506.193,-653.5 506.193,-653.5 506.193,-659.5 500.193,-665.5 494.193,-665.5 494.193,-665.5 385.182,-665.5 385.182,-665.5 379.182,-665.5 373.182,-659.5 373.182,-653.5 373.182,-653.5 373.182,-591.5 373.182,-591.5 373.182,-585.5 379.182,-579.5 385.182,-579.5"/>
<text text-anchor="middle" x="439.688" y="-650.3" font-family="Times,serif" font-size="14.00">Category</text>
<polyline fill="none" stroke="black" points="373.182,-643.5 506.193,-643.5 "/>
<text text-anchor="start" x="381.182" y="-628.3" font-family="Times,serif" font-size="14.00">id :integer</text>
<text text-anchor="start" x="381.182" y="-614.3" font-family="Times,serif" font-size="14.00">name :string</text>
<text text-anchor="start" x="381.182" y="-600.3" font-family="Times,serif" font-size="14.00">created_at :datetime</text>
<text text-anchor="start" x="381.182" y="-586.3" font-family="Times,serif" font-size="14.00">updated_at :datetime</text>
</g>
<!-- Skill -->
<g id="node5" class="node"><title>Skill</title>
<path fill="none" stroke="black" d="M366.182,-428.5C366.182,-428.5 475.193,-428.5 475.193,-428.5 481.193,-428.5 487.193,-434.5 487.193,-440.5 487.193,-440.5 487.193,-516.5 487.193,-516.5 487.193,-522.5 481.193,-528.5 475.193,-528.5 475.193,-528.5 366.182,-528.5 366.182,-528.5 360.182,-528.5 354.182,-522.5 354.182,-516.5 354.182,-516.5 354.182,-440.5 354.182,-440.5 354.182,-434.5 360.182,-428.5 366.182,-428.5"/>
<text text-anchor="middle" x="420.688" y="-513.3" font-family="Times,serif" font-size="14.00">Skill</text>
<polyline fill="none" stroke="black" points="354.182,-506.5 487.193,-506.5 "/>
<text text-anchor="start" x="362.182" y="-491.3" font-family="Times,serif" font-size="14.00">id :integer</text>
<text text-anchor="start" x="362.182" y="-477.3" font-family="Times,serif" font-size="14.00">name :string</text>
<text text-anchor="start" x="362.182" y="-463.3" font-family="Times,serif" font-size="14.00">created_at :datetime</text>
<text text-anchor="start" x="362.182" y="-449.3" font-family="Times,serif" font-size="14.00">updated_at :datetime</text>
<text text-anchor="start" x="362.182" y="-435.3" font-family="Times,serif" font-size="14.00">category_id :integer</text>
</g>
<!-- Category&#45;&gt;Skill -->
<g id="edge1" class="edge"><title>Category&#45;&gt;Skill</title>
<path fill="none" stroke="#3be6ce" d="M432.966,-571.263C431.559,-560.75 430.063,-549.57 428.617,-538.764"/>
<ellipse fill="none" stroke="#3be6ce" cx="433.508" cy="-575.315" rx="4.00001" ry="4.00001"/>
<polygon fill="#3be6ce" stroke="#3be6ce" points="428.577,-538.463 431.711,-527.954 427.914,-533.507 427.251,-528.551 427.251,-528.551 427.251,-528.551 427.914,-533.507 422.791,-529.148 428.577,-538.463 428.577,-538.463"/>
</g>
<!-- Notification -->
<g id="node3" class="node"><title>Notification</title>
<path fill="none" stroke="black" d="M280.182,-7.5C280.182,-7.5 389.193,-7.5 389.193,-7.5 395.193,-7.5 401.193,-13.5 401.193,-19.5 401.193,-19.5 401.193,-95.5 401.193,-95.5 401.193,-101.5 395.193,-107.5 389.193,-107.5 389.193,-107.5 280.182,-107.5 280.182,-107.5 274.182,-107.5 268.182,-101.5 268.182,-95.5 268.182,-95.5 268.182,-19.5 268.182,-19.5 268.182,-13.5 274.182,-7.5 280.182,-7.5"/>
<text text-anchor="middle" x="334.688" y="-92.3" font-family="Times,serif" font-size="14.00">Notification</text>
<polyline fill="none" stroke="black" points="268.182,-85.5 401.193,-85.5 "/>
<text text-anchor="start" x="276.182" y="-70.3" font-family="Times,serif" font-size="14.00">id :integer</text>
<text text-anchor="start" x="276.182" y="-56.3" font-family="Times,serif" font-size="14.00">user_id :integer</text>
<text text-anchor="start" x="276.182" y="-42.3" font-family="Times,serif" font-size="14.00">content :string</text>
<text text-anchor="start" x="276.182" y="-28.3" font-family="Times,serif" font-size="14.00">created_at :datetime</text>
<text text-anchor="start" x="276.182" y="-14.3" font-family="Times,serif" font-size="14.00">updated_at :datetime</text>
</g>
<!-- Project -->
<g id="node4" class="node"><title>Project</title>
<path fill="none" stroke="black" d="M119.182,-414.5C119.182,-414.5 228.193,-414.5 228.193,-414.5 234.193,-414.5 240.193,-420.5 240.193,-426.5 240.193,-426.5 240.193,-530.5 240.193,-530.5 240.193,-536.5 234.193,-542.5 228.193,-542.5 228.193,-542.5 119.182,-542.5 119.182,-542.5 113.182,-542.5 107.182,-536.5 107.182,-530.5 107.182,-530.5 107.182,-426.5 107.182,-426.5 107.182,-420.5 113.182,-414.5 119.182,-414.5"/>
<text text-anchor="middle" x="173.688" y="-527.3" font-family="Times,serif" font-size="14.00">Project</text>
<polyline fill="none" stroke="black" points="107.182,-520.5 240.193,-520.5 "/>
<text text-anchor="start" x="115.182" y="-505.3" font-family="Times,serif" font-size="14.00">id :integer</text>
<text text-anchor="start" x="115.182" y="-491.3" font-family="Times,serif" font-size="14.00">title :string</text>
<text text-anchor="start" x="115.182" y="-477.3" font-family="Times,serif" font-size="14.00">description :string</text>
<text text-anchor="start" x="115.182" y="-463.3" font-family="Times,serif" font-size="14.00">status :string</text>
<text text-anchor="start" x="115.182" y="-449.3" font-family="Times,serif" font-size="14.00">created_at :datetime</text>
<text text-anchor="start" x="115.182" y="-435.3" font-family="Times,serif" font-size="14.00">updated_at :datetime</text>
<text text-anchor="start" x="115.182" y="-421.3" font-family="Times,serif" font-size="14.00">admin_id :integer</text>
</g>
<!-- User -->
<g id="node6" class="node"><title>User</title>
<path fill="none" stroke="black" d="M292.41,-151.5C292.41,-151.5 472.966,-151.5 472.966,-151.5 478.966,-151.5 484.966,-157.5 484.966,-163.5 484.966,-163.5 484.966,-365.5 484.966,-365.5 484.966,-371.5 478.966,-377.5 472.966,-377.5 472.966,-377.5 292.41,-377.5 292.41,-377.5 286.41,-377.5 280.41,-371.5 280.41,-365.5 280.41,-365.5 280.41,-163.5 280.41,-163.5 280.41,-157.5 286.41,-151.5 292.41,-151.5"/>
<text text-anchor="middle" x="382.688" y="-362.3" font-family="Times,serif" font-size="14.00">User</text>
<polyline fill="none" stroke="black" points="280.41,-355.5 484.966,-355.5 "/>
<text text-anchor="start" x="288.41" y="-340.3" font-family="Times,serif" font-size="14.00">id :integer</text>
<text text-anchor="start" x="288.41" y="-326.3" font-family="Times,serif" font-size="14.00">email :string</text>
<text text-anchor="start" x="288.41" y="-312.3" font-family="Times,serif" font-size="14.00">encrypted_password :string</text>
<text text-anchor="start" x="288.41" y="-298.3" font-family="Times,serif" font-size="14.00">reset_password_token :string</text>
<text text-anchor="start" x="288.41" y="-284.3" font-family="Times,serif" font-size="14.00">reset_password_sent_at :datetime</text>
<text text-anchor="start" x="288.41" y="-270.3" font-family="Times,serif" font-size="14.00">remember_created_at :datetime</text>
<text text-anchor="start" x="288.41" y="-256.3" font-family="Times,serif" font-size="14.00">sign_in_count :integer</text>
<text text-anchor="start" x="288.41" y="-242.3" font-family="Times,serif" font-size="14.00">current_sign_in_at :datetime</text>
<text text-anchor="start" x="288.41" y="-228.3" font-family="Times,serif" font-size="14.00">last_sign_in_at :datetime</text>
<text text-anchor="start" x="288.41" y="-214.3" font-family="Times,serif" font-size="14.00">current_sign_in_ip :string</text>
<text text-anchor="start" x="288.41" y="-200.3" font-family="Times,serif" font-size="14.00">last_sign_in_ip :string</text>
<text text-anchor="start" x="288.41" y="-186.3" font-family="Times,serif" font-size="14.00">created_at :datetime</text>
<text text-anchor="start" x="288.41" y="-172.3" font-family="Times,serif" font-size="14.00">updated_at :datetime</text>
<text text-anchor="start" x="288.41" y="-158.3" font-family="Times,serif" font-size="14.00">name :string</text>
</g>
<!-- Project&#45;&gt;User -->
<g id="edge5" class="edge"><title>Project&#45;&gt;User</title>
<path fill="none" stroke="#3cd323" d="M243.127,-407.064C252.774,-397.278 262.872,-387.035 273.035,-376.726"/>
<polygon fill="#3cd323" stroke="#3cd323" points="242.849,-407.346 232.624,-411.308 239.339,-410.906 235.829,-414.467 235.829,-414.467 235.829,-414.467 239.339,-410.906 239.033,-417.626 242.849,-407.346 242.849,-407.346"/>
<polygon fill="#3cd323" stroke="#3cd323" points="273.057,-376.705 283.282,-372.743 276.567,-373.144 280.077,-369.583 280.077,-369.583 280.077,-369.583 276.567,-373.144 276.873,-366.424 273.057,-376.705 273.057,-376.705"/>
</g>
<!-- UserProject -->
<g id="node7" class="node"><title>UserProject</title>
<path fill="none" stroke="black" d="M119.182,-0.5C119.182,-0.5 228.193,-0.5 228.193,-0.5 234.193,-0.5 240.193,-6.5 240.193,-12.5 240.193,-12.5 240.193,-102.5 240.193,-102.5 240.193,-108.5 234.193,-114.5 228.193,-114.5 228.193,-114.5 119.182,-114.5 119.182,-114.5 113.182,-114.5 107.182,-108.5 107.182,-102.5 107.182,-102.5 107.182,-12.5 107.182,-12.5 107.182,-6.5 113.182,-0.5 119.182,-0.5"/>
<text text-anchor="middle" x="173.688" y="-99.3" font-family="Times,serif" font-size="14.00">UserProject</text>
<polyline fill="none" stroke="black" points="107.182,-92.5 240.193,-92.5 "/>
<text text-anchor="start" x="115.182" y="-77.3" font-family="Times,serif" font-size="14.00">id :integer</text>
<text text-anchor="start" x="115.182" y="-63.3" font-family="Times,serif" font-size="14.00">user_id :integer</text>
<text text-anchor="start" x="115.182" y="-49.3" font-family="Times,serif" font-size="14.00">project_id :integer</text>
<text text-anchor="start" x="115.182" y="-35.3" font-family="Times,serif" font-size="14.00">approved :boolean</text>
<text text-anchor="start" x="115.182" y="-21.3" font-family="Times,serif" font-size="14.00">created_at :datetime</text>
<text text-anchor="start" x="115.182" y="-7.3" font-family="Times,serif" font-size="14.00">updated_at :datetime</text>
</g>
<!-- Project&#45;&gt;UserProject -->
<g id="edge4" class="edge"><title>Project&#45;&gt;UserProject</title>
<path fill="none" stroke="#47e37b" d="M173.688,-406.021C173.688,-327.225 173.688,-201.497 173.688,-124.823"/>
<ellipse fill="none" stroke="#47e37b" cx="173.688" cy="-410.318" rx="4" ry="4"/>
<polygon fill="#47e37b" stroke="#47e37b" points="173.688,-124.801 178.188,-114.801 173.688,-119.801 173.688,-114.801 173.688,-114.801 173.688,-114.801 173.688,-119.801 169.188,-114.801 173.688,-124.801 173.688,-124.801"/>
</g>
<!-- Skill&#45;&gt;User -->
<g id="edge8" class="edge"><title>Skill&#45;&gt;User</title>
<path fill="none" stroke="#250e0c" d="M410.09,-418.374C408.359,-408.72 406.512,-398.416 404.626,-387.891"/>
<polygon fill="#250e0c" stroke="#250e0c" points="410.11,-418.487 407.445,-429.124 410.992,-423.409 411.874,-428.33 411.874,-428.33 411.874,-428.33 410.992,-423.409 416.304,-427.536 410.11,-418.487 410.11,-418.487"/>
<polygon fill="#250e0c" stroke="#250e0c" points="404.572,-387.59 407.237,-376.953 403.69,-382.668 402.807,-377.747 402.807,-377.747 402.807,-377.747 403.69,-382.668 398.378,-378.541 404.572,-387.59 404.572,-387.59"/>
</g>
<!-- UserSkill -->
<g id="node8" class="node"><title>UserSkill</title>
<path fill="none" stroke="black" d="M458.182,-7.5C458.182,-7.5 567.193,-7.5 567.193,-7.5 573.193,-7.5 579.193,-13.5 579.193,-19.5 579.193,-19.5 579.193,-95.5 579.193,-95.5 579.193,-101.5 573.193,-107.5 567.193,-107.5 567.193,-107.5 458.182,-107.5 458.182,-107.5 452.182,-107.5 446.182,-101.5 446.182,-95.5 446.182,-95.5 446.182,-19.5 446.182,-19.5 446.182,-13.5 452.182,-7.5 458.182,-7.5"/>
<text text-anchor="middle" x="512.688" y="-92.3" font-family="Times,serif" font-size="14.00">UserSkill</text>
<polyline fill="none" stroke="black" points="446.182,-85.5 579.193,-85.5 "/>
<text text-anchor="start" x="454.182" y="-70.3" font-family="Times,serif" font-size="14.00">id :integer</text>
<text text-anchor="start" x="454.182" y="-56.3" font-family="Times,serif" font-size="14.00">user_id :integer</text>
<text text-anchor="start" x="454.182" y="-42.3" font-family="Times,serif" font-size="14.00">skill_id :integer</text>
<text text-anchor="start" x="454.182" y="-28.3" font-family="Times,serif" font-size="14.00">created_at :datetime</text>
<text text-anchor="start" x="454.182" y="-14.3" font-family="Times,serif" font-size="14.00">updated_at :datetime</text>
</g>
<!-- Skill&#45;&gt;UserSkill -->
<g id="edge7" class="edge"><title>Skill&#45;&gt;UserSkill</title>
<path fill="none" stroke="#7cb742" d="M469.992,-421.848C479.472,-408.33 488.159,-393.328 493.688,-378 524.873,-291.544 523.692,-183.433 518.951,-117.74"/>
<ellipse fill="none" stroke="#7cb742" cx="467.628" cy="-425.118" rx="4.00002" ry="4.00002"/>
<polygon fill="#7cb742" stroke="#7cb742" points="518.935,-117.541 522.65,-107.223 518.549,-112.556 518.163,-107.571 518.163,-107.571 518.163,-107.571 518.549,-112.556 513.677,-107.918 518.935,-117.541 518.935,-117.541"/>
</g>
<!-- User&#45;&gt;Notification -->
<g id="edge12" class="edge"><title>User&#45;&gt;Notification</title>
<path fill="none" stroke="#e79fc6" d="M354.598,-143.531C352.504,-134.588 350.452,-125.828 348.51,-117.534"/>
<ellipse fill="none" stroke="#e79fc6" cx="355.529" cy="-147.508" rx="4.00001" ry="4.00001"/>
<polygon fill="#e79fc6" stroke="#e79fc6" points="348.48,-117.404 350.582,-106.642 347.34,-112.536 346.2,-107.668 346.2,-107.668 346.2,-107.668 347.34,-112.536 341.819,-108.694 348.48,-117.404 348.48,-117.404"/>
</g>
<!-- User&#45;&gt;UserProject -->
<g id="edge11" class="edge"><title>User&#45;&gt;UserProject</title>
<path fill="none" stroke="#25adc9" d="M274.367,-157.253C262.089,-145.209 249.881,-133.235 238.422,-121.995"/>
<ellipse fill="none" stroke="#25adc9" cx="277.475" cy="-160.301" rx="4.00002" ry="4.00002"/>
<polygon fill="#25adc9" stroke="#25adc9" points="238.146,-121.725 234.158,-111.51 234.577,-118.224 231.007,-114.723 231.007,-114.723 231.007,-114.723 234.577,-118.224 227.856,-117.935 238.146,-121.725 238.146,-121.725"/>
</g>
<!-- User&#45;&gt;UserSkill -->
<g id="edge10" class="edge"><title>User&#45;&gt;UserSkill</title>
<path fill="none" stroke="#d0cf3a" d="M458.088,-144.6C464.313,-134.782 470.409,-125.171 476.137,-116.138"/>
<ellipse fill="none" stroke="#d0cf3a" cx="455.916" cy="-148.025" rx="4.00002" ry="4.00002"/>
<polygon fill="#d0cf3a" stroke="#d0cf3a" points="476.153,-116.113 485.308,-110.078 478.83,-111.89 481.508,-107.668 481.508,-107.668 481.508,-107.668 478.83,-111.89 477.708,-105.258 476.153,-116.113 476.153,-116.113"/>
</g>
<!-- ActiveRecord::Base -->
<g id="node9" class="node"><title>ActiveRecord::Base</title>
<ellipse fill="none" stroke="black" cx="306.688" cy="-738.5" rx="81.1422" ry="18"/>
<text text-anchor="middle" x="306.688" y="-734.3" font-family="Times,serif" font-size="14.00">ActiveRecord::Base</text>
</g>
<!-- ActiveRecord::Base&#45;&gt;Category -->
<g id="edge2" class="edge"><title>ActiveRecord::Base&#45;&gt;Category</title>
<path fill="none" stroke="black" d="M326.027,-720.923C342.886,-706.473 368.076,-684.882 390.46,-665.695"/>
</g>
<!-- ActiveRecord::Base&#45;&gt;Notification -->
<g id="edge3" class="edge"><title>ActiveRecord::Base&#45;&gt;Notification</title>
<path fill="none" stroke="black" d="M304.045,-720.328C291.245,-635.561 237.664,-261.396 271.688,-151 276.38,-135.774 284.53,-120.812 293.442,-107.506"/>
</g>
<!-- ActiveRecord::Base&#45;&gt;Project -->
<g id="edge6" class="edge"><title>ActiveRecord::Base&#45;&gt;Project</title>
<path fill="none" stroke="black" d="M292.751,-720.591C281.579,-706.538 265.961,-685.722 254.688,-666 232.178,-626.618 211.857,-579.782 197.2,-542.898"/>
</g>
<!-- ActiveRecord::Base&#45;&gt;Skill -->
<g id="edge9" class="edge"><title>ActiveRecord::Base&#45;&gt;Skill</title>
<path fill="none" stroke="black" d="M311.737,-720.456C320.7,-690.994 340.634,-628.909 363.688,-579 371.452,-562.192 381.097,-544.465 390.232,-528.704"/>
</g>
<!-- ActiveRecord::Base&#45;&gt;User -->
<g id="edge13" class="edge"><title>ActiveRecord::Base&#45;&gt;User</title>
<path fill="none" stroke="black" d="M307.902,-720.194C311.488,-671.606 323.147,-529.921 344.688,-414 346.876,-402.226 349.468,-390.003 352.256,-377.852"/>
</g>
<!-- ActiveRecord::Base&#45;&gt;UserProject -->
<g id="edge14" class="edge"><title>ActiveRecord::Base&#45;&gt;UserProject</title>
<path fill="none" stroke="black" d="M276.615,-721.566C227.243,-693.378 131.146,-629.439 97.6877,-543 40.5985,-395.51 106.368,-206.976 146.763,-114.61"/>
</g>
<!-- ActiveRecord::Base&#45;&gt;UserSkill -->
<g id="edge15" class="edge"><title>ActiveRecord::Base&#45;&gt;UserSkill</title>
<path fill="none" stroke="black" d="M383.498,-732.527C429.806,-725.122 485.5,-707.468 515.688,-666 640.147,-495.037 567.812,-219.227 530.599,-107.672"/>
</g>
</g>
</svg>
