<?xml version="1.0" encoding="UTF-8" standalone="no"?>
<!DOCTYPE svg PUBLIC "-//W3C//DTD SVG 1.1//EN"
 "http://www.w3.org/Graphics/SVG/1.1/DTD/svg11.dtd">
<!-- Generated by graphviz version 2.38.0 (20140413.2041)
 -->
<!-- Title: models_diagram Pages: 1 -->
<svg width="708pt" height="811pt"
 viewBox="0.00 0.00 708.19 811.00" xmlns="http://www.w3.org/2000/svg" xmlns:xlink="http://www.w3.org/1999/xlink">
<g id="graph0" class="graph" transform="scale(1 1) rotate(0) translate(4 807)">
<title>models_diagram</title>
<polygon fill="white" stroke="none" points="-4,4 -4,-807 704.193,-807 704.193,4 -4,4"/>
<!-- _diagram_info -->
<g id="node1" class="node"><title>_diagram_info</title>
<text text-anchor="start" x="8" y="-788.6" font-family="Times,serif" font-size="13.00">Models diagram</text>
<text text-anchor="start" x="8" y="-775.6" font-family="Times,serif" font-size="13.00">Date: Aug 08 2014 &#45; 11:02</text>
<text text-anchor="start" x="8" y="-762.6" font-family="Times,serif" font-size="13.00">Migration version: 20140807212824</text>
<text text-anchor="start" x="8" y="-749.6" font-family="Times,serif" font-size="13.00">Generated by RailRoady 1.1.1</text>
<text text-anchor="start" x="8" y="-736.6" font-family="Times,serif" font-size="13.00">http://railroady.prestonlee.com</text>
</g>
<!-- Category -->
<g id="node2" class="node"><title>Category</title>
<path fill="none" stroke="black" d="M157.182,-586.5C157.182,-586.5 266.193,-586.5 266.193,-586.5 272.193,-586.5 278.193,-592.5 278.193,-598.5 278.193,-598.5 278.193,-660.5 278.193,-660.5 278.193,-666.5 272.193,-672.5 266.193,-672.5 266.193,-672.5 157.182,-672.5 157.182,-672.5 151.182,-672.5 145.182,-666.5 145.182,-660.5 145.182,-660.5 145.182,-598.5 145.182,-598.5 145.182,-592.5 151.182,-586.5 157.182,-586.5"/>
<text text-anchor="middle" x="211.688" y="-657.3" font-family="Times,serif" font-size="14.00">Category</text>
<polyline fill="none" stroke="black" points="145.182,-650.5 278.193,-650.5 "/>
<text text-anchor="start" x="153.182" y="-635.3" font-family="Times,serif" font-size="14.00">id :integer</text>
<text text-anchor="start" x="153.182" y="-621.3" font-family="Times,serif" font-size="14.00">name :string</text>
<text text-anchor="start" x="153.182" y="-607.3" font-family="Times,serif" font-size="14.00">created_at :datetime</text>
<text text-anchor="start" x="153.182" y="-593.3" font-family="Times,serif" font-size="14.00">updated_at :datetime</text>
</g>
<!-- Skill -->
<g id="node7" class="node"><title>Skill</title>
<path fill="none" stroke="black" d="M157.182,-428.5C157.182,-428.5 266.193,-428.5 266.193,-428.5 272.193,-428.5 278.193,-434.5 278.193,-440.5 278.193,-440.5 278.193,-516.5 278.193,-516.5 278.193,-522.5 272.193,-528.5 266.193,-528.5 266.193,-528.5 157.182,-528.5 157.182,-528.5 151.182,-528.5 145.182,-522.5 145.182,-516.5 145.182,-516.5 145.182,-440.5 145.182,-440.5 145.182,-434.5 151.182,-428.5 157.182,-428.5"/>
<text text-anchor="middle" x="211.688" y="-513.3" font-family="Times,serif" font-size="14.00">Skill</text>
<polyline fill="none" stroke="black" points="145.182,-506.5 278.193,-506.5 "/>
<text text-anchor="start" x="153.182" y="-491.3" font-family="Times,serif" font-size="14.00">id :integer</text>
<text text-anchor="start" x="153.182" y="-477.3" font-family="Times,serif" font-size="14.00">name :string</text>
<text text-anchor="start" x="153.182" y="-463.3" font-family="Times,serif" font-size="14.00">created_at :datetime</text>
<text text-anchor="start" x="153.182" y="-449.3" font-family="Times,serif" font-size="14.00">updated_at :datetime</text>
<text text-anchor="start" x="153.182" y="-435.3" font-family="Times,serif" font-size="14.00">category_id :integer</text>
</g>
<!-- Category&#45;&gt;Skill -->
<g id="edge1" class="edge"><title>Category&#45;&gt;Skill</title>
<path fill="none" stroke="#f4a953" d="M211.688,-578.047C211.688,-565.49 211.688,-551.913 211.688,-538.968"/>
<ellipse fill="none" stroke="#f4a953" cx="211.688" cy="-582.201" rx="4" ry="4"/>
<polygon fill="#f4a953" stroke="#f4a953" points="211.688,-538.753 216.188,-528.753 211.688,-533.753 211.688,-528.753 211.688,-528.753 211.688,-528.753 211.688,-533.753 207.188,-528.753 211.688,-538.753 211.688,-538.753"/>
</g>
<!-- Message -->
<g id="node3" class="node"><title>Message</title>
<path fill="none" stroke="black" d="M260.182,-7.5C260.182,-7.5 369.193,-7.5 369.193,-7.5 375.193,-7.5 381.193,-13.5 381.193,-19.5 381.193,-19.5 381.193,-109.5 381.193,-109.5 381.193,-115.5 375.193,-121.5 369.193,-121.5 369.193,-121.5 260.182,-121.5 260.182,-121.5 254.182,-121.5 248.182,-115.5 248.182,-109.5 248.182,-109.5 248.182,-19.5 248.182,-19.5 248.182,-13.5 254.182,-7.5 260.182,-7.5"/>
<text text-anchor="middle" x="314.688" y="-106.3" font-family="Times,serif" font-size="14.00">Message</text>
<polyline fill="none" stroke="black" points="248.182,-99.5 381.193,-99.5 "/>
<text text-anchor="start" x="256.182" y="-84.3" font-family="Times,serif" font-size="14.00">id :integer</text>
<text text-anchor="start" x="256.182" y="-70.3" font-family="Times,serif" font-size="14.00">user_id :integer</text>
<text text-anchor="start" x="256.182" y="-56.3" font-family="Times,serif" font-size="14.00">project_id :integer</text>
<text text-anchor="start" x="256.182" y="-42.3" font-family="Times,serif" font-size="14.00">text :string</text>
<text text-anchor="start" x="256.182" y="-28.3" font-family="Times,serif" font-size="14.00">created_at :datetime</text>
<text text-anchor="start" x="256.182" y="-14.3" font-family="Times,serif" font-size="14.00">updated_at :datetime</text>
</g>
<!-- Notification -->
<g id="node4" class="node"><title>Notification</title>
<path fill="none" stroke="black" d="M579.182,-7.5C579.182,-7.5 688.193,-7.5 688.193,-7.5 694.193,-7.5 700.193,-13.5 700.193,-19.5 700.193,-19.5 700.193,-109.5 700.193,-109.5 700.193,-115.5 694.193,-121.5 688.193,-121.5 688.193,-121.5 579.182,-121.5 579.182,-121.5 573.182,-121.5 567.182,-115.5 567.182,-109.5 567.182,-109.5 567.182,-19.5 567.182,-19.5 567.182,-13.5 573.182,-7.5 579.182,-7.5"/>
<text text-anchor="middle" x="633.688" y="-106.3" font-family="Times,serif" font-size="14.00">Notification</text>
<polyline fill="none" stroke="black" points="567.182,-99.5 700.193,-99.5 "/>
<text text-anchor="start" x="575.182" y="-84.3" font-family="Times,serif" font-size="14.00">id :integer</text>
<text text-anchor="start" x="575.182" y="-70.3" font-family="Times,serif" font-size="14.00">user_id :integer</text>
<text text-anchor="start" x="575.182" y="-56.3" font-family="Times,serif" font-size="14.00">content :string</text>
<text text-anchor="start" x="575.182" y="-42.3" font-family="Times,serif" font-size="14.00">created_at :datetime</text>
<text text-anchor="start" x="575.182" y="-28.3" font-family="Times,serif" font-size="14.00">updated_at :datetime</text>
<text text-anchor="start" x="575.182" y="-14.3" font-family="Times,serif" font-size="14.00">project_id :integer</text>
</g>
<!-- Project -->
<g id="node5" class="node"><title>Project</title>
<path fill="none" stroke="black" d="M347.182,-565.5C347.182,-565.5 456.193,-565.5 456.193,-565.5 462.193,-565.5 468.193,-571.5 468.193,-577.5 468.193,-577.5 468.193,-681.5 468.193,-681.5 468.193,-687.5 462.193,-693.5 456.193,-693.5 456.193,-693.5 347.182,-693.5 347.182,-693.5 341.182,-693.5 335.182,-687.5 335.182,-681.5 335.182,-681.5 335.182,-577.5 335.182,-577.5 335.182,-571.5 341.182,-565.5 347.182,-565.5"/>
<text text-anchor="middle" x="401.688" y="-678.3" font-family="Times,serif" font-size="14.00">Project</text>
<polyline fill="none" stroke="black" points="335.182,-671.5 468.193,-671.5 "/>
<text text-anchor="start" x="343.182" y="-656.3" font-family="Times,serif" font-size="14.00">id :integer</text>
<text text-anchor="start" x="343.182" y="-642.3" font-family="Times,serif" font-size="14.00">title :string</text>
<text text-anchor="start" x="343.182" y="-628.3" font-family="Times,serif" font-size="14.00">description :string</text>
<text text-anchor="start" x="343.182" y="-614.3" font-family="Times,serif" font-size="14.00">status :string</text>
<text text-anchor="start" x="343.182" y="-600.3" font-family="Times,serif" font-size="14.00">created_at :datetime</text>
<text text-anchor="start" x="343.182" y="-586.3" font-family="Times,serif" font-size="14.00">updated_at :datetime</text>
<text text-anchor="start" x="343.182" y="-572.3" font-family="Times,serif" font-size="14.00">admin_id :integer</text>
</g>
<!-- Project&#45;&gt;Message -->
<g id="edge7" class="edge"><title>Project&#45;&gt;Message</title>
<path fill="none" stroke="#a48da6" d="M369.149,-557.819C349.723,-511.701 326.903,-449.582 316.688,-392 300.921,-303.127 303.994,-198.495 308.571,-132.091"/>
<ellipse fill="none" stroke="#a48da6" cx="370.793" cy="-561.688" rx="4.00002" ry="4.00002"/>
<polygon fill="#a48da6" stroke="#a48da6" points="308.596,-131.744 313.804,-122.094 308.955,-126.757 309.315,-121.77 309.315,-121.77 309.315,-121.77 308.955,-126.757 304.827,-121.447 308.596,-131.744 308.596,-131.744"/>
</g>
<!-- ProjectSkill -->
<g id="node6" class="node"><title>ProjectSkill</title>
<path fill="none" stroke="black" d="M110.182,-228.5C110.182,-228.5 219.193,-228.5 219.193,-228.5 225.193,-228.5 231.193,-234.5 231.193,-240.5 231.193,-240.5 231.193,-316.5 231.193,-316.5 231.193,-322.5 225.193,-328.5 219.193,-328.5 219.193,-328.5 110.182,-328.5 110.182,-328.5 104.182,-328.5 98.1824,-322.5 98.1824,-316.5 98.1824,-316.5 98.1824,-240.5 98.1824,-240.5 98.1824,-234.5 104.182,-228.5 110.182,-228.5"/>
<text text-anchor="middle" x="164.688" y="-313.3" font-family="Times,serif" font-size="14.00">ProjectSkill</text>
<polyline fill="none" stroke="black" points="98.1824,-306.5 231.193,-306.5 "/>
<text text-anchor="start" x="106.182" y="-291.3" font-family="Times,serif" font-size="14.00">id :integer</text>
<text text-anchor="start" x="106.182" y="-277.3" font-family="Times,serif" font-size="14.00">project_id :integer</text>
<text text-anchor="start" x="106.182" y="-263.3" font-family="Times,serif" font-size="14.00">skill_id :integer</text>
<text text-anchor="start" x="106.182" y="-249.3" font-family="Times,serif" font-size="14.00">created_at :datetime</text>
<text text-anchor="start" x="106.182" y="-235.3" font-family="Times,serif" font-size="14.00">updated_at :datetime</text>
</g>
<!-- Project&#45;&gt;ProjectSkill -->
<g id="edge8" class="edge"><title>Project&#45;&gt;ProjectSkill</title>
<path fill="none" stroke="#14c0c1" d="M349.016,-558.654C342.508,-548.905 336.212,-538.85 330.688,-529 306.822,-486.448 313.069,-469.666 287.688,-428 267.953,-395.604 241.59,-362.792 218.333,-336.28"/>
<ellipse fill="none" stroke="#14c0c1" cx="351.306" cy="-562.035" rx="4.00002" ry="4.00002"/>
<polygon fill="#14c0c1" stroke="#14c0c1" points="218.178,-336.104 214.915,-325.635 214.862,-332.362 211.546,-328.619 211.546,-328.619 211.546,-328.619 214.862,-332.362 208.178,-331.603 218.178,-336.104 218.178,-336.104"/>
</g>
<!-- Project&#45;&gt;Skill -->
<g id="edge9" class="edge"><title>Project&#45;&gt;Skill</title>
<path fill="none" stroke="#d3bf76" d="M327.044,-569.963C312.351,-558.441 296.977,-546.385 282.418,-534.968"/>
<polygon fill="#d3bf76" stroke="#d3bf76" points="327.099,-570.007 332.191,-579.719 331.034,-573.092 334.968,-576.178 334.968,-576.178 334.968,-576.178 331.034,-573.092 337.745,-572.637 327.099,-570.007 327.099,-570.007"/>
<polygon fill="#d3bf76" stroke="#d3bf76" points="282.292,-534.869 277.2,-525.157 278.358,-531.783 274.423,-528.698 274.423,-528.698 274.423,-528.698 278.358,-531.783 271.646,-532.239 282.292,-534.869 282.292,-534.869"/>
</g>
<!-- User -->
<g id="node8" class="node"><title>User</title>
<path fill="none" stroke="black" d="M337.41,-165.5C337.41,-165.5 517.966,-165.5 517.966,-165.5 523.966,-165.5 529.966,-171.5 529.966,-177.5 529.966,-177.5 529.966,-379.5 529.966,-379.5 529.966,-385.5 523.966,-391.5 517.966,-391.5 517.966,-391.5 337.41,-391.5 337.41,-391.5 331.41,-391.5 325.41,-385.5 325.41,-379.5 325.41,-379.5 325.41,-177.5 325.41,-177.5 325.41,-171.5 331.41,-165.5 337.41,-165.5"/>
<text text-anchor="middle" x="427.688" y="-376.3" font-family="Times,serif" font-size="14.00">User</text>
<polyline fill="none" stroke="black" points="325.41,-369.5 529.966,-369.5 "/>
<text text-anchor="start" x="333.41" y="-354.3" font-family="Times,serif" font-size="14.00">id :integer</text>
<text text-anchor="start" x="333.41" y="-340.3" font-family="Times,serif" font-size="14.00">email :string</text>
<text text-anchor="start" x="333.41" y="-326.3" font-family="Times,serif" font-size="14.00">encrypted_password :string</text>
<text text-anchor="start" x="333.41" y="-312.3" font-family="Times,serif" font-size="14.00">reset_password_token :string</text>
<text text-anchor="start" x="333.41" y="-298.3" font-family="Times,serif" font-size="14.00">reset_password_sent_at :datetime</text>
<text text-anchor="start" x="333.41" y="-284.3" font-family="Times,serif" font-size="14.00">remember_created_at :datetime</text>
<text text-anchor="start" x="333.41" y="-270.3" font-family="Times,serif" font-size="14.00">sign_in_count :integer</text>
<text text-anchor="start" x="333.41" y="-256.3" font-family="Times,serif" font-size="14.00">current_sign_in_at :datetime</text>
<text text-anchor="start" x="333.41" y="-242.3" font-family="Times,serif" font-size="14.00">last_sign_in_at :datetime</text>
<text text-anchor="start" x="333.41" y="-228.3" font-family="Times,serif" font-size="14.00">current_sign_in_ip :string</text>
<text text-anchor="start" x="333.41" y="-214.3" font-family="Times,serif" font-size="14.00">last_sign_in_ip :string</text>
<text text-anchor="start" x="333.41" y="-200.3" font-family="Times,serif" font-size="14.00">created_at :datetime</text>
<text text-anchor="start" x="333.41" y="-186.3" font-family="Times,serif" font-size="14.00">updated_at :datetime</text>
<text text-anchor="start" x="333.41" y="-172.3" font-family="Times,serif" font-size="14.00">name :string</text>
</g>
<!-- Project&#45;&gt;User -->
<g id="edge6" class="edge"><title>Project&#45;&gt;User</title>
<path fill="none" stroke="#14c168" d="M407.154,-555.125C410.463,-510.708 414.766,-452.945 418.578,-401.779"/>
<polygon fill="#14c168" stroke="#14c168" points="407.139,-555.326 401.909,-564.964 406.768,-560.313 406.396,-565.299 406.396,-565.299 406.396,-565.299 406.768,-560.313 410.884,-565.633 407.139,-555.326 407.139,-555.326"/>
<polygon fill="#14c168" stroke="#14c168" points="418.59,-401.612 423.821,-391.974 418.962,-396.626 419.333,-391.64 419.333,-391.64 419.333,-391.64 418.962,-396.626 414.846,-391.306 418.59,-401.612 418.59,-401.612"/>
</g>
<!-- UserProject -->
<g id="node9" class="node"><title>UserProject</title>
<path fill="none" stroke="black" d="M428.182,-0.5C428.182,-0.5 537.193,-0.5 537.193,-0.5 543.193,-0.5 549.193,-6.5 549.193,-12.5 549.193,-12.5 549.193,-116.5 549.193,-116.5 549.193,-122.5 543.193,-128.5 537.193,-128.5 537.193,-128.5 428.182,-128.5 428.182,-128.5 422.182,-128.5 416.182,-122.5 416.182,-116.5 416.182,-116.5 416.182,-12.5 416.182,-12.5 416.182,-6.5 422.182,-0.5 428.182,-0.5"/>
<text text-anchor="middle" x="482.688" y="-113.3" font-family="Times,serif" font-size="14.00">UserProject</text>
<polyline fill="none" stroke="black" points="416.182,-106.5 549.193,-106.5 "/>
<text text-anchor="start" x="424.182" y="-91.3" font-family="Times,serif" font-size="14.00">id :integer</text>
<text text-anchor="start" x="424.182" y="-77.3" font-family="Times,serif" font-size="14.00">user_id :integer</text>
<text text-anchor="start" x="424.182" y="-63.3" font-family="Times,serif" font-size="14.00">project_id :integer</text>
<text text-anchor="start" x="424.182" y="-49.3" font-family="Times,serif" font-size="14.00">approved :boolean</text>
<text text-anchor="start" x="424.182" y="-35.3" font-family="Times,serif" font-size="14.00">created_at :datetime</text>
<text text-anchor="start" x="424.182" y="-21.3" font-family="Times,serif" font-size="14.00">updated_at :datetime</text>
<text text-anchor="start" x="424.182" y="-7.3" font-family="Times,serif" font-size="14.00">rated :boolean</text>
</g>
<!-- Project&#45;&gt;UserProject -->
<g id="edge5" class="edge"><title>Project&#45;&gt;UserProject</title>
<path fill="none" stroke="#54d509" d="M455.387,-558.584C486.401,-513.673 522.407,-452.586 538.688,-392 564.87,-294.568 564.265,-262.593 538.688,-165 536.301,-155.892 532.872,-146.738 528.869,-137.87"/>
<ellipse fill="none" stroke="#54d509" cx="452.942" cy="-562.089" rx="4.00002" ry="4.00002"/>
<polygon fill="#54d509" stroke="#54d509" points="528.821,-137.768 528.571,-126.805 526.666,-133.256 524.51,-128.744 524.51,-128.744 524.51,-128.744 526.666,-133.256 520.45,-130.684 528.821,-137.768 528.821,-137.768"/>
</g>
<!-- Skill&#45;&gt;ProjectSkill -->
<g id="edge14" class="edge"><title>Skill&#45;&gt;ProjectSkill</title>
<path fill="none" stroke="#c0919f" d="M198.11,-420.301C192.042,-394.738 184.893,-364.622 178.768,-338.816"/>
<ellipse fill="none" stroke="#c0919f" cx="199.086" cy="-424.41" rx="4.00001" ry="4.00001"/>
<polygon fill="#c0919f" stroke="#c0919f" points="178.697,-338.518 180.766,-327.749 177.542,-333.653 176.387,-328.788 176.387,-328.788 176.387,-328.788 177.542,-333.653 172.009,-329.828 178.697,-338.518 178.697,-338.518"/>
</g>
<!-- Skill&#45;&gt;User -->
<g id="edge13" class="edge"><title>Skill&#45;&gt;User</title>
<path fill="none" stroke="#9ff5fb" d="M272.767,-421.51C286.875,-408.578 302.308,-394.431 317.794,-380.236"/>
<polygon fill="#9ff5fb" stroke="#9ff5fb" points="272.73,-421.544 262.318,-424.985 269.044,-424.923 265.359,-428.302 265.359,-428.302 265.359,-428.302 269.044,-424.923 268.399,-431.619 272.73,-421.544 272.73,-421.544"/>
<polygon fill="#9ff5fb" stroke="#9ff5fb" points="318.023,-380.026 328.435,-376.586 321.709,-376.648 325.394,-373.269 325.394,-373.269 325.394,-373.269 321.709,-376.648 322.354,-369.952 318.023,-380.026 318.023,-380.026"/>
</g>
<!-- UserSkill -->
<g id="node10" class="node"><title>UserSkill</title>
<path fill="none" stroke="black" d="M109.182,-7.5C109.182,-7.5 218.193,-7.5 218.193,-7.5 224.193,-7.5 230.193,-13.5 230.193,-19.5 230.193,-19.5 230.193,-109.5 230.193,-109.5 230.193,-115.5 224.193,-121.5 218.193,-121.5 218.193,-121.5 109.182,-121.5 109.182,-121.5 103.182,-121.5 97.1824,-115.5 97.1824,-109.5 97.1824,-109.5 97.1824,-19.5 97.1824,-19.5 97.1824,-13.5 103.182,-7.5 109.182,-7.5"/>
<text text-anchor="middle" x="163.688" y="-106.3" font-family="Times,serif" font-size="14.00">UserSkill</text>
<polyline fill="none" stroke="black" points="97.1824,-99.5 230.193,-99.5 "/>
<text text-anchor="start" x="105.182" y="-84.3" font-family="Times,serif" font-size="14.00">id :integer</text>
<text text-anchor="start" x="105.182" y="-70.3" font-family="Times,serif" font-size="14.00">user_id :integer</text>
<text text-anchor="start" x="105.182" y="-56.3" font-family="Times,serif" font-size="14.00">skill_id :integer</text>
<text text-anchor="start" x="105.182" y="-42.3" font-family="Times,serif" font-size="14.00">created_at :datetime</text>
<text text-anchor="start" x="105.182" y="-28.3" font-family="Times,serif" font-size="14.00">updated_at :datetime</text>
<text text-anchor="start" x="105.182" y="-14.3" font-family="Times,serif" font-size="14.00">score :integer</text>
</g>
<!-- Skill&#45;&gt;UserSkill -->
<g id="edge12" class="edge"><title>Skill&#45;&gt;UserSkill</title>
<path fill="none" stroke="#28e254" d="M233.832,-420.642C236.675,-411.206 239.133,-401.424 240.688,-392 257.11,-292.457 273.313,-260.468 240.688,-165 236.522,-152.812 230.19,-140.959 222.911,-129.934"/>
<ellipse fill="none" stroke="#28e254" cx="232.568" cy="-424.656" rx="4.00001" ry="4.00001"/>
<polygon fill="#28e254" stroke="#28e254" points="222.88,-129.889 220.877,-119.108 220.03,-125.781 217.18,-121.673 217.18,-121.673 217.18,-121.673 220.03,-125.781 213.482,-124.238 222.88,-129.889 222.88,-129.889"/>
</g>
<!-- User&#45;&gt;Message -->
<g id="edge19" class="edge"><title>User&#45;&gt;Message</title>
<path fill="none" stroke="#518732" d="M363.928,-157.881C358.965,-148.569 354.078,-139.4 349.424,-130.668"/>
<ellipse fill="none" stroke="#518732" cx="365.997" cy="-161.762" rx="4.00002" ry="4.00002"/>
<polygon fill="#518732" stroke="#518732" points="349.368,-130.563 348.635,-119.621 347.016,-126.15 344.664,-121.738 344.664,-121.738 344.664,-121.738 347.016,-126.15 340.693,-123.855 349.368,-130.563 349.368,-130.563"/>
</g>
<!-- User&#45;&gt;Notification -->
<g id="edge18" class="edge"><title>User&#45;&gt;Notification</title>
<path fill="none" stroke="#75a2e6" d="M536.046,-165.986C548.434,-153.237 560.717,-140.596 572.178,-128.801"/>
<ellipse fill="none" stroke="#75a2e6" cx="532.872" cy="-169.252" rx="4.00002" ry="4.00002"/>
<polygon fill="#75a2e6" stroke="#75a2e6" points="572.233,-128.745 582.429,-124.709 575.717,-125.159 579.201,-121.573 579.201,-121.573 579.201,-121.573 575.717,-125.159 575.974,-118.437 572.233,-128.745 572.233,-128.745"/>
</g>
<!-- User&#45;&gt;UserProject -->
<g id="edge17" class="edge"><title>User&#45;&gt;UserProject</title>
<path fill="none" stroke="#1f9f38" d="M458.863,-157.333C460.507,-150.998 462.132,-144.732 463.716,-138.627"/>
<ellipse fill="none" stroke="#1f9f38" cx="457.803" cy="-161.42" rx="4.00001" ry="4.00001"/>
<polygon fill="#1f9f38" stroke="#1f9f38" points="463.826,-138.201 470.694,-129.652 465.082,-133.362 466.338,-128.522 466.338,-128.522 466.338,-128.522 465.082,-133.362 461.982,-127.392 463.826,-138.201 463.826,-138.201"/>
</g>
<!-- User&#45;&gt;UserSkill -->
<g id="edge16" class="edge"><title>User&#45;&gt;UserSkill</title>
<path fill="none" stroke="#4f9292" d="M318.823,-193.064C292.444,-172.302 264.432,-150.001 238.688,-129 238.324,-128.703 237.96,-128.406 237.595,-128.107"/>
<ellipse fill="none" stroke="#4f9292" cx="321.99" cy="-195.554" rx="4.00002" ry="4.00002"/>
<polygon fill="#4f9292" stroke="#4f9292" points="237.557,-128.076 232.688,-118.25 233.694,-124.902 229.831,-121.727 229.831,-121.727 229.831,-121.727 233.694,-124.902 226.974,-125.203 237.557,-128.076 237.557,-128.076"/>
</g>
<!-- ActiveRecord::Base -->
<g id="node11" class="node"><title>ActiveRecord::Base</title>
<ellipse fill="none" stroke="black" cx="306.688" cy="-766.5" rx="81.1422" ry="18"/>
<text text-anchor="middle" x="306.688" y="-762.3" font-family="Times,serif" font-size="14.00">ActiveRecord::Base</text>
</g>
<!-- ActiveRecord::Base&#45;&gt;Category -->
<g id="edge2" class="edge"><title>ActiveRecord::Base&#45;&gt;Category</title>
<path fill="none" stroke="black" d="M294.848,-748.675C281.518,-729.732 259.358,-698.242 241.264,-672.53"/>
</g>
<!-- ActiveRecord::Base&#45;&gt;Message -->
<g id="edge3" class="edge"><title>ActiveRecord::Base&#45;&gt;Message</title>
<path fill="none" stroke="black" d="M270.186,-750.229C253.935,-743.657 234.484,-736.1 216.688,-730 162.805,-711.531 128.219,-739.3 93.6877,-694 58.0534,-647.253 52.2607,-211.133 88.6877,-165 131.443,-110.853 178.124,-160.141 239.688,-129 243.951,-126.844 248.178,-124.4 252.327,-121.756"/>
</g>
<!-- ActiveRecord::Base&#45;&gt;Notification -->
<g id="edge4" class="edge"><title>ActiveRecord::Base&#45;&gt;Notification</title>
<path fill="none" stroke="black" d="M385.58,-761.973C438.547,-755.377 506.017,-738.086 547.688,-694 698.045,-534.929 666.774,-244.027 645.267,-121.872"/>
</g>
<!-- ActiveRecord::Base&#45;&gt;Project -->
<g id="edge10" class="edge"><title>ActiveRecord::Base&#45;&gt;Project</title>
<path fill="none" stroke="black" d="M318.527,-748.675C328.376,-734.68 343.044,-713.836 357.331,-693.533"/>
</g>
<!-- ActiveRecord::Base&#45;&gt;ProjectSkill -->
<g id="edge11" class="edge"><title>ActiveRecord::Base&#45;&gt;ProjectSkill</title>
<path fill="none" stroke="black" d="M269.29,-750.462C219.568,-730.383 137.672,-696.98 135.688,-694 60.83,-581.562 110.996,-411.846 143.34,-328.799"/>
</g>
<!-- ActiveRecord::Base&#45;&gt;Skill -->
<g id="edge15" class="edge"><title>ActiveRecord::Base&#45;&gt;Skill</title>
<path fill="none" stroke="black" d="M308.53,-748.251C311.629,-712.413 315.11,-627.996 287.688,-565 282.06,-552.071 273.708,-539.737 264.575,-528.662"/>
</g>
<!-- ActiveRecord::Base&#45;&gt;User -->
<g id="edge20" class="edge"><title>ActiveRecord::Base&#45;&gt;User</title>
<path fill="none" stroke="black" d="M372.905,-755.999C410.435,-746.852 454.416,-728.954 477.688,-694 536.937,-605.006 511.312,-480.96 478.948,-391.798"/>
</g>
<!-- ActiveRecord::Base&#45;&gt;UserProject -->
<g id="edge21" class="edge"><title>ActiveRecord::Base&#45;&gt;UserProject</title>
<path fill="none" stroke="black" d="M379.148,-758.098C423.056,-749.731 476.611,-731.916 508.688,-694 584.993,-603.803 600.589,-276.556 561.688,-165 557.258,-152.296 550.453,-139.996 542.658,-128.63"/>
</g>
<!-- ActiveRecord::Base&#45;&gt;UserSkill -->
<g id="edge22" class="edge"><title>ActiveRecord::Base&#45;&gt;UserSkill</title>
<path fill="none" stroke="black" d="M271.19,-750.168C254.793,-743.431 234.949,-735.761 216.688,-730 151.305,-709.371 110.106,-747.059 66.6877,-694 21.7119,-639.037 -7.86862,-326.547 60.6877,-165 68.7008,-146.118 82.2462,-129.072 96.9261,-114.641"/>
</g>
</g>
</svg>
