<?xml version="1.0" encoding="UTF-8" standalone="no"?>
<!DOCTYPE svg PUBLIC "-//W3C//DTD SVG 1.1//EN"
 "http://www.w3.org/Graphics/SVG/1.1/DTD/svg11.dtd">
<!-- Generated by graphviz version 2.38.0 (20140413.2041)
 -->
<!-- Title: models_diagram Pages: 1 -->
<svg width="554pt" height="369pt"
 viewBox="0.00 0.00 554.04 369.00" xmlns="http://www.w3.org/2000/svg" xmlns:xlink="http://www.w3.org/1999/xlink">
<g id="graph0" class="graph" transform="scale(1 1) rotate(0) translate(4 365)">
<title>models_diagram</title>
<polygon fill="white" stroke="none" points="-4,4 -4,-365 550.043,-365 550.043,4 -4,4"/>
<!-- _diagram_info -->
<g id="node1" class="node"><title>_diagram_info</title>
<text text-anchor="start" x="8" y="-346.6" font-family="Times,serif" font-size="13.00">Models diagram</text>
<text text-anchor="start" x="8" y="-333.6" font-family="Times,serif" font-size="13.00">Date: Aug 07 2014 &#45; 18:07</text>
<text text-anchor="start" x="8" y="-320.6" font-family="Times,serif" font-size="13.00">Migration version: 20140807212824</text>
<text text-anchor="start" x="8" y="-307.6" font-family="Times,serif" font-size="13.00">Generated by RailRoady 1.1.1</text>
<text text-anchor="start" x="8" y="-294.6" font-family="Times,serif" font-size="13.00">http://railroady.prestonlee.com</text>
</g>
<!-- Category -->
<g id="node2" class="node"><title>Category</title>
<ellipse fill="none" stroke="black" cx="258.688" cy="-234" rx="42.5456" ry="18"/>
<text text-anchor="middle" x="258.688" y="-229.8" font-family="Times,serif" font-size="14.00">Category</text>
</g>
<!-- Skill -->
<g id="node6" class="node"><title>Skill</title>
<ellipse fill="none" stroke="black" cx="248.688" cy="-162" rx="27" ry="18"/>
<text text-anchor="middle" x="248.688" y="-157.8" font-family="Times,serif" font-size="14.00">Skill</text>
</g>
<!-- Category&#45;&gt;Skill -->
<g id="edge1" class="edge"><title>Category&#45;&gt;Skill</title>
<path fill="none" stroke="#abb229" d="M255.065,-207.64C254.248,-201.92 253.377,-195.828 252.551,-190.042"/>
<ellipse fill="none" stroke="#abb229" cx="255.65" cy="-211.737" rx="4.00001" ry="4.00001"/>
<polygon fill="#abb229" stroke="#abb229" points="252.546,-190.004 255.586,-179.468 251.838,-185.054 251.131,-180.104 251.131,-180.104 251.131,-180.104 251.838,-185.054 246.676,-180.741 252.546,-190.004 252.546,-190.004"/>
</g>
<!-- Notification -->
<g id="node3" class="node"><title>Notification</title>
<ellipse fill="none" stroke="black" cx="493.688" cy="-18" rx="52.2106" ry="18"/>
<text text-anchor="middle" x="493.688" y="-13.8" font-family="Times,serif" font-size="14.00">Notification</text>
</g>
<!-- Project -->
<g id="node4" class="node"><title>Project</title>
<ellipse fill="none" stroke="black" cx="354.688" cy="-234" rx="35.3129" ry="18"/>
<text text-anchor="middle" x="354.688" y="-229.8" font-family="Times,serif" font-size="14.00">Project</text>
</g>
<!-- ProjectSkill -->
<g id="node5" class="node"><title>ProjectSkill</title>
<ellipse fill="none" stroke="black" cx="255.688" cy="-90" rx="51.7346" ry="18"/>
<text text-anchor="middle" x="255.688" y="-85.8" font-family="Times,serif" font-size="14.00">ProjectSkill</text>
</g>
<!-- Project&#45;&gt;ProjectSkill -->
<g id="edge6" class="edge"><title>Project&#45;&gt;ProjectSkill</title>
<path fill="none" stroke="#96bec3" d="M338.576,-209.891C320.682,-184.224 291.882,-142.916 273.376,-116.371"/>
<ellipse fill="none" stroke="#96bec3" cx="341.044" cy="-213.43" rx="4.00002" ry="4.00002"/>
<polygon fill="#96bec3" stroke="#96bec3" points="273.244,-116.182 271.216,-105.405 270.385,-112.08 267.525,-107.979 267.525,-107.979 267.525,-107.979 270.385,-112.08 263.834,-110.552 273.244,-116.182 273.244,-116.182"/>
</g>
<!-- Project&#45;&gt;Skill -->
<g id="edge7" class="edge"><title>Project&#45;&gt;Skill</title>
<path fill="none" stroke="#d24f18" d="M325.567,-213.769C309.985,-203.48 290.923,-190.891 275.678,-180.824"/>
<polygon fill="#d24f18" stroke="#d24f18" points="325.654,-213.826 331.518,-223.092 329.826,-216.582 333.998,-219.337 333.998,-219.337 333.998,-219.337 329.826,-216.582 336.478,-215.582 325.654,-213.826 325.654,-213.826"/>
<polygon fill="#d24f18" stroke="#d24f18" points="275.543,-180.734 269.678,-171.469 271.37,-177.979 267.198,-175.224 267.198,-175.224 267.198,-175.224 271.37,-177.979 264.718,-178.979 275.543,-180.734 275.543,-180.734"/>
</g>
<!-- User -->
<g id="node7" class="node"><title>User</title>
<ellipse fill="none" stroke="black" cx="396.688" cy="-90" rx="27" ry="18"/>
<text text-anchor="middle" x="396.688" y="-85.8" font-family="Times,serif" font-size="14.00">User</text>
</g>
<!-- Project&#45;&gt;User -->
<g id="edge5" class="edge"><title>Project&#45;&gt;User</title>
<path fill="none" stroke="#b35447" d="M362.582,-206.309C370.098,-180.897 381.346,-142.87 388.845,-117.517"/>
<polygon fill="#b35447" stroke="#b35447" points="362.507,-206.564 355.355,-214.877 361.089,-211.358 359.671,-216.153 359.671,-216.153 359.671,-216.153 361.089,-211.358 363.986,-217.429 362.507,-206.564 362.507,-206.564"/>
<polygon fill="#b35447" stroke="#b35447" points="388.875,-117.414 396.027,-109.101 390.293,-112.62 391.711,-107.825 391.711,-107.825 391.711,-107.825 390.293,-112.62 387.396,-106.549 388.875,-117.414 388.875,-117.414"/>
</g>
<!-- UserProject -->
<g id="node8" class="node"><title>UserProject</title>
<ellipse fill="none" stroke="black" cx="371.688" cy="-18" rx="51.7088" ry="18"/>
<text text-anchor="middle" x="371.688" y="-13.8" font-family="Times,serif" font-size="14.00">UserProject</text>
</g>
<!-- Project&#45;&gt;UserProject -->
<g id="edge4" class="edge"><title>Project&#45;&gt;UserProject</title>
<path fill="none" stroke="#cb5964" d="M354.324,-207.203C354.179,-175.32 354.919,-119.461 360.688,-72 361.724,-63.4729 363.423,-54.2782 365.179,-45.9797"/>
<ellipse fill="none" stroke="#cb5964" cx="354.356" cy="-211.533" rx="4" ry="4"/>
<polygon fill="#cb5964" stroke="#cb5964" points="365.213,-45.826 371.78,-37.0441 366.3,-40.9457 367.388,-36.0654 367.388,-36.0654 367.388,-36.0654 366.3,-40.9457 362.996,-35.0866 365.213,-45.826 365.213,-45.826"/>
</g>
<!-- Skill&#45;&gt;ProjectSkill -->
<g id="edge12" class="edge"><title>Skill&#45;&gt;ProjectSkill</title>
<path fill="none" stroke="#2bfc58" d="M251.224,-135.64C251.781,-130.063 252.375,-124.132 252.94,-118.476"/>
<ellipse fill="none" stroke="#2bfc58" cx="250.816" cy="-139.716" rx="4" ry="4"/>
<polygon fill="#2bfc58" stroke="#2bfc58" points="252.982,-118.055 258.455,-108.552 253.48,-113.08 253.977,-108.104 253.977,-108.104 253.977,-108.104 253.48,-113.08 249.5,-107.657 252.982,-118.055 252.982,-118.055"/>
</g>
<!-- Skill&#45;&gt;User -->
<g id="edge11" class="edge"><title>Skill&#45;&gt;User</title>
<path fill="none" stroke="#0ac616" d="M279.356,-146.495C304.726,-134.496 340.586,-117.535 365.97,-105.529"/>
<polygon fill="#0ac616" stroke="#0ac616" points="279.248,-146.546 268.284,-146.753 274.728,-148.684 270.208,-150.821 270.208,-150.821 270.208,-150.821 274.728,-148.684 272.132,-154.889 279.248,-146.546 279.248,-146.546"/>
<polygon fill="#0ac616" stroke="#0ac616" points="366.101,-105.467 377.065,-105.259 370.621,-103.329 375.141,-101.191 375.141,-101.191 375.141,-101.191 370.621,-103.329 373.217,-97.1229 366.101,-105.467 366.101,-105.467"/>
</g>
<!-- UserSkill -->
<g id="node9" class="node"><title>UserSkill</title>
<ellipse fill="none" stroke="black" cx="175.688" cy="-18" rx="43.5319" ry="18"/>
<text text-anchor="middle" x="175.688" y="-13.8" font-family="Times,serif" font-size="14.00">UserSkill</text>
</g>
<!-- Skill&#45;&gt;UserSkill -->
<g id="edge10" class="edge"><title>Skill&#45;&gt;UserSkill</title>
<path fill="none" stroke="#cc77be" d="M224.772,-143.012C214.012,-133.704 202.092,-121.473 194.688,-108 184.192,-88.902 179.49,-64.5475 177.386,-46.1448"/>
<ellipse fill="none" stroke="#cc77be" cx="227.856" cy="-145.583" rx="4.00002" ry="4.00002"/>
<polygon fill="#cc77be" stroke="#cc77be" points="177.376,-46.0366 180.903,-35.6535 176.9,-41.0594 176.424,-36.0821 176.424,-36.0821 176.424,-36.0821 176.9,-41.0594 171.944,-36.5107 177.376,-46.0366 177.376,-46.0366"/>
</g>
<!-- User&#45;&gt;Notification -->
<g id="edge16" class="edge"><title>User&#45;&gt;Notification</title>
<path fill="none" stroke="#24d943" d="M421.355,-71.1992C434.373,-61.8046 450.44,-50.2098 464.122,-40.3361"/>
<ellipse fill="none" stroke="#24d943" cx="417.723" cy="-73.8202" rx="4.00002" ry="4.00002"/>
<polygon fill="#24d943" stroke="#24d943" points="464.175,-40.2976 474.918,-38.0948 468.23,-37.3717 472.284,-34.4457 472.284,-34.4457 472.284,-34.4457 468.23,-37.3717 469.651,-30.7967 464.175,-40.2976 464.175,-40.2976"/>
</g>
<!-- User&#45;&gt;UserProject -->
<g id="edge15" class="edge"><title>User&#45;&gt;UserProject</title>
<path fill="none" stroke="#db2fd1" d="M388.037,-64.7779C385.811,-58.544 383.404,-51.8046 381.139,-45.4634"/>
<ellipse fill="none" stroke="#db2fd1" cx="389.418" cy="-68.644" rx="4.00001" ry="4.00001"/>
<polygon fill="#db2fd1" stroke="#db2fd1" points="381.107,-45.3736 381.981,-34.4427 379.425,-40.6649 377.744,-35.9562 377.744,-35.9562 377.744,-35.9562 379.425,-40.6649 373.506,-37.4698 381.107,-45.3736 381.107,-45.3736"/>
</g>
<!-- User&#45;&gt;UserSkill -->
<g id="edge14" class="edge"><title>User&#45;&gt;UserSkill</title>
<path fill="none" stroke="#41fe13" d="M364.747,-78.8831C326.271,-66.6961 261.477,-46.173 218.646,-32.6067"/>
<ellipse fill="none" stroke="#41fe13" cx="368.803" cy="-80.1677" rx="4.00001" ry="4.00001"/>
<polygon fill="#41fe13" stroke="#41fe13" points="218.593,-32.59 210.419,-25.2804 213.826,-31.0801 209.06,-29.5703 209.06,-29.5703 209.06,-29.5703 213.826,-31.0801 207.701,-33.8603 218.593,-32.59 218.593,-32.59"/>
</g>
<!-- ActiveRecord::Base -->
<g id="node10" class="node"><title>ActiveRecord::Base</title>
<ellipse fill="none" stroke="black" cx="306.688" cy="-324.5" rx="81.1422" ry="18"/>
<text text-anchor="middle" x="306.688" y="-320.3" font-family="Times,serif" font-size="14.00">ActiveRecord::Base</text>
</g>
<!-- ActiveRecord::Base&#45;&gt;Category -->
<g id="edge2" class="edge"><title>ActiveRecord::Base&#45;&gt;Category</title>
<path fill="none" stroke="black" d="M297.433,-306.436C288.879,-290.665 276.244,-267.37 267.751,-251.711"/>
</g>
<!-- ActiveRecord::Base&#45;&gt;Notification -->
<g id="edge3" class="edge"><title>ActiveRecord::Base&#45;&gt;Notification</title>
<path fill="none" stroke="black" d="M351.414,-309.313C380.485,-298.003 417.211,-279.456 440.688,-252 495.551,-187.836 496.681,-78.45 494.837,-36.283"/>
</g>
<!-- ActiveRecord::Base&#45;&gt;Project -->
<g id="edge8" class="edge"><title>ActiveRecord::Base&#45;&gt;Project</title>
<path fill="none" stroke="black" d="M315.943,-306.436C324.497,-290.665 337.131,-267.37 345.624,-251.711"/>
</g>
<!-- ActiveRecord::Base&#45;&gt;ProjectSkill -->
<g id="edge9" class="edge"><title>ActiveRecord::Base&#45;&gt;ProjectSkill</title>
<path fill="none" stroke="black" d="M267.013,-308.729C242.52,-297.299 213.108,-278.841 198.688,-252 186.546,-229.4 209.669,-150.465 212.688,-144 219.104,-130.258 229.854,-117.008 239,-107.193"/>
</g>
<!-- ActiveRecord::Base&#45;&gt;Skill -->
<g id="edge13" class="edge"><title>ActiveRecord::Base&#45;&gt;Skill</title>
<path fill="none" stroke="black" d="M270.12,-308.112C247.356,-296.378 219.963,-277.812 206.688,-252 199.37,-237.772 201.427,-231.11 206.688,-216 211.938,-200.921 223.463,-186.906 233.115,-177.079"/>
</g>
<!-- ActiveRecord::Base&#45;&gt;User -->
<g id="edge17" class="edge"><title>ActiveRecord::Base&#45;&gt;User</title>
<path fill="none" stroke="black" d="M339.488,-307.913C360.643,-295.893 386.418,-277.075 398.688,-252 422.031,-204.293 409.623,-138.716 401.673,-108.073"/>
</g>
<!-- ActiveRecord::Base&#45;&gt;UserProject -->
<g id="edge18" class="edge"><title>ActiveRecord::Base&#45;&gt;UserProject</title>
<path fill="none" stroke="black" d="M345.956,-308.731C370.832,-297.214 401.302,-278.656 417.688,-252 459.728,-183.611 465.987,-145.045 432.688,-72 425.355,-55.9157 410.464,-42.8252 397.23,-33.6779"/>
</g>
<!-- ActiveRecord::Base&#45;&gt;UserSkill -->
<g id="edge19" class="edge"><title>ActiveRecord::Base&#45;&gt;UserSkill</title>
<path fill="none" stroke="black" d="M265.344,-308.914C239.639,-297.561 208.4,-279.119 191.688,-252 148.611,-182.1 163.672,-76.9947 171.848,-36.1166"/>
</g>
</g>
</svg>
