<?xml version="1.0" encoding="UTF-8" standalone="no"?>
<!DOCTYPE svg PUBLIC "-//W3C//DTD SVG 1.1//EN"
 "http://www.w3.org/Graphics/SVG/1.1/DTD/svg11.dtd">
<!-- Generated by graphviz version 2.38.0 (20140413.2041)
 -->
<!-- Title: models_diagram Pages: 1 -->
<svg width="679pt" height="811pt"
 viewBox="0.00 0.00 679.19 811.00" xmlns="http://www.w3.org/2000/svg" xmlns:xlink="http://www.w3.org/1999/xlink">
<g id="graph0" class="graph" transform="scale(1 1) rotate(0) translate(4 807)">
<title>models_diagram</title>
<polygon fill="white" stroke="none" points="-4,4 -4,-807 675.193,-807 675.193,4 -4,4"/>
<!-- _diagram_info -->
<g id="node1" class="node"><title>_diagram_info</title>
<text text-anchor="start" x="8" y="-788.6" font-family="Times,serif" font-size="13.00">Models diagram</text>
<text text-anchor="start" x="8" y="-775.6" font-family="Times,serif" font-size="13.00">Date: Aug 07 2014 &#45; 18:07</text>
<text text-anchor="start" x="8" y="-762.6" font-family="Times,serif" font-size="13.00">Migration version: 20140807212824</text>
<text text-anchor="start" x="8" y="-749.6" font-family="Times,serif" font-size="13.00">Generated by RailRoady 1.1.1</text>
<text text-anchor="start" x="8" y="-736.6" font-family="Times,serif" font-size="13.00">http://railroady.prestonlee.com</text>
</g>
<!-- Category -->
<g id="node2" class="node"><title>Category</title>
<path fill="none" stroke="black" d="M176.182,-586.5C176.182,-586.5 285.193,-586.5 285.193,-586.5 291.193,-586.5 297.193,-592.5 297.193,-598.5 297.193,-598.5 297.193,-660.5 297.193,-660.5 297.193,-666.5 291.193,-672.5 285.193,-672.5 285.193,-672.5 176.182,-672.5 176.182,-672.5 170.182,-672.5 164.182,-666.5 164.182,-660.5 164.182,-660.5 164.182,-598.5 164.182,-598.5 164.182,-592.5 170.182,-586.5 176.182,-586.5"/>
<text text-anchor="middle" x="230.688" y="-657.3" font-family="Times,serif" font-size="14.00">Category</text>
<polyline fill="none" stroke="black" points="164.182,-650.5 297.193,-650.5 "/>
<text text-anchor="start" x="172.182" y="-635.3" font-family="Times,serif" font-size="14.00">id :integer</text>
<text text-anchor="start" x="172.182" y="-621.3" font-family="Times,serif" font-size="14.00">name :string</text>
<text text-anchor="start" x="172.182" y="-607.3" font-family="Times,serif" font-size="14.00">created_at :datetime</text>
<text text-anchor="start" x="172.182" y="-593.3" font-family="Times,serif" font-size="14.00">updated_at :datetime</text>
</g>
<!-- Skill -->
<g id="node6" class="node"><title>Skill</title>
<path fill="none" stroke="black" d="M138.182,-428.5C138.182,-428.5 247.193,-428.5 247.193,-428.5 253.193,-428.5 259.193,-434.5 259.193,-440.5 259.193,-440.5 259.193,-516.5 259.193,-516.5 259.193,-522.5 253.193,-528.5 247.193,-528.5 247.193,-528.5 138.182,-528.5 138.182,-528.5 132.182,-528.5 126.182,-522.5 126.182,-516.5 126.182,-516.5 126.182,-440.5 126.182,-440.5 126.182,-434.5 132.182,-428.5 138.182,-428.5"/>
<text text-anchor="middle" x="192.688" y="-513.3" font-family="Times,serif" font-size="14.00">Skill</text>
<polyline fill="none" stroke="black" points="126.182,-506.5 259.193,-506.5 "/>
<text text-anchor="start" x="134.182" y="-491.3" font-family="Times,serif" font-size="14.00">id :integer</text>
<text text-anchor="start" x="134.182" y="-477.3" font-family="Times,serif" font-size="14.00">name :string</text>
<text text-anchor="start" x="134.182" y="-463.3" font-family="Times,serif" font-size="14.00">created_at :datetime</text>
<text text-anchor="start" x="134.182" y="-449.3" font-family="Times,serif" font-size="14.00">updated_at :datetime</text>
<text text-anchor="start" x="134.182" y="-435.3" font-family="Times,serif" font-size="14.00">category_id :integer</text>
</g>
<!-- Category&#45;&gt;Skill -->
<g id="edge1" class="edge"><title>Category&#45;&gt;Skill</title>
<path fill="none" stroke="#5a64e1" d="M217.821,-578.047C214.586,-565.366 211.087,-551.644 207.756,-538.583"/>
<ellipse fill="none" stroke="#5a64e1" cx="218.912" cy="-582.325" rx="4.00001" ry="4.00001"/>
<polygon fill="#5a64e1" stroke="#5a64e1" points="207.72,-538.443 209.609,-527.641 206.485,-533.598 205.249,-528.753 205.249,-528.753 205.249,-528.753 206.485,-533.598 200.888,-529.865 207.72,-538.443 207.72,-538.443"/>
</g>
<!-- Notification -->
<g id="node3" class="node"><title>Notification</title>
<path fill="none" stroke="black" d="M550.182,-14.5C550.182,-14.5 659.193,-14.5 659.193,-14.5 665.193,-14.5 671.193,-20.5 671.193,-26.5 671.193,-26.5 671.193,-102.5 671.193,-102.5 671.193,-108.5 665.193,-114.5 659.193,-114.5 659.193,-114.5 550.182,-114.5 550.182,-114.5 544.182,-114.5 538.182,-108.5 538.182,-102.5 538.182,-102.5 538.182,-26.5 538.182,-26.5 538.182,-20.5 544.182,-14.5 550.182,-14.5"/>
<text text-anchor="middle" x="604.688" y="-99.3" font-family="Times,serif" font-size="14.00">Notification</text>
<polyline fill="none" stroke="black" points="538.182,-92.5 671.193,-92.5 "/>
<text text-anchor="start" x="546.182" y="-77.3" font-family="Times,serif" font-size="14.00">id :integer</text>
<text text-anchor="start" x="546.182" y="-63.3" font-family="Times,serif" font-size="14.00">user_id :integer</text>
<text text-anchor="start" x="546.182" y="-49.3" font-family="Times,serif" font-size="14.00">content :string</text>
<text text-anchor="start" x="546.182" y="-35.3" font-family="Times,serif" font-size="14.00">created_at :datetime</text>
<text text-anchor="start" x="546.182" y="-21.3" font-family="Times,serif" font-size="14.00">updated_at :datetime</text>
</g>
<!-- Project -->
<g id="node4" class="node"><title>Project</title>
<path fill="none" stroke="black" d="M327.182,-565.5C327.182,-565.5 436.193,-565.5 436.193,-565.5 442.193,-565.5 448.193,-571.5 448.193,-577.5 448.193,-577.5 448.193,-681.5 448.193,-681.5 448.193,-687.5 442.193,-693.5 436.193,-693.5 436.193,-693.5 327.182,-693.5 327.182,-693.5 321.182,-693.5 315.182,-687.5 315.182,-681.5 315.182,-681.5 315.182,-577.5 315.182,-577.5 315.182,-571.5 321.182,-565.5 327.182,-565.5"/>
<text text-anchor="middle" x="381.688" y="-678.3" font-family="Times,serif" font-size="14.00">Project</text>
<polyline fill="none" stroke="black" points="315.182,-671.5 448.193,-671.5 "/>
<text text-anchor="start" x="323.182" y="-656.3" font-family="Times,serif" font-size="14.00">id :integer</text>
<text text-anchor="start" x="323.182" y="-642.3" font-family="Times,serif" font-size="14.00">title :string</text>
<text text-anchor="start" x="323.182" y="-628.3" font-family="Times,serif" font-size="14.00">description :string</text>
<text text-anchor="start" x="323.182" y="-614.3" font-family="Times,serif" font-size="14.00">status :string</text>
<text text-anchor="start" x="323.182" y="-600.3" font-family="Times,serif" font-size="14.00">created_at :datetime</text>
<text text-anchor="start" x="323.182" y="-586.3" font-family="Times,serif" font-size="14.00">updated_at :datetime</text>
<text text-anchor="start" x="323.182" y="-572.3" font-family="Times,serif" font-size="14.00">admin_id :integer</text>
</g>
<!-- ProjectSkill -->
<g id="node5" class="node"><title>ProjectSkill</title>
<path fill="none" stroke="black" d="M147.182,-228.5C147.182,-228.5 256.193,-228.5 256.193,-228.5 262.193,-228.5 268.193,-234.5 268.193,-240.5 268.193,-240.5 268.193,-316.5 268.193,-316.5 268.193,-322.5 262.193,-328.5 256.193,-328.5 256.193,-328.5 147.182,-328.5 147.182,-328.5 141.182,-328.5 135.182,-322.5 135.182,-316.5 135.182,-316.5 135.182,-240.5 135.182,-240.5 135.182,-234.5 141.182,-228.5 147.182,-228.5"/>
<text text-anchor="middle" x="201.688" y="-313.3" font-family="Times,serif" font-size="14.00">ProjectSkill</text>
<polyline fill="none" stroke="black" points="135.182,-306.5 268.193,-306.5 "/>
<text text-anchor="start" x="143.182" y="-291.3" font-family="Times,serif" font-size="14.00">id :integer</text>
<text text-anchor="start" x="143.182" y="-277.3" font-family="Times,serif" font-size="14.00">project_id :integer</text>
<text text-anchor="start" x="143.182" y="-263.3" font-family="Times,serif" font-size="14.00">skill_id :integer</text>
<text text-anchor="start" x="143.182" y="-249.3" font-family="Times,serif" font-size="14.00">created_at :datetime</text>
<text text-anchor="start" x="143.182" y="-235.3" font-family="Times,serif" font-size="14.00">updated_at :datetime</text>
</g>
<!-- Project&#45;&gt;ProjectSkill -->
<g id="edge6" class="edge"><title>Project&#45;&gt;ProjectSkill</title>
<path fill="none" stroke="#3ac30e" d="M329.793,-558.601C323.372,-548.86 317.153,-538.822 311.688,-529 287.965,-486.368 288.277,-472.682 268.688,-428 255.634,-398.224 240.795,-365.248 228.405,-337.949"/>
<ellipse fill="none" stroke="#3ac30e" cx="332.042" cy="-561.964" rx="4.00002" ry="4.00002"/>
<polygon fill="#3ac30e" stroke="#3ac30e" points="228.269,-337.649 228.229,-326.683 226.201,-333.097 224.132,-328.545 224.132,-328.545 224.132,-328.545 226.201,-333.097 220.035,-330.406 228.269,-337.649 228.269,-337.649"/>
</g>
<!-- Project&#45;&gt;Skill -->
<g id="edge7" class="edge"><title>Project&#45;&gt;Skill</title>
<path fill="none" stroke="#0f7cb7" d="M306.938,-565.2C306.855,-565.133 306.771,-565.066 306.688,-565 294.112,-554.975 280.572,-544.528 267.369,-534.52"/>
<polygon fill="#0f7cb7" stroke="#0f7cb7" points="307.004,-565.253 311.969,-575.03 310.898,-568.389 314.792,-571.525 314.792,-571.525 314.792,-571.525 310.898,-568.389 317.615,-568.02 307.004,-565.253 307.004,-565.253"/>
<polygon fill="#0f7cb7" stroke="#0f7cb7" points="267.183,-534.379 261.914,-524.761 263.193,-531.366 259.203,-528.352 259.203,-528.352 259.203,-528.352 263.193,-531.366 256.491,-531.943 267.183,-534.379 267.183,-534.379"/>
</g>
<!-- User -->
<g id="node7" class="node"><title>User</title>
<path fill="none" stroke="black" d="M355.41,-165.5C355.41,-165.5 535.966,-165.5 535.966,-165.5 541.966,-165.5 547.966,-171.5 547.966,-177.5 547.966,-177.5 547.966,-379.5 547.966,-379.5 547.966,-385.5 541.966,-391.5 535.966,-391.5 535.966,-391.5 355.41,-391.5 355.41,-391.5 349.41,-391.5 343.41,-385.5 343.41,-379.5 343.41,-379.5 343.41,-177.5 343.41,-177.5 343.41,-171.5 349.41,-165.5 355.41,-165.5"/>
<text text-anchor="middle" x="445.688" y="-376.3" font-family="Times,serif" font-size="14.00">User</text>
<polyline fill="none" stroke="black" points="343.41,-369.5 547.966,-369.5 "/>
<text text-anchor="start" x="351.41" y="-354.3" font-family="Times,serif" font-size="14.00">id :integer</text>
<text text-anchor="start" x="351.41" y="-340.3" font-family="Times,serif" font-size="14.00">email :string</text>
<text text-anchor="start" x="351.41" y="-326.3" font-family="Times,serif" font-size="14.00">encrypted_password :string</text>
<text text-anchor="start" x="351.41" y="-312.3" font-family="Times,serif" font-size="14.00">reset_password_token :string</text>
<text text-anchor="start" x="351.41" y="-298.3" font-family="Times,serif" font-size="14.00">reset_password_sent_at :datetime</text>
<text text-anchor="start" x="351.41" y="-284.3" font-family="Times,serif" font-size="14.00">remember_created_at :datetime</text>
<text text-anchor="start" x="351.41" y="-270.3" font-family="Times,serif" font-size="14.00">sign_in_count :integer</text>
<text text-anchor="start" x="351.41" y="-256.3" font-family="Times,serif" font-size="14.00">current_sign_in_at :datetime</text>
<text text-anchor="start" x="351.41" y="-242.3" font-family="Times,serif" font-size="14.00">last_sign_in_at :datetime</text>
<text text-anchor="start" x="351.41" y="-228.3" font-family="Times,serif" font-size="14.00">current_sign_in_ip :string</text>
<text text-anchor="start" x="351.41" y="-214.3" font-family="Times,serif" font-size="14.00">last_sign_in_ip :string</text>
<text text-anchor="start" x="351.41" y="-200.3" font-family="Times,serif" font-size="14.00">created_at :datetime</text>
<text text-anchor="start" x="351.41" y="-186.3" font-family="Times,serif" font-size="14.00">updated_at :datetime</text>
<text text-anchor="start" x="351.41" y="-172.3" font-family="Times,serif" font-size="14.00">name :string</text>
</g>
<!-- Project&#45;&gt;User -->
<g id="edge5" class="edge"><title>Project&#45;&gt;User</title>
<path fill="none" stroke="#c5f384" d="M395.089,-555.422C403.257,-510.88 413.902,-452.834 423.319,-401.48"/>
<polygon fill="#c5f384" stroke="#c5f384" points="395.081,-555.463 388.851,-564.487 394.18,-560.381 393.278,-565.299 393.278,-565.299 393.278,-565.299 394.18,-560.381 397.704,-566.11 395.081,-555.463 395.081,-555.463"/>
<polygon fill="#c5f384" stroke="#c5f384" points="423.32,-401.476 429.55,-392.452 424.221,-396.558 425.123,-391.64 425.123,-391.64 425.123,-391.64 424.221,-396.558 420.697,-390.828 423.32,-401.476 423.32,-401.476"/>
</g>
<!-- UserProject -->
<g id="node8" class="node"><title>UserProject</title>
<path fill="none" stroke="black" d="M391.182,-0.5C391.182,-0.5 500.193,-0.5 500.193,-0.5 506.193,-0.5 512.193,-6.5 512.193,-12.5 512.193,-12.5 512.193,-116.5 512.193,-116.5 512.193,-122.5 506.193,-128.5 500.193,-128.5 500.193,-128.5 391.182,-128.5 391.182,-128.5 385.182,-128.5 379.182,-122.5 379.182,-116.5 379.182,-116.5 379.182,-12.5 379.182,-12.5 379.182,-6.5 385.182,-0.5 391.182,-0.5"/>
<text text-anchor="middle" x="445.688" y="-113.3" font-family="Times,serif" font-size="14.00">UserProject</text>
<polyline fill="none" stroke="black" points="379.182,-106.5 512.193,-106.5 "/>
<text text-anchor="start" x="387.182" y="-91.3" font-family="Times,serif" font-size="14.00">id :integer</text>
<text text-anchor="start" x="387.182" y="-77.3" font-family="Times,serif" font-size="14.00">user_id :integer</text>
<text text-anchor="start" x="387.182" y="-63.3" font-family="Times,serif" font-size="14.00">project_id :integer</text>
<text text-anchor="start" x="387.182" y="-49.3" font-family="Times,serif" font-size="14.00">approved :boolean</text>
<text text-anchor="start" x="387.182" y="-35.3" font-family="Times,serif" font-size="14.00">created_at :datetime</text>
<text text-anchor="start" x="387.182" y="-21.3" font-family="Times,serif" font-size="14.00">updated_at :datetime</text>
<text text-anchor="start" x="387.182" y="-7.3" font-family="Times,serif" font-size="14.00">rated :boolean</text>
</g>
<!-- Project&#45;&gt;UserProject -->
<g id="edge4" class="edge"><title>Project&#45;&gt;UserProject</title>
<path fill="none" stroke="#2035be" d="M353.26,-557.599C320.167,-463.53 276.948,-294.299 334.688,-165 342.91,-146.587 356.41,-130.166 371.213,-116.228"/>
<ellipse fill="none" stroke="#2035be" cx="354.681" cy="-561.584" rx="4.00001" ry="4.00001"/>
<polygon fill="#2035be" stroke="#2035be" points="371.621,-115.861 382.064,-112.513 375.337,-112.515 379.052,-109.169 379.052,-109.169 379.052,-109.169 375.337,-112.515 376.041,-105.825 371.621,-115.861 371.621,-115.861"/>
</g>
<!-- Skill&#45;&gt;ProjectSkill -->
<g id="edge12" class="edge"><title>Skill&#45;&gt;ProjectSkill</title>
<path fill="none" stroke="#13991a" d="M195.288,-420.301C196.45,-394.738 197.819,-364.622 198.992,-338.816"/>
<ellipse fill="none" stroke="#13991a" cx="195.106" cy="-424.306" rx="4" ry="4"/>
<polygon fill="#13991a" stroke="#13991a" points="198.993,-338.778 203.943,-328.993 199.22,-333.783 199.447,-328.788 199.447,-328.788 199.447,-328.788 199.22,-333.783 194.952,-328.584 198.993,-338.778 198.993,-338.778"/>
</g>
<!-- Skill&#45;&gt;User -->
<g id="edge11" class="edge"><title>Skill&#45;&gt;User</title>
<path fill="none" stroke="#a96e1e" d="M263.45,-422.121C285.765,-404.657 310.972,-384.93 335.364,-365.841"/>
<polygon fill="#a96e1e" stroke="#a96e1e" points="263.427,-422.139 252.779,-424.758 259.49,-425.22 255.552,-428.302 255.552,-428.302 255.552,-428.302 259.49,-425.22 258.326,-431.846 263.427,-422.139 263.427,-422.139"/>
<polygon fill="#a96e1e" stroke="#a96e1e" points="335.374,-365.832 346.023,-363.213 339.312,-362.751 343.25,-359.669 343.25,-359.669 343.25,-359.669 339.312,-362.751 340.476,-356.125 335.374,-365.832 335.374,-365.832"/>
</g>
<!-- UserSkill -->
<g id="node9" class="node"><title>UserSkill</title>
<path fill="none" stroke="black" d="M52.1824,-7.5C52.1824,-7.5 161.193,-7.5 161.193,-7.5 167.193,-7.5 173.193,-13.5 173.193,-19.5 173.193,-19.5 173.193,-109.5 173.193,-109.5 173.193,-115.5 167.193,-121.5 161.193,-121.5 161.193,-121.5 52.1824,-121.5 52.1824,-121.5 46.1824,-121.5 40.1824,-115.5 40.1824,-109.5 40.1824,-109.5 40.1824,-19.5 40.1824,-19.5 40.1824,-13.5 46.1824,-7.5 52.1824,-7.5"/>
<text text-anchor="middle" x="106.688" y="-106.3" font-family="Times,serif" font-size="14.00">UserSkill</text>
<polyline fill="none" stroke="black" points="40.1824,-99.5 173.193,-99.5 "/>
<text text-anchor="start" x="48.1824" y="-84.3" font-family="Times,serif" font-size="14.00">id :integer</text>
<text text-anchor="start" x="48.1824" y="-70.3" font-family="Times,serif" font-size="14.00">user_id :integer</text>
<text text-anchor="start" x="48.1824" y="-56.3" font-family="Times,serif" font-size="14.00">skill_id :integer</text>
<text text-anchor="start" x="48.1824" y="-42.3" font-family="Times,serif" font-size="14.00">created_at :datetime</text>
<text text-anchor="start" x="48.1824" y="-28.3" font-family="Times,serif" font-size="14.00">updated_at :datetime</text>
<text text-anchor="start" x="48.1824" y="-14.3" font-family="Times,serif" font-size="14.00">score :integer</text>
</g>
<!-- Skill&#45;&gt;UserSkill -->
<g id="edge10" class="edge"><title>Skill&#45;&gt;UserSkill</title>
<path fill="none" stroke="#3a9d1d" d="M141.367,-421.509C135.097,-412.194 129.551,-402.22 125.688,-392 93.3673,-306.497 94.1827,-199.416 99.2402,-131.708"/>
<ellipse fill="none" stroke="#3a9d1d" cx="143.747" cy="-424.896" rx="4.00002" ry="4.00002"/>
<polygon fill="#3a9d1d" stroke="#3a9d1d" points="99.2513,-131.568 104.534,-121.959 99.65,-126.584 100.049,-121.6 100.049,-121.6 100.049,-121.6 99.65,-126.584 95.563,-121.241 99.2513,-131.568 99.2513,-131.568"/>
</g>
<!-- User&#45;&gt;Notification -->
<g id="edge16" class="edge"><title>User&#45;&gt;Notification</title>
<path fill="none" stroke="#df8e23" d="M534.833,-158.64C544.173,-146.186 553.334,-133.972 561.788,-122.699"/>
<ellipse fill="none" stroke="#df8e23" cx="532.244" cy="-162.092" rx="4.00002" ry="4.00002"/>
<polygon fill="#df8e23" stroke="#df8e23" points="561.812,-122.668 571.412,-117.368 564.812,-118.668 567.812,-114.668 567.812,-114.668 567.812,-114.668 564.812,-118.668 564.212,-111.968 561.812,-122.668 561.812,-122.668"/>
</g>
<!-- User&#45;&gt;UserProject -->
<g id="edge15" class="edge"><title>User&#45;&gt;UserProject</title>
<path fill="none" stroke="#9569c1" d="M445.688,-157.039C445.688,-150.769 445.688,-144.568 445.688,-138.525"/>
<ellipse fill="none" stroke="#9569c1" cx="445.688" cy="-161.292" rx="4" ry="4"/>
<polygon fill="#9569c1" stroke="#9569c1" points="445.688,-138.522 450.188,-128.522 445.688,-133.522 445.688,-128.522 445.688,-128.522 445.688,-128.522 445.688,-133.522 441.188,-128.522 445.688,-138.522 445.688,-138.522"/>
</g>
<!-- User&#45;&gt;UserSkill -->
<g id="edge14" class="edge"><title>User&#45;&gt;UserSkill</title>
<path fill="none" stroke="#0e6571" d="M336.455,-202.911C317.019,-190.054 296.86,-176.981 277.688,-165 246.802,-145.7 212.166,-125.318 182.184,-108.061"/>
<ellipse fill="none" stroke="#0e6571" cx="339.963" cy="-205.238" rx="4.00002" ry="4.00002"/>
<polygon fill="#0e6571" stroke="#0e6571" points="182.122,-108.026 175.691,-99.1441 177.786,-105.536 173.45,-103.047 173.45,-103.047 173.45,-103.047 177.786,-105.536 171.209,-106.949 182.122,-108.026 182.122,-108.026"/>
</g>
<!-- ActiveRecord::Base -->
<g id="node10" class="node"><title>ActiveRecord::Base</title>
<ellipse fill="none" stroke="black" cx="306.688" cy="-766.5" rx="81.1422" ry="18"/>
<text text-anchor="middle" x="306.688" y="-762.3" font-family="Times,serif" font-size="14.00">ActiveRecord::Base</text>
</g>
<!-- ActiveRecord::Base&#45;&gt;Category -->
<g id="edge2" class="edge"><title>ActiveRecord::Base&#45;&gt;Category</title>
<path fill="none" stroke="black" d="M297.062,-748.402C286.398,-729.458 268.806,-698.209 254.411,-672.641"/>
</g>
<!-- ActiveRecord::Base&#45;&gt;Notification -->
<g id="edge3" class="edge"><title>ActiveRecord::Base&#45;&gt;Notification</title>
<path fill="none" stroke="black" d="M383.997,-760.781C433.75,-753.575 495.943,-736.047 533.688,-694 682.227,-528.528 640.198,-231.582 616.143,-114.694"/>
</g>
<!-- ActiveRecord::Base&#45;&gt;Project -->
<g id="edge8" class="edge"><title>ActiveRecord::Base&#45;&gt;Project</title>
<path fill="none" stroke="black" d="M316.187,-748.402C323.952,-734.425 335.438,-713.749 346.633,-693.598"/>
</g>
<!-- ActiveRecord::Base&#45;&gt;ProjectSkill -->
<g id="edge9" class="edge"><title>ActiveRecord::Base&#45;&gt;ProjectSkill</title>
<path fill="none" stroke="black" d="M269.116,-750.434C219.157,-730.322 136.844,-696.88 134.688,-694 63.6638,-599.152 86.233,-542.512 116.688,-428 126.193,-392.259 146.557,-356.159 164.969,-328.503"/>
</g>
<!-- ActiveRecord::Base&#45;&gt;Skill -->
<g id="edge13" class="edge"><title>ActiveRecord::Base&#45;&gt;Skill</title>
<path fill="none" stroke="black" d="M269.377,-750.413C226.561,-732.726 161.349,-704.495 154.688,-694 122.97,-644.029 144.234,-574.992 165.554,-528.875"/>
</g>
<!-- ActiveRecord::Base&#45;&gt;User -->
<g id="edge17" class="edge"><title>ActiveRecord::Base&#45;&gt;User</title>
<path fill="none" stroke="black" d="M365.381,-753.858C398.6,-743.94 437.444,-725.984 457.688,-694 514.382,-604.426 501.885,-480.76 481.037,-391.856"/>
</g>
<!-- ActiveRecord::Base&#45;&gt;UserProject -->
<g id="edge18" class="edge"><title>ActiveRecord::Base&#45;&gt;UserProject</title>
<path fill="none" stroke="black" d="M372.779,-755.831C412.551,-746.582 461.057,-728.636 490.688,-694 580,-589.6 541.936,-528.596 556.688,-392 567.52,-291.694 597.825,-257.121 556.688,-165 551.332,-153.007 532.774,-134.883 512.325,-117.375"/>
</g>
<!-- ActiveRecord::Base&#45;&gt;UserSkill -->
<g id="edge19" class="edge"><title>ActiveRecord::Base&#45;&gt;UserSkill</title>
<path fill="none" stroke="black" d="M270.679,-750.233C254.351,-743.588 234.704,-735.971 216.688,-730 158.559,-710.735 120.905,-742.631 83.6877,-694 -47.5372,-522.533 37.6941,-240.946 83.2751,-121.679"/>
</g>
</g>
</svg>
