<?xml version="1.0" encoding="UTF-8" standalone="no"?>
<!DOCTYPE svg PUBLIC "-//W3C//DTD SVG 1.1//EN"
 "http://www.w3.org/Graphics/SVG/1.1/DTD/svg11.dtd">
<!-- Generated by graphviz version 2.38.0 (20140413.2041)
 -->
<!-- Title: models_diagram Pages: 1 -->
<svg width="819pt" height="962pt"
 viewBox="0.00 0.00 819.14 962.00" xmlns="http://www.w3.org/2000/svg" xmlns:xlink="http://www.w3.org/1999/xlink">
<g id="graph0" class="graph" transform="scale(1 1) rotate(0) translate(4 958)">
<title>models_diagram</title>
<polygon fill="white" stroke="none" points="-4,4 -4,-958 815.139,-958 815.139,4 -4,4"/>
<!-- _diagram_info -->
<g id="node1" class="node"><title>_diagram_info</title>
<text text-anchor="start" x="58.1567" y="-939.6" font-family="Times,serif" font-size="13.00">Models diagram</text>
<text text-anchor="start" x="58.1567" y="-926.6" font-family="Times,serif" font-size="13.00">Date: Aug 10 2014 &#45; 14:30</text>
<text text-anchor="start" x="58.1567" y="-913.6" font-family="Times,serif" font-size="13.00">Migration version: 20140809000201</text>
<text text-anchor="start" x="58.1567" y="-900.6" font-family="Times,serif" font-size="13.00">Generated by RailRoady 1.1.1</text>
<text text-anchor="start" x="58.1567" y="-887.6" font-family="Times,serif" font-size="13.00">http://railroady.prestonlee.com</text>
</g>
<!-- Category -->
<g id="node2" class="node"><title>Category</title>
<path fill="none" stroke="black" d="M92.339,-737.5C92.339,-737.5 201.35,-737.5 201.35,-737.5 207.35,-737.5 213.35,-743.5 213.35,-749.5 213.35,-749.5 213.35,-811.5 213.35,-811.5 213.35,-817.5 207.35,-823.5 201.35,-823.5 201.35,-823.5 92.339,-823.5 92.339,-823.5 86.339,-823.5 80.339,-817.5 80.339,-811.5 80.339,-811.5 80.339,-749.5 80.339,-749.5 80.339,-743.5 86.339,-737.5 92.339,-737.5"/>
<text text-anchor="middle" x="146.844" y="-808.3" font-family="Times,serif" font-size="14.00">Category</text>
<polyline fill="none" stroke="black" points="80.339,-801.5 213.35,-801.5 "/>
<text text-anchor="start" x="88.339" y="-786.3" font-family="Times,serif" font-size="14.00">id :integer</text>
<text text-anchor="start" x="88.339" y="-772.3" font-family="Times,serif" font-size="14.00">name :string</text>
<text text-anchor="start" x="88.339" y="-758.3" font-family="Times,serif" font-size="14.00">created_at :datetime</text>
<text text-anchor="start" x="88.339" y="-744.3" font-family="Times,serif" font-size="14.00">updated_at :datetime</text>
</g>
<!-- Skill -->
<g id="node7" class="node"><title>Skill</title>
<path fill="none" stroke="black" d="M83.339,-579.5C83.339,-579.5 192.35,-579.5 192.35,-579.5 198.35,-579.5 204.35,-585.5 204.35,-591.5 204.35,-591.5 204.35,-667.5 204.35,-667.5 204.35,-673.5 198.35,-679.5 192.35,-679.5 192.35,-679.5 83.339,-679.5 83.339,-679.5 77.339,-679.5 71.339,-673.5 71.339,-667.5 71.339,-667.5 71.339,-591.5 71.339,-591.5 71.339,-585.5 77.339,-579.5 83.339,-579.5"/>
<text text-anchor="middle" x="137.844" y="-664.3" font-family="Times,serif" font-size="14.00">Skill</text>
<polyline fill="none" stroke="black" points="71.339,-657.5 204.35,-657.5 "/>
<text text-anchor="start" x="79.339" y="-642.3" font-family="Times,serif" font-size="14.00">id :integer</text>
<text text-anchor="start" x="79.339" y="-628.3" font-family="Times,serif" font-size="14.00">name :string</text>
<text text-anchor="start" x="79.339" y="-614.3" font-family="Times,serif" font-size="14.00">created_at :datetime</text>
<text text-anchor="start" x="79.339" y="-600.3" font-family="Times,serif" font-size="14.00">updated_at :datetime</text>
<text text-anchor="start" x="79.339" y="-586.3" font-family="Times,serif" font-size="14.00">category_id :integer</text>
</g>
<!-- Category&#45;&gt;Skill -->
<g id="edge1" class="edge"><title>Category&#45;&gt;Skill</title>
<path fill="none" stroke="#c8517f" d="M143.797,-729.047C143.038,-716.49 142.218,-702.913 141.436,-689.968"/>
<ellipse fill="none" stroke="#c8517f" cx="144.048" cy="-733.208" rx="4" ry="4"/>
<polygon fill="#c8517f" stroke="#c8517f" points="141.422,-689.735 145.311,-679.481 141.121,-684.744 140.819,-679.753 140.819,-679.753 140.819,-679.753 141.121,-684.744 136.328,-680.024 141.422,-689.735 141.422,-689.735"/>
</g>
<!-- Message -->
<g id="node3" class="node"><title>Message</title>
<path fill="none" stroke="black" d="M292.339,-158.5C292.339,-158.5 401.35,-158.5 401.35,-158.5 407.35,-158.5 413.35,-164.5 413.35,-170.5 413.35,-170.5 413.35,-260.5 413.35,-260.5 413.35,-266.5 407.35,-272.5 401.35,-272.5 401.35,-272.5 292.339,-272.5 292.339,-272.5 286.339,-272.5 280.339,-266.5 280.339,-260.5 280.339,-260.5 280.339,-170.5 280.339,-170.5 280.339,-164.5 286.339,-158.5 292.339,-158.5"/>
<text text-anchor="middle" x="346.844" y="-257.3" font-family="Times,serif" font-size="14.00">Message</text>
<polyline fill="none" stroke="black" points="280.339,-250.5 413.35,-250.5 "/>
<text text-anchor="start" x="288.339" y="-235.3" font-family="Times,serif" font-size="14.00">id :integer</text>
<text text-anchor="start" x="288.339" y="-221.3" font-family="Times,serif" font-size="14.00">user_id :integer</text>
<text text-anchor="start" x="288.339" y="-207.3" font-family="Times,serif" font-size="14.00">project_id :integer</text>
<text text-anchor="start" x="288.339" y="-193.3" font-family="Times,serif" font-size="14.00">text :string</text>
<text text-anchor="start" x="288.339" y="-179.3" font-family="Times,serif" font-size="14.00">created_at :datetime</text>
<text text-anchor="start" x="288.339" y="-165.3" font-family="Times,serif" font-size="14.00">updated_at :datetime</text>
</g>
<!-- Notification -->
<g id="node4" class="node"><title>Notification</title>
<path fill="none" stroke="black" d="M594.339,-158.5C594.339,-158.5 703.35,-158.5 703.35,-158.5 709.35,-158.5 715.35,-164.5 715.35,-170.5 715.35,-170.5 715.35,-260.5 715.35,-260.5 715.35,-266.5 709.35,-272.5 703.35,-272.5 703.35,-272.5 594.339,-272.5 594.339,-272.5 588.339,-272.5 582.339,-266.5 582.339,-260.5 582.339,-260.5 582.339,-170.5 582.339,-170.5 582.339,-164.5 588.339,-158.5 594.339,-158.5"/>
<text text-anchor="middle" x="648.844" y="-257.3" font-family="Times,serif" font-size="14.00">Notification</text>
<polyline fill="none" stroke="black" points="582.339,-250.5 715.35,-250.5 "/>
<text text-anchor="start" x="590.339" y="-235.3" font-family="Times,serif" font-size="14.00">id :integer</text>
<text text-anchor="start" x="590.339" y="-221.3" font-family="Times,serif" font-size="14.00">user_id :integer</text>
<text text-anchor="start" x="590.339" y="-207.3" font-family="Times,serif" font-size="14.00">content :string</text>
<text text-anchor="start" x="590.339" y="-193.3" font-family="Times,serif" font-size="14.00">created_at :datetime</text>
<text text-anchor="start" x="590.339" y="-179.3" font-family="Times,serif" font-size="14.00">updated_at :datetime</text>
<text text-anchor="start" x="590.339" y="-165.3" font-family="Times,serif" font-size="14.00">project_id :integer</text>
</g>
<!-- Project -->
<g id="node5" class="node"><title>Project</title>
<path fill="none" stroke="black" d="M349.339,-716.5C349.339,-716.5 458.35,-716.5 458.35,-716.5 464.35,-716.5 470.35,-722.5 470.35,-728.5 470.35,-728.5 470.35,-832.5 470.35,-832.5 470.35,-838.5 464.35,-844.5 458.35,-844.5 458.35,-844.5 349.339,-844.5 349.339,-844.5 343.339,-844.5 337.339,-838.5 337.339,-832.5 337.339,-832.5 337.339,-728.5 337.339,-728.5 337.339,-722.5 343.339,-716.5 349.339,-716.5"/>
<text text-anchor="middle" x="403.844" y="-829.3" font-family="Times,serif" font-size="14.00">Project</text>
<polyline fill="none" stroke="black" points="337.339,-822.5 470.35,-822.5 "/>
<text text-anchor="start" x="345.339" y="-807.3" font-family="Times,serif" font-size="14.00">id :integer</text>
<text text-anchor="start" x="345.339" y="-793.3" font-family="Times,serif" font-size="14.00">title :string</text>
<text text-anchor="start" x="345.339" y="-779.3" font-family="Times,serif" font-size="14.00">description :string</text>
<text text-anchor="start" x="345.339" y="-765.3" font-family="Times,serif" font-size="14.00">status :string</text>
<text text-anchor="start" x="345.339" y="-751.3" font-family="Times,serif" font-size="14.00">created_at :datetime</text>
<text text-anchor="start" x="345.339" y="-737.3" font-family="Times,serif" font-size="14.00">updated_at :datetime</text>
<text text-anchor="start" x="345.339" y="-723.3" font-family="Times,serif" font-size="14.00">admin_id :integer</text>
</g>
<!-- Project&#45;&gt;Message -->
<g id="edge7" class="edge"><title>Project&#45;&gt;Message</title>
<path fill="none" stroke="#334730" d="M390.517,-708.531C382.198,-661.693 371.944,-598.883 365.844,-543 356.049,-453.256 351.092,-349.046 348.742,-282.956"/>
<ellipse fill="none" stroke="#334730" cx="391.237" cy="-712.558" rx="4.00001" ry="4.00001"/>
<polygon fill="#334730" stroke="#334730" points="348.732,-282.679 352.884,-272.529 348.559,-277.682 348.387,-272.685 348.387,-272.685 348.387,-272.685 348.559,-277.682 343.889,-272.84 348.732,-282.679 348.732,-282.679"/>
</g>
<!-- ProjectSkill -->
<g id="node6" class="node"><title>ProjectSkill</title>
<path fill="none" stroke="black" d="M46.339,-379.5C46.339,-379.5 155.35,-379.5 155.35,-379.5 161.35,-379.5 167.35,-385.5 167.35,-391.5 167.35,-391.5 167.35,-467.5 167.35,-467.5 167.35,-473.5 161.35,-479.5 155.35,-479.5 155.35,-479.5 46.339,-479.5 46.339,-479.5 40.339,-479.5 34.339,-473.5 34.339,-467.5 34.339,-467.5 34.339,-391.5 34.339,-391.5 34.339,-385.5 40.339,-379.5 46.339,-379.5"/>
<text text-anchor="middle" x="100.844" y="-464.3" font-family="Times,serif" font-size="14.00">ProjectSkill</text>
<polyline fill="none" stroke="black" points="34.339,-457.5 167.35,-457.5 "/>
<text text-anchor="start" x="42.339" y="-442.3" font-family="Times,serif" font-size="14.00">id :integer</text>
<text text-anchor="start" x="42.339" y="-428.3" font-family="Times,serif" font-size="14.00">project_id :integer</text>
<text text-anchor="start" x="42.339" y="-414.3" font-family="Times,serif" font-size="14.00">skill_id :integer</text>
<text text-anchor="start" x="42.339" y="-400.3" font-family="Times,serif" font-size="14.00">created_at :datetime</text>
<text text-anchor="start" x="42.339" y="-386.3" font-family="Times,serif" font-size="14.00">updated_at :datetime</text>
</g>
<!-- Project&#45;&gt;ProjectSkill -->
<g id="edge8" class="edge"><title>Project&#45;&gt;ProjectSkill</title>
<path fill="none" stroke="#f2e186" d="M330.225,-741.306C304.419,-725.128 276.901,-704.345 256.844,-680 225.822,-642.346 238.36,-621.181 213.844,-579 195.329,-547.144 170.962,-514.282 149.597,-487.597"/>
<ellipse fill="none" stroke="#f2e186" cx="333.688" cy="-743.436" rx="4.00002" ry="4.00002"/>
<polygon fill="#f2e186" stroke="#f2e186" points="149.357,-487.3 146.573,-476.693 146.215,-483.41 143.072,-479.521 143.072,-479.521 143.072,-479.521 146.215,-483.41 139.572,-482.349 149.357,-487.3 149.357,-487.3"/>
</g>
<!-- Project&#45;&gt;Skill -->
<g id="edge9" class="edge"><title>Project&#45;&gt;Skill</title>
<path fill="none" stroke="#a431d4" d="M328.124,-739.984C294.43,-722.091 254.413,-700.413 218.844,-680 217.076,-678.985 215.288,-677.952 213.489,-676.906"/>
<polygon fill="#a431d4" stroke="#a431d4" points="328.161,-740.004 334.89,-748.663 332.579,-742.346 336.997,-744.687 336.997,-744.687 336.997,-744.687 332.579,-742.346 339.105,-740.711 328.161,-740.004 328.161,-740.004"/>
<polygon fill="#a431d4" stroke="#a431d4" points="213.041,-676.643 206.693,-667.701 208.728,-674.113 204.416,-671.582 204.416,-671.582 204.416,-671.582 208.728,-674.113 202.138,-675.463 213.041,-676.643 213.041,-676.643"/>
</g>
<!-- User -->
<g id="node8" class="node"><title>User</title>
<path fill="none" stroke="black" d="M386.567,-316.5C386.567,-316.5 567.122,-316.5 567.122,-316.5 573.122,-316.5 579.122,-322.5 579.122,-328.5 579.122,-328.5 579.122,-530.5 579.122,-530.5 579.122,-536.5 573.122,-542.5 567.122,-542.5 567.122,-542.5 386.567,-542.5 386.567,-542.5 380.567,-542.5 374.567,-536.5 374.567,-530.5 374.567,-530.5 374.567,-328.5 374.567,-328.5 374.567,-322.5 380.567,-316.5 386.567,-316.5"/>
<text text-anchor="middle" x="476.844" y="-527.3" font-family="Times,serif" font-size="14.00">User</text>
<polyline fill="none" stroke="black" points="374.567,-520.5 579.122,-520.5 "/>
<text text-anchor="start" x="382.567" y="-505.3" font-family="Times,serif" font-size="14.00">id :integer</text>
<text text-anchor="start" x="382.567" y="-491.3" font-family="Times,serif" font-size="14.00">email :string</text>
<text text-anchor="start" x="382.567" y="-477.3" font-family="Times,serif" font-size="14.00">encrypted_password :string</text>
<text text-anchor="start" x="382.567" y="-463.3" font-family="Times,serif" font-size="14.00">reset_password_token :string</text>
<text text-anchor="start" x="382.567" y="-449.3" font-family="Times,serif" font-size="14.00">reset_password_sent_at :datetime</text>
<text text-anchor="start" x="382.567" y="-435.3" font-family="Times,serif" font-size="14.00">remember_created_at :datetime</text>
<text text-anchor="start" x="382.567" y="-421.3" font-family="Times,serif" font-size="14.00">sign_in_count :integer</text>
<text text-anchor="start" x="382.567" y="-407.3" font-family="Times,serif" font-size="14.00">current_sign_in_at :datetime</text>
<text text-anchor="start" x="382.567" y="-393.3" font-family="Times,serif" font-size="14.00">last_sign_in_at :datetime</text>
<text text-anchor="start" x="382.567" y="-379.3" font-family="Times,serif" font-size="14.00">current_sign_in_ip :string</text>
<text text-anchor="start" x="382.567" y="-365.3" font-family="Times,serif" font-size="14.00">last_sign_in_ip :string</text>
<text text-anchor="start" x="382.567" y="-351.3" font-family="Times,serif" font-size="14.00">created_at :datetime</text>
<text text-anchor="start" x="382.567" y="-337.3" font-family="Times,serif" font-size="14.00">updated_at :datetime</text>
<text text-anchor="start" x="382.567" y="-323.3" font-family="Times,serif" font-size="14.00">name :string</text>
</g>
<!-- Project&#45;&gt;User -->
<g id="edge6" class="edge"><title>Project&#45;&gt;User</title>
<path fill="none" stroke="#ef77e8" d="M419.13,-706.422C428.447,-661.88 440.588,-603.834 451.33,-552.48"/>
<polygon fill="#ef77e8" stroke="#ef77e8" points="419.112,-706.511 412.659,-715.377 418.088,-711.405 417.064,-716.299 417.064,-716.299 417.064,-716.299 418.088,-711.405 421.469,-717.22 419.112,-706.511 419.112,-706.511"/>
<polygon fill="#ef77e8" stroke="#ef77e8" points="451.341,-552.428 457.793,-543.561 452.364,-547.534 453.388,-542.64 453.388,-542.64 453.388,-542.64 452.364,-547.534 448.983,-541.719 451.341,-552.428 451.341,-552.428"/>
</g>
<!-- UserProject -->
<g id="node9" class="node"><title>UserProject</title>
<path fill="none" stroke="black" d="M443.339,-151.5C443.339,-151.5 552.35,-151.5 552.35,-151.5 558.35,-151.5 564.35,-157.5 564.35,-163.5 564.35,-163.5 564.35,-267.5 564.35,-267.5 564.35,-273.5 558.35,-279.5 552.35,-279.5 552.35,-279.5 443.339,-279.5 443.339,-279.5 437.339,-279.5 431.339,-273.5 431.339,-267.5 431.339,-267.5 431.339,-163.5 431.339,-163.5 431.339,-157.5 437.339,-151.5 443.339,-151.5"/>
<text text-anchor="middle" x="497.844" y="-264.3" font-family="Times,serif" font-size="14.00">UserProject</text>
<polyline fill="none" stroke="black" points="431.339,-257.5 564.35,-257.5 "/>
<text text-anchor="start" x="439.339" y="-242.3" font-family="Times,serif" font-size="14.00">id :integer</text>
<text text-anchor="start" x="439.339" y="-228.3" font-family="Times,serif" font-size="14.00">user_id :integer</text>
<text text-anchor="start" x="439.339" y="-214.3" font-family="Times,serif" font-size="14.00">project_id :integer</text>
<text text-anchor="start" x="439.339" y="-200.3" font-family="Times,serif" font-size="14.00">approved :boolean</text>
<text text-anchor="start" x="439.339" y="-186.3" font-family="Times,serif" font-size="14.00">created_at :datetime</text>
<text text-anchor="start" x="439.339" y="-172.3" font-family="Times,serif" font-size="14.00">updated_at :datetime</text>
<text text-anchor="start" x="439.339" y="-158.3" font-family="Times,serif" font-size="14.00">invitation :boolean</text>
</g>
<!-- Project&#45;&gt;UserProject -->
<g id="edge5" class="edge"><title>Project&#45;&gt;UserProject</title>
<path fill="none" stroke="#a15656" d="M476.229,-712.101C517.629,-668.423 565.623,-607.75 587.844,-543 620.594,-447.574 624.107,-410.147 587.844,-316 583.626,-305.047 577.581,-294.551 570.592,-284.756"/>
<ellipse fill="none" stroke="#a15656" cx="473.462" cy="-714.991" rx="4.00002" ry="4.00002"/>
<polygon fill="#a15656" stroke="#a15656" points="570.538,-284.684 568.112,-273.99 567.528,-280.692 564.519,-276.699 564.519,-276.699 564.519,-276.699 567.528,-280.692 560.925,-279.407 570.538,-284.684 570.538,-284.684"/>
</g>
<!-- UserSkill -->
<g id="node10" class="node"><title>UserSkill</title>
<path fill="none" stroke="black" d="M141.339,-158.5C141.339,-158.5 250.35,-158.5 250.35,-158.5 256.35,-158.5 262.35,-164.5 262.35,-170.5 262.35,-170.5 262.35,-260.5 262.35,-260.5 262.35,-266.5 256.35,-272.5 250.35,-272.5 250.35,-272.5 141.339,-272.5 141.339,-272.5 135.339,-272.5 129.339,-266.5 129.339,-260.5 129.339,-260.5 129.339,-170.5 129.339,-170.5 129.339,-164.5 135.339,-158.5 141.339,-158.5"/>
<text text-anchor="middle" x="195.844" y="-257.3" font-family="Times,serif" font-size="14.00">UserSkill</text>
<polyline fill="none" stroke="black" points="129.339,-250.5 262.35,-250.5 "/>
<text text-anchor="start" x="137.339" y="-235.3" font-family="Times,serif" font-size="14.00">id :integer</text>
<text text-anchor="start" x="137.339" y="-221.3" font-family="Times,serif" font-size="14.00">user_id :integer</text>
<text text-anchor="start" x="137.339" y="-207.3" font-family="Times,serif" font-size="14.00">skill_id :integer</text>
<text text-anchor="start" x="137.339" y="-193.3" font-family="Times,serif" font-size="14.00">created_at :datetime</text>
<text text-anchor="start" x="137.339" y="-179.3" font-family="Times,serif" font-size="14.00">updated_at :datetime</text>
<text text-anchor="start" x="137.339" y="-165.3" font-family="Times,serif" font-size="14.00">score :integer</text>
</g>
<!-- Project&#45;&gt;UserSkill -->
<g id="edge11" class="edge"><title>Project&#45;&gt;UserSkill</title>
<path fill="none" stroke="#9dfc0e" d="M376.839,-706.943C373.47,-697.873 370.075,-688.722 366.844,-680 314.315,-538.181 253.024,-371.837 219.961,-282.032"/>
<polygon fill="#9dfc0e" stroke="#9dfc0e" points="376.849,-706.972 376.114,-717.913 378.591,-711.659 380.332,-716.346 380.332,-716.346 380.332,-716.346 378.591,-711.659 384.55,-714.778 376.849,-706.972 376.849,-706.972"/>
<polygon fill="#9dfc0e" stroke="#9dfc0e" points="219.916,-281.909 220.684,-270.97 218.188,-277.217 216.461,-272.525 216.461,-272.525 216.461,-272.525 218.188,-277.217 212.238,-274.079 219.916,-281.909 219.916,-281.909"/>
</g>
<!-- UserSkillProject -->
<g id="node11" class="node"><title>UserSkillProject</title>
<path fill="none" stroke="black" d="M688.549,-0.5C688.549,-0.5 799.139,-0.5 799.139,-0.5 805.139,-0.5 811.139,-6.5 811.139,-12.5 811.139,-12.5 811.139,-102.5 811.139,-102.5 811.139,-108.5 805.139,-114.5 799.139,-114.5 799.139,-114.5 688.549,-114.5 688.549,-114.5 682.549,-114.5 676.549,-108.5 676.549,-102.5 676.549,-102.5 676.549,-12.5 676.549,-12.5 676.549,-6.5 682.549,-0.5 688.549,-0.5"/>
<text text-anchor="middle" x="743.844" y="-99.3" font-family="Times,serif" font-size="14.00">UserSkillProject</text>
<polyline fill="none" stroke="black" points="676.549,-92.5 811.139,-92.5 "/>
<text text-anchor="start" x="684.549" y="-77.3" font-family="Times,serif" font-size="14.00">id :integer</text>
<text text-anchor="start" x="684.549" y="-63.3" font-family="Times,serif" font-size="14.00">user_skill_id :integer</text>
<text text-anchor="start" x="684.549" y="-49.3" font-family="Times,serif" font-size="14.00">project_id :integer</text>
<text text-anchor="start" x="684.549" y="-35.3" font-family="Times,serif" font-size="14.00">endorsed :boolean</text>
<text text-anchor="start" x="684.549" y="-21.3" font-family="Times,serif" font-size="14.00">created_at :datetime</text>
<text text-anchor="start" x="684.549" y="-7.3" font-family="Times,serif" font-size="14.00">updated_at :datetime</text>
</g>
<!-- Project&#45;&gt;UserSkillProject -->
<g id="edge10" class="edge"><title>Project&#45;&gt;UserSkillProject</title>
<path fill="none" stroke="#25a5de" d="M477.783,-742.108C504.405,-725.856 532.988,-704.815 553.844,-680 581.146,-647.517 700.962,-376.56 724.844,-280 737.482,-228.904 742.047,-169.387 743.554,-124.923"/>
<ellipse fill="none" stroke="#25a5de" cx="474.131" cy="-744.295" rx="4.00002" ry="4.00002"/>
<polygon fill="#25a5de" stroke="#25a5de" points="743.557,-124.813 748.351,-114.951 743.705,-119.815 743.853,-114.817 743.853,-114.817 743.853,-114.817 743.705,-119.815 739.355,-114.684 743.557,-124.813 743.557,-124.813"/>
</g>
<!-- Skill&#45;&gt;ProjectSkill -->
<g id="edge16" class="edge"><title>Skill&#45;&gt;ProjectSkill</title>
<path fill="none" stroke="#0e8711" d="M127.156,-571.301C122.379,-545.738 116.751,-515.622 111.929,-489.816"/>
<ellipse fill="none" stroke="#0e8711" cx="127.916" cy="-575.37" rx="4.00001" ry="4.00001"/>
<polygon fill="#0e8711" stroke="#0e8711" points="111.892,-489.618 114.478,-478.962 110.973,-484.703 110.055,-479.788 110.055,-479.788 110.055,-479.788 110.973,-484.703 105.631,-480.615 111.892,-489.618 111.892,-489.618"/>
</g>
<!-- Skill&#45;&gt;User -->
<g id="edge15" class="edge"><title>Skill&#45;&gt;User</title>
<path fill="none" stroke="#d6aef0" d="M213.103,-584.544C257.871,-558.396 315.497,-524.738 365.459,-495.557"/>
<polygon fill="#d6aef0" stroke="#d6aef0" points="213.05,-584.574 202.146,-585.732 208.733,-587.096 204.415,-589.618 204.415,-589.618 204.415,-589.618 208.733,-587.096 206.685,-593.504 213.05,-584.574 213.05,-584.574"/>
<polygon fill="#d6aef0" stroke="#d6aef0" points="365.736,-495.395 376.64,-494.238 370.053,-492.874 374.371,-490.352 374.371,-490.352 374.371,-490.352 370.053,-492.874 372.101,-486.466 365.736,-495.395 365.736,-495.395"/>
</g>
<!-- Skill&#45;&gt;UserSkill -->
<g id="edge14" class="edge"><title>Skill&#45;&gt;UserSkill</title>
<path fill="none" stroke="#5f18c8" d="M167.134,-571.951C171.009,-562.492 174.459,-552.621 176.844,-543 198.667,-454.984 200.656,-349.715 199.065,-282.975"/>
<ellipse fill="none" stroke="#5f18c8" cx="165.514" cy="-575.756" rx="4.00002" ry="4.00002"/>
<polygon fill="#5f18c8" stroke="#5f18c8" points="199.055,-282.599 203.28,-272.48 198.918,-277.601 198.781,-272.603 198.781,-272.603 198.781,-272.603 198.918,-277.601 194.283,-272.726 199.055,-282.599 199.055,-282.599"/>
</g>
<!-- User&#45;&gt;Message -->
<g id="edge21" class="edge"><title>User&#45;&gt;Message</title>
<path fill="none" stroke="#62a05e" d="M403.709,-309.233C397.883,-299.732 392.145,-290.375 386.687,-281.475"/>
<ellipse fill="none" stroke="#62a05e" cx="405.947" cy="-312.882" rx="4.00002" ry="4.00002"/>
<polygon fill="#62a05e" stroke="#62a05e" points="386.558,-281.263 385.166,-270.386 383.944,-277.001 381.33,-272.738 381.33,-272.738 381.33,-272.738 383.944,-277.001 377.494,-275.091 386.558,-281.263 386.558,-281.263"/>
</g>
<!-- User&#45;&gt;Notification -->
<g id="edge20" class="edge"><title>User&#45;&gt;Notification</title>
<path fill="none" stroke="#8c3856" d="M573.037,-309.937C581.222,-299.849 589.281,-289.916 596.913,-280.508"/>
<ellipse fill="none" stroke="#8c3856" cx="570.401" cy="-313.186" rx="4.00002" ry="4.00002"/>
<polygon fill="#8c3856" stroke="#8c3856" points="596.917,-280.504 606.712,-275.573 600.067,-276.621 603.217,-272.738 603.217,-272.738 603.217,-272.738 600.067,-276.621 599.723,-269.903 596.917,-280.504 596.917,-280.504"/>
</g>
<!-- User&#45;&gt;UserProject -->
<g id="edge19" class="edge"><title>User&#45;&gt;UserProject</title>
<path fill="none" stroke="#29d5d8" d="M488.777,-308.039C489.398,-301.769 490.012,-295.568 490.611,-289.525"/>
<ellipse fill="none" stroke="#29d5d8" cx="488.354" cy="-312.312" rx="4" ry="4"/>
<polygon fill="#29d5d8" stroke="#29d5d8" points="490.616,-289.473 496.08,-279.965 491.109,-284.497 491.602,-279.522 491.602,-279.522 491.602,-279.522 491.109,-284.497 487.124,-279.078 490.616,-289.473 490.616,-289.473"/>
</g>
<!-- User&#45;&gt;UserSkill -->
<g id="edge18" class="edge"><title>User&#45;&gt;UserSkill</title>
<path fill="none" stroke="#b21c87" d="M367.61,-352.162C336.014,-329.438 301.73,-304.148 270.844,-280 270.361,-279.622 269.877,-279.243 269.392,-278.861"/>
<ellipse fill="none" stroke="#b21c87" cx="371.06" cy="-354.639" rx="4.00002" ry="4.00002"/>
<polygon fill="#b21c87" stroke="#b21c87" points="269.281,-278.773 264.256,-269.026 265.368,-275.66 261.455,-272.548 261.455,-272.548 261.455,-272.548 265.368,-275.66 258.653,-276.07 269.281,-278.773 269.281,-278.773"/>
</g>
<!-- UserSkill&#45;&gt;UserSkillProject -->
<g id="edge24" class="edge"><title>UserSkill&#45;&gt;UserSkillProject</title>
<path fill="none" stroke="#c0da8d" d="M264.609,-154.219C266.674,-153.081 268.754,-152.004 270.844,-151 400.507,-88.711 569.332,-68.3667 666.246,-61.7223"/>
<ellipse fill="none" stroke="#c0da8d" cx="261.102" cy="-156.284" rx="4.00002" ry="4.00002"/>
<polygon fill="#c0da8d" stroke="#c0da8d" points="666.281,-61.7201 676.554,-65.5575 671.271,-61.3936 676.26,-61.0671 676.26,-61.0671 676.26,-61.0671 671.271,-61.3936 675.966,-56.5767 666.281,-61.7201 666.281,-61.7201"/>
</g>
<!-- ActiveRecord::Base -->
<g id="node12" class="node"><title>ActiveRecord::Base</title>
<ellipse fill="none" stroke="black" cx="356.844" cy="-917.5" rx="81.1422" ry="18"/>
<text text-anchor="middle" x="356.844" y="-913.3" font-family="Times,serif" font-size="14.00">ActiveRecord::Base</text>
</g>
<!-- ActiveRecord::Base&#45;&gt;Category -->
<g id="edge2" class="edge"><title>ActiveRecord::Base&#45;&gt;Category</title>
<path fill="none" stroke="black" d="M331.514,-900.216C302.169,-881.351 252.684,-849.539 212.322,-823.592"/>
</g>
<!-- ActiveRecord::Base&#45;&gt;Message -->
<g id="edge3" class="edge"><title>ActiveRecord::Base&#45;&gt;Message</title>
<path fill="none" stroke="black" d="M347.742,-899.45C340.74,-885.315 331.64,-864.458 327.844,-845 316.867,-788.727 326.755,-773.323 327.844,-716 330.904,-555.049 339.506,-365.085 344.011,-272.662"/>
</g>
<!-- ActiveRecord::Base&#45;&gt;Notification -->
<g id="edge4" class="edge"><title>ActiveRecord::Base&#45;&gt;Notification</title>
<path fill="none" stroke="black" d="M427.042,-908.342C471.481,-899.665 527.098,-881.79 562.844,-845 715.569,-687.816 682.821,-395.224 660.667,-272.722"/>
</g>
<!-- ActiveRecord::Base&#45;&gt;Project -->
<g id="edge12" class="edge"><title>ActiveRecord::Base&#45;&gt;Project</title>
<path fill="none" stroke="black" d="M362.797,-899.402C367.663,-885.425 374.861,-864.749 381.877,-844.598"/>
</g>
<!-- ActiveRecord::Base&#45;&gt;ProjectSkill -->
<g id="edge13" class="edge"><title>ActiveRecord::Base&#45;&gt;ProjectSkill</title>
<path fill="none" stroke="black" d="M322.342,-901.07C305.812,-894.151 285.577,-886.36 266.844,-881 181.693,-856.636 129.366,-911.48 70.8444,-845 -19.258,-742.645 40.0332,-565.496 77.2402,-479.781"/>
</g>
<!-- ActiveRecord::Base&#45;&gt;Skill -->
<g id="edge17" class="edge"><title>ActiveRecord::Base&#45;&gt;Skill</title>
<path fill="none" stroke="black" d="M340.507,-899.69C327.349,-885.694 308.809,-864.907 294.844,-845 257.138,-791.247 262.359,-768.438 222.844,-716 213.523,-703.63 202.488,-691.267 191.509,-679.941"/>
</g>
<!-- ActiveRecord::Base&#45;&gt;User -->
<g id="edge22" class="edge"><title>ActiveRecord::Base&#45;&gt;User</title>
<path fill="none" stroke="black" d="M403.086,-902.686C430.657,-891.797 463.399,-873.581 479.844,-845 532.512,-753.464 523.812,-630.665 506.793,-542.525"/>
</g>
<!-- ActiveRecord::Base&#45;&gt;UserProject -->
<g id="edge23" class="edge"><title>ActiveRecord::Base&#45;&gt;UserProject</title>
<path fill="none" stroke="black" d="M409.699,-903.739C443.15,-893.146 485.002,-874.865 511.844,-845 606.548,-739.634 590.874,-682.797 613.844,-543 630.203,-443.446 655.985,-407.666 613.844,-316 613.448,-315.137 590.201,-295.142 564.623,-273.301"/>
</g>
<!-- ActiveRecord::Base&#45;&gt;UserSkill -->
<g id="edge25" class="edge"><title>ActiveRecord::Base&#45;&gt;UserSkill</title>
<path fill="none" stroke="black" d="M322.854,-900.94C306.266,-893.906 285.835,-886.056 266.844,-881 213.243,-866.728 56.1283,-886.956 19.8444,-845 -22.7517,-795.746 15.8686,-331.336 24.8444,-316 47.4852,-277.315 91.4793,-252.214 129.173,-236.901"/>
</g>
<!-- ActiveRecord::Base&#45;&gt;UserSkillProject -->
<g id="edge26" class="edge"><title>ActiveRecord::Base&#45;&gt;UserSkillProject</title>
<path fill="none" stroke="black" d="M429.014,-909.079C484.039,-900.609 559.67,-882.674 615.844,-845 715.961,-777.856 781.844,-751.047 781.844,-630.5 781.844,-630.5 781.844,-630.5 781.844,-428.5 781.844,-316.787 764.491,-187.089 753.238,-114.732"/>
</g>
</g>
</svg>
