<?xml version="1.0" encoding="UTF-8" standalone="no"?>
<!DOCTYPE svg PUBLIC "-//W3C//DTD SVG 1.1//EN"
 "http://www.w3.org/Graphics/SVG/1.1/DTD/svg11.dtd">
<!-- Generated by graphviz version 2.38.0 (20140413.2041)
 -->
<!-- Title: models_diagram Pages: 1 -->
<svg width="492pt" height="369pt"
 viewBox="0.00 0.00 492.47 369.00" xmlns="http://www.w3.org/2000/svg" xmlns:xlink="http://www.w3.org/1999/xlink">
<g id="graph0" class="graph" transform="scale(1 1) rotate(0) translate(4 365)">
<title>models_diagram</title>
<polygon fill="white" stroke="none" points="-4,4 -4,-365 488.468,-365 488.468,4 -4,4"/>
<!-- _diagram_info -->
<g id="node1" class="node"><title>_diagram_info</title>
<text text-anchor="start" x="8" y="-346.6" font-family="Times,serif" font-size="13.00">Models diagram</text>
<text text-anchor="start" x="8" y="-333.6" font-family="Times,serif" font-size="13.00">Date: Aug 05 2014 &#45; 21:17</text>
<text text-anchor="start" x="8" y="-320.6" font-family="Times,serif" font-size="13.00">Migration version: 20140806002536</text>
<text text-anchor="start" x="8" y="-307.6" font-family="Times,serif" font-size="13.00">Generated by RailRoady 1.1.1</text>
<text text-anchor="start" x="8" y="-294.6" font-family="Times,serif" font-size="13.00">http://railroady.prestonlee.com</text>
</g>
<!-- Category -->
<g id="node2" class="node"><title>Category</title>
<ellipse fill="none" stroke="black" cx="415.688" cy="-234" rx="42.5456" ry="18"/>
<text text-anchor="middle" x="415.688" y="-229.8" font-family="Times,serif" font-size="14.00">Category</text>
</g>
<!-- Skill -->
<g id="node5" class="node"><title>Skill</title>
<ellipse fill="none" stroke="black" cx="399.688" cy="-162" rx="27" ry="18"/>
<text text-anchor="middle" x="399.688" y="-157.8" font-family="Times,serif" font-size="14.00">Skill</text>
</g>
<!-- Category&#45;&gt;Skill -->
<g id="edge1" class="edge"><title>Category&#45;&gt;Skill</title>
<path fill="none" stroke="#882772" d="M409.97,-207.987C408.659,-202.249 407.258,-196.121 405.926,-190.293"/>
<ellipse fill="none" stroke="#882772" cx="410.923" cy="-212.156" rx="4.00001" ry="4.00001"/>
<polygon fill="#882772" stroke="#882772" points="405.865,-190.024 408.023,-179.273 404.751,-185.15 403.636,-180.275 403.636,-180.275 403.636,-180.275 404.751,-185.15 399.25,-181.278 405.865,-190.024 405.865,-190.024"/>
</g>
<!-- Notification -->
<g id="node3" class="node"><title>Notification</title>
<ellipse fill="none" stroke="black" cx="299.688" cy="-18" rx="52.2106" ry="18"/>
<text text-anchor="middle" x="299.688" y="-13.8" font-family="Times,serif" font-size="14.00">Notification</text>
</g>
<!-- Project -->
<g id="node4" class="node"><title>Project</title>
<ellipse fill="none" stroke="black" cx="205.688" cy="-162" rx="35.3129" ry="18"/>
<text text-anchor="middle" x="205.688" y="-157.8" font-family="Times,serif" font-size="14.00">Project</text>
</g>
<!-- User -->
<g id="node6" class="node"><title>User</title>
<ellipse fill="none" stroke="black" cx="323.688" cy="-90" rx="27" ry="18"/>
<text text-anchor="middle" x="323.688" y="-85.8" font-family="Times,serif" font-size="14.00">User</text>
</g>
<!-- Project&#45;&gt;User -->
<g id="edge5" class="edge"><title>Project&#45;&gt;User</title>
<path fill="none" stroke="#6873f4" d="M236.576,-142.676C254.718,-131.914 277.487,-118.407 295.197,-107.901"/>
<polygon fill="#6873f4" stroke="#6873f4" points="236.483,-142.731 225.587,-143.963 232.183,-145.283 227.883,-147.834 227.883,-147.834 227.883,-147.834 232.183,-145.283 230.179,-151.704 236.483,-142.731 236.483,-142.731"/>
<polygon fill="#6873f4" stroke="#6873f4" points="295.345,-107.814 306.241,-106.582 299.645,-105.263 303.946,-102.711 303.946,-102.711 303.946,-102.711 299.645,-105.263 301.65,-98.8412 295.345,-107.814 295.345,-107.814"/>
</g>
<!-- UserProject -->
<g id="node7" class="node"><title>UserProject</title>
<ellipse fill="none" stroke="black" cx="177.688" cy="-18" rx="51.7088" ry="18"/>
<text text-anchor="middle" x="177.688" y="-13.8" font-family="Times,serif" font-size="14.00">UserProject</text>
</g>
<!-- Project&#45;&gt;UserProject -->
<g id="edge4" class="edge"><title>Project&#45;&gt;UserProject</title>
<path fill="none" stroke="#ac78a0" d="M200.744,-135.929C195.774,-110.725 188.137,-71.9942 183.03,-46.0947"/>
<ellipse fill="none" stroke="#ac78a0" cx="201.536" cy="-139.947" rx="4.00001" ry="4.00001"/>
<polygon fill="#ac78a0" stroke="#ac78a0" points="183.012,-46.0004 185.492,-35.3187 182.045,-41.0948 181.077,-36.1893 181.077,-36.1893 181.077,-36.1893 182.045,-41.0948 176.662,-37.0599 183.012,-46.0004 183.012,-46.0004"/>
</g>
<!-- Skill&#45;&gt;User -->
<g id="edge8" class="edge"><title>Skill&#45;&gt;User</title>
<path fill="none" stroke="#cb152e" d="M376.713,-139.839C367.184,-131.062 356.151,-120.901 346.626,-112.127"/>
<polygon fill="#cb152e" stroke="#cb152e" points="376.953,-140.06 381.259,-150.144 380.63,-143.447 384.308,-146.834 384.308,-146.834 384.308,-146.834 380.63,-143.447 387.357,-143.524 376.953,-140.06 376.953,-140.06"/>
<polygon fill="#cb152e" stroke="#cb152e" points="346.4,-111.919 342.093,-101.835 342.722,-108.532 339.045,-105.144 339.045,-105.144 339.045,-105.144 342.722,-108.532 335.996,-108.454 346.4,-111.919 346.4,-111.919"/>
</g>
<!-- UserSkill -->
<g id="node8" class="node"><title>UserSkill</title>
<ellipse fill="none" stroke="black" cx="413.688" cy="-18" rx="43.5319" ry="18"/>
<text text-anchor="middle" x="413.688" y="-13.8" font-family="Times,serif" font-size="14.00">UserSkill</text>
</g>
<!-- Skill&#45;&gt;UserSkill -->
<g id="edge7" class="edge"><title>Skill&#45;&gt;UserSkill</title>
<path fill="none" stroke="#2837f9" d="M402.196,-135.558C404.672,-110.444 408.446,-72.164 410.987,-46.3932"/>
<ellipse fill="none" stroke="#2837f9" cx="401.769" cy="-139.891" rx="4" ry="4"/>
<polygon fill="#2837f9" stroke="#2837f9" points="411.012,-46.141 416.471,-36.6308 411.502,-41.1651 411.993,-36.1893 411.993,-36.1893 411.993,-36.1893 411.502,-41.1651 407.515,-35.7477 411.012,-46.141 411.012,-46.141"/>
</g>
<!-- User&#45;&gt;Notification -->
<g id="edge12" class="edge"><title>User&#45;&gt;Notification</title>
<path fill="none" stroke="#294ffe" d="M315.208,-64.2675C313.176,-58.34 310.996,-51.9814 308.931,-45.9587"/>
<ellipse fill="none" stroke="#294ffe" cx="316.581" cy="-68.2712" rx="4.00001" ry="4.00001"/>
<polygon fill="#294ffe" stroke="#294ffe" points="308.854,-45.7348 309.867,-34.8158 307.232,-41.005 305.611,-36.2753 305.611,-36.2753 305.611,-36.2753 307.232,-41.005 301.354,-37.7348 308.854,-45.7348 308.854,-45.7348"/>
</g>
<!-- User&#45;&gt;UserProject -->
<g id="edge11" class="edge"><title>User&#45;&gt;UserProject</title>
<path fill="none" stroke="#bd69b2" d="M294.94,-75.2168C272.324,-64.3735 240.608,-49.167 215.863,-37.3032"/>
<ellipse fill="none" stroke="#bd69b2" cx="298.851" cy="-77.0921" rx="4.00002" ry="4.00002"/>
<polygon fill="#bd69b2" stroke="#bd69b2" points="215.771,-37.2594 208.7,-28.8783 211.263,-35.0977 206.754,-32.936 206.754,-32.936 206.754,-32.936 211.263,-35.0977 204.809,-36.9938 215.771,-37.2594 215.771,-37.2594"/>
</g>
<!-- User&#45;&gt;UserSkill -->
<g id="edge10" class="edge"><title>User&#45;&gt;UserSkill</title>
<path fill="none" stroke="#86f601" d="M347.006,-70.8638C358.858,-61.6455 373.347,-50.3765 385.787,-40.7004"/>
<ellipse fill="none" stroke="#86f601" cx="343.773" cy="-73.3778" rx="4.00002" ry="4.00002"/>
<polygon fill="#86f601" stroke="#86f601" points="386.122,-40.4404 396.778,-37.8531 390.068,-37.3707 394.015,-34.301 394.015,-34.301 394.015,-34.301 390.068,-37.3707 391.252,-30.7489 386.122,-40.4404 386.122,-40.4404"/>
</g>
<!-- ActiveRecord::Base -->
<g id="node9" class="node"><title>ActiveRecord::Base</title>
<ellipse fill="none" stroke="black" cx="306.688" cy="-324.5" rx="81.1422" ry="18"/>
<text text-anchor="middle" x="306.688" y="-320.3" font-family="Times,serif" font-size="14.00">ActiveRecord::Base</text>
</g>
<!-- ActiveRecord::Base&#45;&gt;Category -->
<g id="edge2" class="edge"><title>ActiveRecord::Base&#45;&gt;Category</title>
<path fill="none" stroke="black" d="M326.934,-307.061C346.882,-290.865 377.125,-266.31 396.645,-250.461"/>
</g>
<!-- ActiveRecord::Base&#45;&gt;Notification -->
<g id="edge3" class="edge"><title>ActiveRecord::Base&#45;&gt;Notification</title>
<path fill="none" stroke="black" d="M303.196,-306.383C295.372,-265.673 277.861,-159.903 287.688,-72 289.05,-59.8114 292.124,-46.3345 294.819,-36.0209"/>
</g>
<!-- ActiveRecord::Base&#45;&gt;Project -->
<g id="edge6" class="edge"><title>ActiveRecord::Base&#45;&gt;Project</title>
<path fill="none" stroke="black" d="M293.457,-306.585C282.556,-292.357 266.953,-271.303 254.688,-252 239.174,-227.585 223.428,-197.926 214.114,-179.762"/>
</g>
<!-- ActiveRecord::Base&#45;&gt;Skill -->
<g id="edge9" class="edge"><title>ActiveRecord::Base&#45;&gt;Skill</title>
<path fill="none" stroke="black" d="M315.016,-306.426C325.655,-284.953 344.942,-247.125 363.688,-216 371.493,-203.041 381.165,-188.893 388.518,-178.477"/>
</g>
<!-- ActiveRecord::Base&#45;&gt;User -->
<g id="edge13" class="edge"><title>ActiveRecord::Base&#45;&gt;User</title>
<path fill="none" stroke="black" d="M307.938,-306.404C311.082,-263.407 319.29,-151.145 322.436,-108.121"/>
</g>
<!-- ActiveRecord::Base&#45;&gt;UserProject -->
<g id="edge14" class="edge"><title>ActiveRecord::Base&#45;&gt;UserProject</title>
<path fill="none" stroke="black" d="M280.225,-307.335C245.218,-284.186 185.203,-237.92 161.688,-180 141.718,-130.811 159.956,-66.4981 170.87,-36.2036"/>
</g>
<!-- ActiveRecord::Base&#45;&gt;UserSkill -->
<g id="edge15" class="edge"><title>ActiveRecord::Base&#45;&gt;UserSkill</title>
<path fill="none" stroke="black" d="M369.146,-312.923C404.522,-303.389 445.934,-285.463 467.688,-252 513.743,-181.154 452.455,-75.7091 425.38,-35.4399"/>
</g>
</g>
</svg>
